{"glyphs":{"0":{"ha":863,"x_min":33,"x_max":803,"o":"m 529 738 q 731 670 658 738 q 803 485 803 603 q 735 244 803 361 q 553 53 667 126 q 310 -19 440 -19 q 108 48 182 -19 q 33 235 33 115 q 102 475 33 358 q 285 665 171 592 q 529 738 399 738 m 507 713 q 369 638 432 713 q 272 447 307 564 q 236 207 236 329 q 263 54 236 103 q 332 6 289 6 q 470 82 408 6 q 566 276 532 158 q 600 515 600 394 q 575 665 600 617 q 507 713 550 713 z "},"1":{"ha":515,"x_min":63,"x_max":488,"o":"m 269 0 l 74 0 l 247 586 q 63 528 181 558 l 67 557 q 288 633 201 592 q 460 733 374 675 l 488 733 l 269 0 z "},"2":{"ha":743,"x_min":-35,"x_max":665,"o":"m 442 738 q 605 699 544 738 q 665 592 665 660 q 615 472 665 531 q 499 366 565 413 q 326 257 432 319 q 269 222 310 247 q 204 179 229 197 q 317 161 239 179 q 391 147 353 153 q 460 140 429 140 q 546 158 514 140 q 578 207 578 175 q 528 275 578 249 l 543 293 q 601 244 583 272 q 619 175 619 215 q 565 46 619 100 q 404 -8 511 -8 q 339 -2 374 -8 q 271 11 304 4 q 188 28 224 22 q 113 33 153 33 q 40 26 72 33 q -35 0 8 18 l -28 29 q 50 88 19 67 q 251 245 167 174 q 403 408 336 317 q 469 586 469 499 q 442 669 469 640 q 364 699 414 699 q 254 667 310 699 q 162 585 199 635 q 125 483 125 535 q 144 433 125 449 q 206 417 163 417 q 270 430 242 417 q 333 474 299 443 l 350 454 q 274 403 314 419 q 196 388 233 388 q 122 408 153 388 q 92 482 92 429 q 138 603 92 543 q 263 700 183 663 q 442 738 343 738 z "},"3":{"ha":718,"x_min":-121,"x_max":657,"o":"m 431 739 q 596 701 535 739 q 657 600 657 664 q 559 444 657 511 q 336 347 461 376 q 528 303 456 344 q 600 176 600 261 q 484 -23 600 64 q 199 -158 368 -110 q -121 -210 31 -207 l -114 -185 q 121 -131 3 -178 q 317 0 239 -85 q 396 199 396 85 q 374 288 396 254 q 311 325 351 322 q 267 308 289 315 q 231 301 246 301 q 207 322 200 301 q 274 349 213 349 l 300 347 q 424 436 376 379 q 472 567 472 493 q 438 658 472 625 q 343 692 404 692 q 246 667 294 692 q 166 605 197 643 q 135 526 135 567 q 153 476 135 492 q 215 460 172 460 q 301 481 263 460 l 317 460 q 206 431 263 431 q 132 451 163 431 q 101 525 101 472 q 146 626 101 576 q 266 707 190 675 q 431 739 342 739 z "},"4":{"ha":743,"x_min":-81,"x_max":643,"o":"m 629 64 l 449 64 l 379 -196 l 183 -196 l 253 64 l -81 64 l -72 93 l 594 738 l 631 738 l 463 113 l 643 113 l 629 64 m 267 113 l 365 479 l -12 113 l 267 113 z "},"5":{"ha":656,"x_min":-122,"x_max":617,"o":"m 617 738 q 528 594 581 646 q 410 543 476 543 q 319 568 381 543 q 265 588 286 582 q 225 592 243 594 l 96 314 q 311 363 185 363 q 490 319 431 363 q 549 197 549 275 q 440 -14 549 76 q 175 -153 332 -104 q -122 -206 18 -201 l -115 -181 q 94 -135 -12 -181 q 272 -3 201 -89 q 342 194 342 82 q 211 321 342 321 q 75 283 147 321 l 61 290 l 253 719 q 302 717 279 721 q 358 703 325 713 q 413 690 383 696 q 472 685 442 685 q 547 699 515 685 q 600 747 578 713 l 617 738 z "},"6":{"ha":788,"x_min":39,"x_max":767,"o":"m 767 975 q 517 829 639 940 q 318 547 396 718 q 240 171 240 375 q 258 44 240 79 q 313 8 276 8 q 419 76 371 8 q 496 242 468 144 q 524 421 524 339 q 505 514 524 485 q 454 543 486 543 q 385 508 419 543 q 328 400 351 474 l 306 407 q 532 608 363 608 q 675 553 621 608 q 729 399 729 499 q 667 194 729 292 q 501 39 606 97 q 278 -19 397 -19 q 39 236 39 -19 q 157 594 39 426 q 444 869 275 761 q 758 1003 614 978 l 767 975 z "},"7":{"ha":699,"x_min":58,"x_max":783,"o":"m 783 717 l 707 628 q 531 417 594 500 q 415 233 468 335 q 329 0 363 131 q 313 -72 318 -47 q 306 -110 308 -96 q 265 -178 297 -151 q 182 -206 233 -206 q 99 -128 99 -206 q 106 -78 99 -106 q 196 110 126 10 q 349 298 265 210 q 561 513 432 386 q 704 657 651 600 q 543 560 599 588 q 426 533 488 533 q 367 540 393 533 q 306 557 340 546 q 253 572 274 567 q 210 576 233 576 q 136 556 164 576 q 108 494 108 536 q 276 354 108 393 l 269 332 q 58 532 58 374 q 113 667 58 610 q 276 725 168 725 q 353 717 317 725 q 440 694 389 710 q 533 669 493 678 q 619 661 574 661 q 691 673 660 661 q 746 717 722 685 l 783 717 z "},"8":{"ha":799,"x_min":-4,"x_max":811,"o":"m 811 854 q 517 564 811 703 l 538 544 q 619 466 588 500 q 671 388 650 432 q 692 290 692 344 q 633 131 692 201 q 478 20 575 60 q 269 -19 381 -19 q 72 26 149 -19 q -4 163 -4 71 q 97 354 -4 268 q 347 500 199 440 q 247 614 281 564 q 214 733 214 664 q 265 874 214 813 q 401 969 317 935 q 581 1003 485 1003 q 747 965 683 1003 q 811 854 811 926 m 501 579 q 589 706 554 629 q 624 864 624 782 q 546 978 624 978 q 470 951 506 978 q 413 878 435 924 q 390 781 390 832 q 419 676 390 722 q 501 579 449 629 m 297 6 q 397 37 349 6 q 474 122 444 68 q 503 239 503 175 q 467 367 503 314 q 363 488 432 421 q 240 338 288 431 q 193 143 193 246 q 217 41 193 76 q 297 6 240 6 z "},"9":{"ha":769,"x_min":3,"x_max":717,"o":"m 478 738 q 717 482 717 738 q 601 135 717 297 q 318 -132 485 -26 q 11 -261 151 -237 l 3 -233 q 245 -92 126 -200 q 440 183 364 17 q 515 547 515 350 q 497 674 515 639 q 443 710 479 710 q 335 642 383 710 q 260 476 288 574 q 232 297 232 379 q 300 175 232 175 q 369 210 336 175 q 426 318 403 244 l 450 311 q 222 110 393 110 q 81 165 135 110 q 26 319 26 219 q 88 524 26 426 q 254 679 150 621 q 478 738 358 738 z "},"\u0000":{"ha":0,"x_min":0,"x_max":0,"o":""},"\r":{"ha":354,"x_min":0,"x_max":0,"o":""}," ":{"ha":354,"x_min":0,"x_max":0,"o":""},"A":{"ha":907,"x_min":-128,"x_max":808,"o":"m 740 117 q 764 50 744 71 q 808 28 783 29 l 803 0 q 601 4 732 4 q 393 0 460 4 l 399 28 q 472 40 446 31 q 510 73 499 49 q 518 144 521 97 l 506 372 l 206 372 l 83 199 q 39 96 39 136 q 69 47 39 63 q 156 28 99 31 l 149 0 q -32 4 32 4 q -128 0 -83 4 l -122 28 q -52 69 -86 38 q 35 175 -18 101 l 614 990 q 650 989 626 989 q 685 990 675 989 l 740 117 m 504 400 l 486 768 l 225 400 l 504 400 z "},"Á":{"ha":907,"x_min":-128,"x_max":1026,"o":"m 740 117 q 764 50 744 71 q 808 28 783 29 l 803 0 q 601 4 732 4 q 393 0 460 4 l 399 28 q 472 40 446 31 q 510 73 499 49 q 518 144 521 97 l 506 372 l 206 372 l 83 199 q 39 96 39 136 q 69 47 39 63 q 156 28 99 31 l 149 0 q -32 4 32 4 q -128 0 -83 4 l -122 28 q -52 69 -86 38 q 35 175 -18 101 l 614 990 q 650 989 626 989 q 685 990 675 989 l 740 117 m 504 400 l 486 768 l 225 400 l 504 400 m 629 1089 q 725 1171 683 1132 q 775 1217 767 1210 q 842 1277 818 1257 q 893 1313 867 1297 q 953 1328 919 1328 q 1019 1290 1001 1328 q 1026 1263 1026 1278 q 1010 1219 1026 1239 q 964 1183 993 1199 q 905 1158 940 1171 q 831 1135 869 1146 q 639 1072 726 1107 l 629 1089 z "},"Ă":{"ha":907,"x_min":-128,"x_max":1011,"o":"m 740 117 q 764 50 744 71 q 808 28 783 29 l 803 0 q 601 4 732 4 q 393 0 460 4 l 399 28 q 472 40 446 31 q 510 73 499 49 q 518 144 521 97 l 506 372 l 206 372 l 83 199 q 39 96 39 136 q 69 47 39 63 q 156 28 99 31 l 149 0 q -32 4 32 4 q -128 0 -83 4 l -122 28 q -52 69 -86 38 q 35 175 -18 101 l 614 990 q 650 989 626 989 q 685 990 675 989 l 740 117 m 504 400 l 486 768 l 225 400 l 504 400 m 679 1207 q 996 1286 863 1207 l 1011 1272 q 851 1131 953 1192 q 651 1071 750 1071 q 504 1126 560 1071 q 432 1271 449 1182 l 453 1281 q 545 1224 493 1240 q 679 1207 597 1207 z "},"Ắ":{"ha":907,"x_min":-128,"x_max":1082,"o":"m 740 117 q 764 50 744 71 q 808 28 783 29 l 803 0 q 601 4 732 4 q 393 0 460 4 l 399 28 q 472 40 446 31 q 510 73 499 49 q 518 144 521 97 l 506 372 l 206 372 l 83 199 q 39 96 39 136 q 69 47 39 63 q 156 28 99 31 l 149 0 q -32 4 32 4 q -128 0 -83 4 l -122 28 q -52 69 -86 38 q 35 175 -18 101 l 614 990 q 650 989 626 989 q 685 990 675 989 l 740 117 m 504 400 l 486 768 l 225 400 l 504 400 m 679 1207 q 996 1286 863 1207 l 1011 1272 q 851 1131 953 1192 q 651 1071 750 1071 q 504 1126 560 1071 q 432 1271 449 1182 l 453 1281 q 545 1224 493 1240 q 679 1207 597 1207 m 685 1313 q 781 1394 739 1356 q 831 1440 822 1433 q 898 1501 874 1481 q 949 1536 922 1521 q 1008 1551 975 1551 q 1075 1514 1057 1551 q 1082 1486 1082 1501 q 1065 1442 1082 1463 q 1019 1407 1049 1422 q 960 1382 996 1394 q 886 1358 925 1369 q 694 1296 782 1331 l 685 1313 z "},"Ặ":{"ha":907,"x_min":-128,"x_max":1011,"o":"m 740 117 q 764 50 744 71 q 808 28 783 29 l 803 0 q 601 4 732 4 q 393 0 460 4 l 399 28 q 472 40 446 31 q 510 73 499 49 q 518 144 521 97 l 506 372 l 206 372 l 83 199 q 39 96 39 136 q 69 47 39 63 q 156 28 99 31 l 149 0 q -32 4 32 4 q -128 0 -83 4 l -122 28 q -52 69 -86 38 q 35 175 -18 101 l 614 990 q 650 989 626 989 q 685 990 675 989 l 740 117 m 504 400 l 486 768 l 225 400 l 504 400 m 679 1207 q 996 1286 863 1207 l 1011 1272 q 851 1131 953 1192 q 651 1071 750 1071 q 504 1126 560 1071 q 432 1271 449 1182 l 453 1281 q 545 1224 493 1240 q 679 1207 597 1207 m 288 -260 q 221 -241 244 -260 q 197 -187 197 -222 q 231 -106 197 -136 q 319 -76 264 -76 q 386 -95 363 -76 q 410 -149 410 -114 q 376 -230 410 -200 q 288 -260 342 -260 z "},"Ằ":{"ha":907,"x_min":-128,"x_max":1011,"o":"m 740 117 q 764 50 744 71 q 808 28 783 29 l 803 0 q 601 4 732 4 q 393 0 460 4 l 399 28 q 472 40 446 31 q 510 73 499 49 q 518 144 521 97 l 506 372 l 206 372 l 83 199 q 39 96 39 136 q 69 47 39 63 q 156 28 99 31 l 149 0 q -32 4 32 4 q -128 0 -83 4 l -122 28 q -52 69 -86 38 q 35 175 -18 101 l 614 990 q 650 989 626 989 q 685 990 675 989 l 740 117 m 504 400 l 486 768 l 225 400 l 504 400 m 679 1207 q 996 1286 863 1207 l 1011 1272 q 851 1131 953 1192 q 651 1071 750 1071 q 504 1126 560 1071 q 432 1271 449 1182 l 453 1281 q 545 1224 493 1240 q 679 1207 597 1207 m 772 1294 q 606 1360 696 1329 q 563 1376 596 1364 q 507 1403 531 1388 q 476 1433 488 1414 q 464 1474 464 1453 q 474 1508 464 1493 q 536 1542 493 1542 q 589 1526 565 1542 q 623 1497 608 1514 q 665 1446 638 1481 q 704 1397 672 1438 q 783 1310 736 1356 l 772 1294 z "},"Ẳ":{"ha":907,"x_min":-128,"x_max":1011,"o":"m 740 117 q 764 50 744 71 q 808 28 783 29 l 803 0 q 601 4 732 4 q 393 0 460 4 l 399 28 q 472 40 446 31 q 510 73 499 49 q 518 144 521 97 l 506 372 l 206 372 l 83 199 q 39 96 39 136 q 69 47 39 63 q 156 28 99 31 l 149 0 q -32 4 32 4 q -128 0 -83 4 l -122 28 q -52 69 -86 38 q 35 175 -18 101 l 614 990 q 650 989 626 989 q 685 990 675 989 l 740 117 m 504 400 l 486 768 l 225 400 l 504 400 m 679 1207 q 996 1286 863 1207 l 1011 1272 q 851 1131 953 1192 q 651 1071 750 1071 q 504 1126 560 1071 q 432 1271 449 1182 l 453 1281 q 545 1224 493 1240 q 679 1207 597 1207 m 707 1318 q 728 1379 713 1356 q 772 1429 744 1403 q 813 1477 800 1456 q 826 1533 826 1499 q 743 1615 826 1615 q 681 1599 699 1615 q 729 1531 729 1578 q 705 1475 729 1497 q 644 1453 681 1453 q 594 1471 614 1453 q 575 1518 575 1489 q 597 1573 575 1549 q 654 1613 618 1597 q 793 1640 714 1640 q 911 1615 867 1640 q 956 1539 956 1590 q 931 1477 956 1499 q 853 1432 906 1456 q 771 1385 800 1408 q 735 1318 742 1361 l 707 1318 z "},"Ẵ":{"ha":907,"x_min":-128,"x_max":1060,"o":"m 740 117 q 764 50 744 71 q 808 28 783 29 l 803 0 q 601 4 732 4 q 393 0 460 4 l 399 28 q 472 40 446 31 q 510 73 499 49 q 518 144 521 97 l 506 372 l 206 372 l 83 199 q 39 96 39 136 q 69 47 39 63 q 156 28 99 31 l 149 0 q -32 4 32 4 q -128 0 -83 4 l -122 28 q -52 69 -86 38 q 35 175 -18 101 l 614 990 q 650 989 626 989 q 685 990 675 989 l 740 117 m 504 400 l 486 768 l 225 400 l 504 400 m 679 1207 q 996 1286 863 1207 l 1011 1272 q 851 1131 953 1192 q 651 1071 750 1071 q 504 1126 560 1071 q 432 1271 449 1182 l 453 1281 q 545 1224 493 1240 q 679 1207 597 1207 m 664 1511 q 745 1497 713 1511 q 817 1456 778 1482 q 873 1421 850 1432 q 928 1410 896 1410 q 984 1428 958 1410 q 1035 1490 1010 1447 l 1060 1483 q 960 1338 1022 1386 q 829 1290 897 1290 q 747 1305 779 1290 q 675 1347 715 1319 q 619 1381 642 1369 q 565 1392 597 1392 q 509 1373 535 1392 q 458 1311 483 1354 l 433 1318 q 533 1463 471 1415 q 664 1511 594 1511 z "},"Ǎ":{"ha":907,"x_min":-128,"x_max":1047,"o":"m 740 117 q 764 50 744 71 q 808 28 783 29 l 803 0 q 601 4 732 4 q 393 0 460 4 l 399 28 q 472 40 446 31 q 510 73 499 49 q 518 144 521 97 l 506 372 l 206 372 l 83 199 q 39 96 39 136 q 69 47 39 63 q 156 28 99 31 l 149 0 q -32 4 32 4 q -128 0 -83 4 l -122 28 q -52 69 -86 38 q 35 175 -18 101 l 614 990 q 650 989 626 989 q 685 990 675 989 l 740 117 m 504 400 l 486 768 l 225 400 l 504 400 m 739 1219 q 1040 1301 885 1272 l 1047 1282 q 832 1188 932 1246 q 671 1067 732 1131 l 646 1067 q 570 1195 614 1144 q 453 1282 526 1246 l 458 1301 q 608 1267 549 1286 q 739 1219 668 1249 z "},"Â":{"ha":907,"x_min":-128,"x_max":943,"o":"m 740 117 q 764 50 744 71 q 808 28 783 29 l 803 0 q 601 4 732 4 q 393 0 460 4 l 399 28 q 472 40 446 31 q 510 73 499 49 q 518 144 521 97 l 506 372 l 206 372 l 83 199 q 39 96 39 136 q 69 47 39 63 q 156 28 99 31 l 149 0 q -32 4 32 4 q -128 0 -83 4 l -122 28 q -52 69 -86 38 q 35 175 -18 101 l 614 990 q 650 989 626 989 q 685 990 675 989 l 740 117 m 504 400 l 486 768 l 225 400 l 504 400 m 658 1153 q 356 1071 514 1100 l 349 1090 q 564 1184 464 1126 q 725 1306 664 1242 l 750 1306 q 826 1177 782 1228 q 943 1090 869 1126 l 938 1071 q 787 1105 847 1086 q 658 1153 726 1124 z "},"Ấ":{"ha":907,"x_min":-128,"x_max":1099,"o":"m 740 117 q 764 50 744 71 q 808 28 783 29 l 803 0 q 601 4 732 4 q 393 0 460 4 l 399 28 q 472 40 446 31 q 510 73 499 49 q 518 144 521 97 l 506 372 l 206 372 l 83 199 q 39 96 39 136 q 69 47 39 63 q 156 28 99 31 l 149 0 q -32 4 32 4 q -128 0 -83 4 l -122 28 q -52 69 -86 38 q 35 175 -18 101 l 614 990 q 650 989 626 989 q 685 990 675 989 l 740 117 m 504 400 l 486 768 l 225 400 l 504 400 m 658 1153 q 356 1071 514 1100 l 349 1090 q 564 1184 464 1126 q 725 1306 664 1242 l 750 1306 q 826 1177 782 1228 q 943 1090 869 1126 l 938 1071 q 787 1105 847 1086 q 658 1153 726 1124 m 701 1378 q 797 1460 756 1421 q 847 1506 839 1499 q 915 1566 890 1546 q 965 1601 939 1586 q 1025 1617 992 1617 q 1092 1579 1074 1617 q 1099 1551 1099 1567 q 1082 1508 1099 1528 q 1036 1472 1065 1488 q 977 1447 1013 1460 q 903 1424 942 1435 q 711 1361 799 1396 l 701 1378 z "},"Ậ":{"ha":907,"x_min":-128,"x_max":943,"o":"m 740 117 q 764 50 744 71 q 808 28 783 29 l 803 0 q 601 4 732 4 q 393 0 460 4 l 399 28 q 472 40 446 31 q 510 73 499 49 q 518 144 521 97 l 506 372 l 206 372 l 83 199 q 39 96 39 136 q 69 47 39 63 q 156 28 99 31 l 149 0 q -32 4 32 4 q -128 0 -83 4 l -122 28 q -52 69 -86 38 q 35 175 -18 101 l 614 990 q 650 989 626 989 q 685 990 675 989 l 740 117 m 504 400 l 486 768 l 225 400 l 504 400 m 658 1153 q 356 1071 514 1100 l 349 1090 q 564 1184 464 1126 q 725 1306 664 1242 l 750 1306 q 826 1177 782 1228 q 943 1090 869 1126 l 938 1071 q 787 1105 847 1086 q 658 1153 726 1124 m 288 -260 q 221 -241 244 -260 q 197 -187 197 -222 q 231 -106 197 -136 q 319 -76 264 -76 q 386 -95 363 -76 q 410 -149 410 -114 q 376 -230 410 -200 q 288 -260 342 -260 z "},"Ầ":{"ha":907,"x_min":-128,"x_max":943,"o":"m 740 117 q 764 50 744 71 q 808 28 783 29 l 803 0 q 601 4 732 4 q 393 0 460 4 l 399 28 q 472 40 446 31 q 510 73 499 49 q 518 144 521 97 l 506 372 l 206 372 l 83 199 q 39 96 39 136 q 69 47 39 63 q 156 28 99 31 l 149 0 q -32 4 32 4 q -128 0 -83 4 l -122 28 q -52 69 -86 38 q 35 175 -18 101 l 614 990 q 650 989 626 989 q 685 990 675 989 l 740 117 m 504 400 l 486 768 l 225 400 l 504 400 m 658 1153 q 356 1071 514 1100 l 349 1090 q 564 1184 464 1126 q 725 1306 664 1242 l 750 1306 q 826 1177 782 1228 q 943 1090 869 1126 l 938 1071 q 787 1105 847 1086 q 658 1153 726 1124 m 788 1360 q 621 1425 711 1394 q 578 1441 611 1429 q 522 1468 546 1453 q 491 1499 503 1479 q 479 1539 479 1518 q 489 1574 479 1558 q 551 1607 508 1607 q 604 1592 581 1607 q 638 1563 624 1579 q 681 1511 653 1546 q 719 1462 688 1503 q 799 1375 751 1421 l 788 1360 z "},"Ẩ":{"ha":907,"x_min":-128,"x_max":1200,"o":"m 740 117 q 764 50 744 71 q 808 28 783 29 l 803 0 q 601 4 732 4 q 393 0 460 4 l 399 28 q 472 40 446 31 q 510 73 499 49 q 518 144 521 97 l 506 372 l 206 372 l 83 199 q 39 96 39 136 q 69 47 39 63 q 156 28 99 31 l 149 0 q -32 4 32 4 q -128 0 -83 4 l -122 28 q -52 69 -86 38 q 35 175 -18 101 l 614 990 q 650 989 626 989 q 685 990 675 989 l 740 117 m 504 400 l 486 768 l 225 400 l 504 400 m 658 1153 q 356 1071 514 1100 l 349 1090 q 564 1184 464 1126 q 725 1306 664 1242 l 750 1306 q 826 1177 782 1228 q 943 1090 869 1126 l 938 1071 q 787 1105 847 1086 q 658 1153 726 1124 m 953 1260 q 974 1320 958 1297 q 1017 1371 989 1343 q 1058 1419 1044 1397 q 1071 1475 1071 1440 q 988 1557 1071 1557 q 925 1542 944 1557 q 974 1472 974 1521 q 949 1417 974 1439 q 889 1396 925 1396 q 838 1413 857 1396 q 819 1460 819 1431 q 900 1556 819 1518 q 1038 1583 958 1583 q 1156 1558 1111 1583 q 1200 1482 1200 1533 q 1175 1420 1200 1442 q 1097 1374 1150 1399 q 1016 1326 1044 1350 q 981 1260 988 1303 l 953 1260 z "},"Ẫ":{"ha":907,"x_min":-128,"x_max":1076,"o":"m 740 117 q 764 50 744 71 q 808 28 783 29 l 803 0 q 601 4 732 4 q 393 0 460 4 l 399 28 q 472 40 446 31 q 510 73 499 49 q 518 144 521 97 l 506 372 l 206 372 l 83 199 q 39 96 39 136 q 69 47 39 63 q 156 28 99 31 l 149 0 q -32 4 32 4 q -128 0 -83 4 l -122 28 q -52 69 -86 38 q 35 175 -18 101 l 614 990 q 650 989 626 989 q 685 990 675 989 l 740 117 m 504 400 l 486 768 l 225 400 l 504 400 m 658 1153 q 356 1071 514 1100 l 349 1090 q 564 1184 464 1126 q 725 1306 664 1242 l 750 1306 q 826 1177 782 1228 q 943 1090 869 1126 l 938 1071 q 787 1105 847 1086 q 658 1153 726 1124 m 681 1576 q 762 1562 729 1576 q 833 1521 794 1547 q 890 1486 867 1497 q 944 1475 913 1475 q 1001 1494 975 1475 q 1051 1556 1026 1513 l 1076 1549 q 976 1403 1039 1451 q 846 1356 914 1356 q 764 1370 796 1356 q 692 1413 732 1385 q 636 1446 658 1435 q 582 1457 614 1457 q 526 1438 551 1457 q 475 1376 500 1419 l 450 1383 q 549 1528 488 1481 q 681 1576 611 1576 z "},"Ä":{"ha":907,"x_min":-128,"x_max":947,"o":"m 740 117 q 764 50 744 71 q 808 28 783 29 l 803 0 q 601 4 732 4 q 393 0 460 4 l 399 28 q 472 40 446 31 q 510 73 499 49 q 518 144 521 97 l 506 372 l 206 372 l 83 199 q 39 96 39 136 q 69 47 39 63 q 156 28 99 31 l 149 0 q -32 4 32 4 q -128 0 -83 4 l -122 28 q -52 69 -86 38 q 35 175 -18 101 l 614 990 q 650 989 626 989 q 685 990 675 989 l 740 117 m 504 400 l 486 768 l 225 400 l 504 400 m 404 1156 q 439 1242 404 1210 q 524 1274 474 1274 q 590 1248 567 1274 q 614 1181 614 1222 q 578 1095 614 1126 q 493 1064 542 1064 q 427 1089 450 1064 q 404 1156 404 1114 m 738 1156 q 772 1242 738 1210 q 857 1274 807 1274 q 924 1248 900 1274 q 947 1181 947 1222 q 911 1095 947 1126 q 826 1064 875 1064 q 760 1089 782 1064 q 738 1156 738 1114 z "},"Ạ":{"ha":907,"x_min":-128,"x_max":808,"o":"m 740 117 q 764 50 744 71 q 808 28 783 29 l 803 0 q 601 4 732 4 q 393 0 460 4 l 399 28 q 472 40 446 31 q 510 73 499 49 q 518 144 521 97 l 506 372 l 206 372 l 83 199 q 39 96 39 136 q 69 47 39 63 q 156 28 99 31 l 149 0 q -32 4 32 4 q -128 0 -83 4 l -122 28 q -52 69 -86 38 q 35 175 -18 101 l 614 990 q 650 989 626 989 q 685 990 675 989 l 740 117 m 504 400 l 486 768 l 225 400 l 504 400 m 288 -260 q 221 -241 244 -260 q 197 -187 197 -222 q 231 -106 197 -136 q 319 -76 264 -76 q 386 -95 363 -76 q 410 -149 410 -114 q 376 -230 410 -200 q 288 -260 342 -260 z "},"À":{"ha":907,"x_min":-128,"x_max":808,"o":"m 740 117 q 764 50 744 71 q 808 28 783 29 l 803 0 q 601 4 732 4 q 393 0 460 4 l 399 28 q 472 40 446 31 q 510 73 499 49 q 518 144 521 97 l 506 372 l 206 372 l 83 199 q 39 96 39 136 q 69 47 39 63 q 156 28 99 31 l 149 0 q -32 4 32 4 q -128 0 -83 4 l -122 28 q -52 69 -86 38 q 35 175 -18 101 l 614 990 q 650 989 626 989 q 685 990 675 989 l 740 117 m 504 400 l 486 768 l 225 400 l 504 400 m 715 1071 q 549 1136 639 1106 q 506 1152 539 1140 q 450 1179 474 1164 q 419 1210 431 1190 q 407 1250 407 1229 q 417 1285 407 1269 q 479 1318 436 1318 q 532 1303 508 1318 q 566 1274 551 1290 q 608 1222 581 1257 q 647 1173 615 1214 q 726 1086 679 1132 l 715 1071 z "},"Ả":{"ha":907,"x_min":-128,"x_max":888,"o":"m 740 117 q 764 50 744 71 q 808 28 783 29 l 803 0 q 601 4 732 4 q 393 0 460 4 l 399 28 q 472 40 446 31 q 510 73 499 49 q 518 144 521 97 l 506 372 l 206 372 l 83 199 q 39 96 39 136 q 69 47 39 63 q 156 28 99 31 l 149 0 q -32 4 32 4 q -128 0 -83 4 l -122 28 q -52 69 -86 38 q 35 175 -18 101 l 614 990 q 650 989 626 989 q 685 990 675 989 l 740 117 m 504 400 l 486 768 l 225 400 l 504 400 m 640 1032 q 661 1092 646 1069 q 704 1143 676 1115 q 745 1191 732 1169 q 758 1247 758 1213 q 675 1329 758 1329 q 613 1314 632 1329 q 661 1244 661 1293 q 637 1190 661 1211 q 576 1168 613 1168 q 526 1185 544 1168 q 507 1232 507 1203 q 588 1328 507 1290 q 725 1356 646 1356 q 843 1331 799 1356 q 888 1254 888 1306 q 863 1192 888 1214 q 785 1146 838 1171 q 703 1099 732 1122 q 668 1032 675 1075 l 640 1032 z "},"Ā":{"ha":907,"x_min":-128,"x_max":936,"o":"m 740 117 q 764 50 744 71 q 808 28 783 29 l 803 0 q 601 4 732 4 q 393 0 460 4 l 399 28 q 472 40 446 31 q 510 73 499 49 q 518 144 521 97 l 506 372 l 206 372 l 83 199 q 39 96 39 136 q 69 47 39 63 q 156 28 99 31 l 149 0 q -32 4 32 4 q -128 0 -83 4 l -122 28 q -52 69 -86 38 q 35 175 -18 101 l 614 990 q 650 989 626 989 q 685 990 675 989 l 740 117 m 504 400 l 486 768 l 225 400 l 504 400 m 928 1138 l 372 1138 l 381 1172 l 936 1172 l 928 1138 z "},"Ą":{"ha":907,"x_min":-128,"x_max":808,"o":"m 740 117 q 764 50 744 71 q 808 28 783 29 l 803 0 q 601 4 732 4 q 393 0 460 4 l 399 28 q 472 40 446 31 q 510 73 499 49 q 518 144 521 97 l 506 372 l 206 372 l 83 199 q 39 96 39 136 q 69 47 39 63 q 156 28 99 31 l 149 0 q -32 4 32 4 q -128 0 -83 4 l -122 28 q -52 69 -86 38 q 35 175 -18 101 l 614 990 q 650 989 626 989 q 685 990 675 989 l 740 117 m 504 400 l 486 768 l 225 400 l 504 400 m 761 4 q 656 -62 697 -19 q 615 -150 615 -104 q 661 -192 615 -192 q 763 -161 708 -192 l 778 -185 q 576 -261 683 -261 q 490 -239 521 -261 q 458 -178 458 -217 q 536 -70 458 -117 q 725 4 614 -24 l 761 4 z "},"Å":{"ha":907,"x_min":-128,"x_max":826,"o":"m 740 117 q 764 50 744 71 q 808 28 783 29 l 803 0 q 601 4 732 4 q 393 0 460 4 l 399 28 q 472 40 446 31 q 510 73 499 49 q 518 144 521 97 l 506 372 l 206 372 l 83 199 q 39 96 39 136 q 69 47 39 63 q 156 28 99 31 l 149 0 q -32 4 32 4 q -128 0 -83 4 l -122 28 q -52 69 -86 38 q 35 175 -18 101 l 614 990 q 650 989 626 989 q 685 990 675 989 l 740 117 m 504 400 l 486 768 l 225 400 l 504 400 m 690 1301 q 788 1269 749 1301 q 826 1183 826 1236 q 802 1107 826 1142 q 738 1051 778 1072 q 654 1031 699 1031 q 559 1063 596 1031 q 522 1150 522 1094 q 571 1258 522 1214 q 690 1301 619 1301 m 660 1060 q 751 1095 711 1060 q 790 1182 790 1131 q 759 1249 790 1225 q 686 1272 728 1272 q 597 1235 635 1272 q 560 1150 560 1199 q 590 1084 560 1108 q 660 1060 619 1060 z "},"Ã":{"ha":907,"x_min":-128,"x_max":1003,"o":"m 740 117 q 764 50 744 71 q 808 28 783 29 l 803 0 q 601 4 732 4 q 393 0 460 4 l 399 28 q 472 40 446 31 q 510 73 499 49 q 518 144 521 97 l 506 372 l 206 372 l 83 199 q 39 96 39 136 q 69 47 39 63 q 156 28 99 31 l 149 0 q -32 4 32 4 q -128 0 -83 4 l -122 28 q -52 69 -86 38 q 35 175 -18 101 l 614 990 q 650 989 626 989 q 685 990 675 989 l 740 117 m 504 400 l 486 768 l 225 400 l 504 400 m 607 1288 q 688 1273 656 1288 q 760 1232 721 1258 q 816 1197 793 1208 q 871 1186 839 1186 q 927 1205 901 1186 q 978 1267 953 1224 l 1003 1260 q 903 1115 965 1163 q 772 1067 840 1067 q 690 1081 722 1067 q 618 1124 658 1096 q 563 1157 585 1146 q 508 1168 540 1168 q 452 1149 478 1168 q 401 1088 426 1131 l 376 1094 q 476 1240 414 1192 q 607 1288 538 1288 z "},"Æ":{"ha":1257,"x_min":-119,"x_max":1322,"o":"m 1035 979 q 1322 983 1235 979 q 1269 819 1304 933 q 1251 733 1257 778 l 1221 733 q 1231 832 1231 788 q 1201 924 1231 897 q 1108 951 1172 951 l 1021 951 q 948 944 972 951 q 910 913 924 936 q 882 836 896 889 l 794 508 l 903 508 q 968 529 942 508 q 1010 581 994 550 q 1046 664 1026 611 l 1076 664 q 1039 532 1054 596 l 1029 494 q 993 325 1014 438 l 963 325 q 967 368 963 347 q 969 411 969 399 q 954 460 969 442 q 897 481 939 478 l 788 481 l 699 147 q 686 79 686 94 q 706 41 686 50 q 778 32 726 32 l 879 32 q 989 55 946 32 q 1064 130 1032 78 q 1128 278 1096 182 l 1158 278 q 1129 178 1147 247 q 1093 0 1106 96 q 779 4 999 4 q 329 0 481 4 l 335 28 q 410 39 385 31 q 449 71 435 47 q 478 147 464 94 l 567 481 l 344 481 l 47 131 q 17 91 26 106 q 7 65 7 76 q 93 28 7 33 l 93 0 q -26 4 56 4 q -119 0 -86 4 l -119 28 q 0 117 -76 31 l 672 908 q 651 944 671 935 q 579 956 631 953 l 586 983 q 733 981 678 981 l 813 1074 l 849 1074 l 769 981 q 1035 979 875 979 m 574 508 l 661 836 q 667 860 664 843 l 368 508 l 574 508 z "},"B":{"ha":943,"x_min":-58,"x_max":918,"o":"m 544 517 q 776 450 696 510 q 857 300 857 390 q 799 137 857 204 q 637 35 740 69 q 400 0 533 0 l 319 1 q 157 4 233 4 q -58 0 17 4 l -53 28 q 22 39 -3 31 q 62 71 47 47 q 90 147 76 94 l 274 836 q 285 903 285 881 q 265 942 285 929 q 192 956 244 954 l 199 983 q 410 979 272 979 l 528 981 q 613 982 557 982 q 843 934 768 982 q 918 799 918 886 q 872 666 918 726 q 740 567 825 606 q 544 517 656 528 m 593 956 q 533 936 551 956 q 499 857 514 917 l 410 522 l 458 522 q 588 564 533 522 q 672 674 643 606 q 700 821 700 743 q 676 921 700 886 q 593 956 651 956 m 367 32 q 507 71 449 32 q 595 176 565 110 q 625 325 625 243 q 587 451 625 404 q 465 499 549 499 l 404 499 l 311 147 q 300 85 300 100 q 315 45 300 58 q 367 32 331 32 z "},"C":{"ha":963,"x_min":60,"x_max":1036,"o":"m 1036 983 q 947 664 990 864 l 917 664 q 928 774 928 728 q 904 879 928 838 q 740 969 856 969 q 528 872 629 969 q 367 617 428 774 q 307 297 307 461 q 356 91 307 160 q 494 22 406 22 q 604 47 547 22 q 703 114 661 71 q 766 201 739 153 q 828 333 793 249 l 858 333 q 776 0 793 93 l 746 0 q 750 47 750 29 q 732 83 750 83 q 704 71 721 83 q 576 4 640 28 q 432 -19 513 -19 q 153 69 246 -19 q 60 325 60 158 q 147 647 60 489 q 386 903 233 804 q 724 1003 539 1003 q 847 979 801 1003 q 931 913 892 956 q 951 900 942 900 q 1007 983 976 900 l 1036 983 z "},"Ć":{"ha":963,"x_min":60,"x_max":1076,"o":"m 1036 983 q 947 664 990 864 l 917 664 q 928 774 928 728 q 904 879 928 838 q 740 969 856 969 q 528 872 629 969 q 367 617 428 774 q 307 297 307 461 q 356 91 307 160 q 494 22 406 22 q 604 47 547 22 q 703 114 661 71 q 766 201 739 153 q 828 333 793 249 l 858 333 q 776 0 793 93 l 746 0 q 750 47 750 29 q 732 83 750 83 q 704 71 721 83 q 576 4 640 28 q 432 -19 513 -19 q 153 69 246 -19 q 60 325 60 158 q 147 647 60 489 q 386 903 233 804 q 724 1003 539 1003 q 847 979 801 1003 q 931 913 892 956 q 951 900 942 900 q 1007 983 976 900 l 1036 983 m 679 1089 q 775 1171 733 1132 q 825 1217 817 1210 q 892 1277 868 1257 q 943 1313 917 1297 q 1003 1328 969 1328 q 1069 1290 1051 1328 q 1076 1263 1076 1278 q 1060 1219 1076 1239 q 1014 1183 1043 1199 q 955 1158 990 1171 q 881 1135 919 1146 q 689 1072 776 1107 l 679 1089 z "},"Č":{"ha":963,"x_min":60,"x_max":1097,"o":"m 1036 983 q 947 664 990 864 l 917 664 q 928 774 928 728 q 904 879 928 838 q 740 969 856 969 q 528 872 629 969 q 367 617 428 774 q 307 297 307 461 q 356 91 307 160 q 494 22 406 22 q 604 47 547 22 q 703 114 661 71 q 766 201 739 153 q 828 333 793 249 l 858 333 q 776 0 793 93 l 746 0 q 750 47 750 29 q 732 83 750 83 q 704 71 721 83 q 576 4 640 28 q 432 -19 513 -19 q 153 69 246 -19 q 60 325 60 158 q 147 647 60 489 q 386 903 233 804 q 724 1003 539 1003 q 847 979 801 1003 q 931 913 892 956 q 951 900 942 900 q 1007 983 976 900 l 1036 983 m 789 1219 q 1090 1301 935 1272 l 1097 1282 q 882 1188 982 1246 q 721 1067 782 1131 l 696 1067 q 620 1195 664 1144 q 503 1282 576 1246 l 508 1301 q 658 1267 599 1286 q 789 1219 718 1249 z "},"Ç":{"ha":963,"x_min":60,"x_max":1036,"o":"m 1036 983 q 947 664 990 864 l 917 664 q 928 774 928 728 q 904 879 928 838 q 740 969 856 969 q 528 872 629 969 q 367 617 428 774 q 307 297 307 461 q 356 91 307 160 q 494 22 406 22 q 604 47 547 22 q 703 114 661 71 q 766 201 739 153 q 828 333 793 249 l 858 333 q 776 0 793 93 l 746 0 q 750 47 750 29 q 732 83 750 83 q 704 71 721 83 q 576 4 640 28 q 432 -19 513 -19 q 153 69 246 -19 q 60 325 60 158 q 147 647 60 489 q 386 903 233 804 q 724 1003 539 1003 q 847 979 801 1003 q 931 913 892 956 q 951 900 942 900 q 1007 983 976 900 l 1036 983 m 418 -87 q 499 -74 457 -74 q 567 -91 542 -74 q 592 -140 592 -108 q 520 -231 592 -201 q 356 -261 449 -261 q 268 -253 308 -261 q 204 -233 228 -244 l 213 -212 q 325 -228 268 -228 q 410 -214 371 -228 q 450 -164 450 -200 q 406 -132 450 -132 q 357 -142 381 -132 l 424 8 l 461 8 l 418 -87 z "},"Ĉ":{"ha":963,"x_min":60,"x_max":1036,"o":"m 1036 983 q 947 664 990 864 l 917 664 q 928 774 928 728 q 904 879 928 838 q 740 969 856 969 q 528 872 629 969 q 367 617 428 774 q 307 297 307 461 q 356 91 307 160 q 494 22 406 22 q 604 47 547 22 q 703 114 661 71 q 766 201 739 153 q 828 333 793 249 l 858 333 q 776 0 793 93 l 746 0 q 750 47 750 29 q 732 83 750 83 q 704 71 721 83 q 576 4 640 28 q 432 -19 513 -19 q 153 69 246 -19 q 60 325 60 158 q 147 647 60 489 q 386 903 233 804 q 724 1003 539 1003 q 847 979 801 1003 q 931 913 892 956 q 951 900 942 900 q 1007 983 976 900 l 1036 983 m 708 1153 q 406 1071 564 1100 l 399 1090 q 614 1184 514 1126 q 775 1306 714 1242 l 800 1306 q 876 1177 832 1228 q 993 1090 919 1126 l 988 1071 q 837 1105 897 1086 q 708 1153 776 1124 z "},"Ċ":{"ha":963,"x_min":60,"x_max":1036,"o":"m 1036 983 q 947 664 990 864 l 917 664 q 928 774 928 728 q 904 879 928 838 q 740 969 856 969 q 528 872 629 969 q 367 617 428 774 q 307 297 307 461 q 356 91 307 160 q 494 22 406 22 q 604 47 547 22 q 703 114 661 71 q 766 201 739 153 q 828 333 793 249 l 858 333 q 776 0 793 93 l 746 0 q 750 47 750 29 q 732 83 750 83 q 704 71 721 83 q 576 4 640 28 q 432 -19 513 -19 q 153 69 246 -19 q 60 325 60 158 q 147 647 60 489 q 386 903 233 804 q 724 1003 539 1003 q 847 979 801 1003 q 931 913 892 956 q 951 900 942 900 q 1007 983 976 900 l 1036 983 m 610 1147 q 650 1241 610 1206 q 751 1276 690 1276 q 828 1253 801 1276 q 854 1190 854 1231 q 813 1099 854 1136 q 710 1063 771 1063 q 636 1085 663 1063 q 610 1147 610 1107 z "},"D":{"ha":1071,"x_min":-53,"x_max":1050,"o":"m 1050 651 q 972 342 1050 492 q 740 96 894 192 q 365 0 585 0 l 297 1 q 156 4 217 4 q -53 0 21 4 l -49 28 q 23 39 -1 31 q 62 72 47 47 q 90 147 76 96 l 272 836 q 283 896 283 874 q 263 940 283 926 q 192 956 243 954 l 196 983 q 379 979 258 979 l 424 979 q 631 983 569 983 q 942 899 835 983 q 1050 651 1050 815 m 365 25 q 611 124 507 25 q 770 377 715 222 q 825 696 825 532 q 771 892 825 826 q 600 958 717 958 q 547 949 564 958 q 518 917 529 940 q 493 839 507 893 l 311 144 q 296 68 296 83 q 312 35 296 44 q 365 25 328 25 z "},"Ð":{"ha":1071,"x_min":-53,"x_max":1050,"o":"m 1050 651 q 972 342 1050 492 q 740 96 894 192 q 365 0 585 0 l 297 1 q 156 4 217 4 q -53 0 21 4 l -49 28 q 23 39 -1 31 q 62 72 47 47 q 90 147 76 96 l 272 836 q 283 896 283 874 q 263 940 283 926 q 192 956 243 954 l 196 983 q 379 979 258 979 l 424 979 q 631 983 569 983 q 942 899 835 983 q 1050 651 1050 815 m 365 25 q 611 124 507 25 q 770 377 715 222 q 825 696 825 532 q 771 892 825 826 q 600 958 717 958 q 547 949 564 958 q 518 917 529 940 q 493 839 507 893 l 311 144 q 296 68 296 83 q 312 35 296 44 q 365 25 328 25 m 615 474 l 26 474 l 35 508 l 624 508 l 615 474 z "},"Ď":{"ha":1071,"x_min":-53,"x_max":1050,"o":"m 1050 651 q 972 342 1050 492 q 740 96 894 192 q 365 0 585 0 l 297 1 q 156 4 217 4 q -53 0 21 4 l -49 28 q 23 39 -1 31 q 62 72 47 47 q 90 147 76 96 l 272 836 q 283 896 283 874 q 263 940 283 926 q 192 956 243 954 l 196 983 q 379 979 258 979 l 424 979 q 631 983 569 983 q 942 899 835 983 q 1050 651 1050 815 m 365 25 q 611 124 507 25 q 770 377 715 222 q 825 696 825 532 q 771 892 825 826 q 600 958 717 958 q 547 949 564 958 q 518 917 529 940 q 493 839 507 893 l 311 144 q 296 68 296 83 q 312 35 296 44 q 365 25 328 25 m 710 1219 q 1011 1301 856 1272 l 1018 1282 q 803 1188 903 1246 q 642 1067 703 1131 l 617 1067 q 541 1195 585 1144 q 424 1282 497 1246 l 429 1301 q 579 1267 519 1286 q 710 1219 639 1249 z "},"Đ":{"ha":1071,"x_min":-53,"x_max":1050,"o":"m 1050 651 q 972 342 1050 492 q 740 96 894 192 q 365 0 585 0 l 297 1 q 156 4 217 4 q -53 0 21 4 l -49 28 q 23 39 -1 31 q 62 72 47 47 q 90 147 76 96 l 272 836 q 283 896 283 874 q 263 940 283 926 q 192 956 243 954 l 196 983 q 379 979 258 979 l 424 979 q 631 983 569 983 q 942 899 835 983 q 1050 651 1050 815 m 365 25 q 611 124 507 25 q 770 377 715 222 q 825 696 825 532 q 771 892 825 826 q 600 958 717 958 q 547 949 564 958 q 518 917 529 940 q 493 839 507 893 l 311 144 q 296 68 296 83 q 312 35 296 44 q 365 25 328 25 m 615 474 l 26 474 l 35 508 l 624 508 l 615 474 z "},"E":{"ha":869,"x_min":-60,"x_max":932,"o":"m 650 979 q 932 983 847 979 q 879 819 893 878 q 861 733 872 789 l 831 733 q 832 783 832 751 q 797 914 832 876 q 678 951 763 951 l 635 951 q 562 944 586 951 q 523 913 538 936 q 494 836 508 889 l 407 508 l 458 508 q 575 557 528 508 q 649 675 622 606 l 681 675 q 638 529 654 596 l 629 494 q 589 314 613 429 l 558 314 q 560 344 560 324 q 443 481 560 481 l 400 481 l 311 147 q 299 79 299 104 q 319 41 299 50 q 390 32 339 32 l 442 32 q 568 55 517 32 q 660 131 619 78 q 742 278 700 183 l 774 278 q 743 178 758 238 q 707 0 719 96 q 392 4 613 4 q -60 0 92 4 l -53 28 q 22 39 -3 31 q 61 71 46 47 q 90 147 76 94 l 274 836 q 285 903 285 883 q 265 943 285 933 q 192 956 244 953 l 199 983 q 650 979 350 979 z "},"É":{"ha":869,"x_min":-60,"x_max":971,"o":"m 650 979 q 932 983 847 979 q 879 819 893 878 q 861 733 872 789 l 831 733 q 832 783 832 751 q 797 914 832 876 q 678 951 763 951 l 635 951 q 562 944 586 951 q 523 913 538 936 q 494 836 508 889 l 407 508 l 458 508 q 575 557 528 508 q 649 675 622 606 l 681 675 q 638 529 654 596 l 629 494 q 589 314 613 429 l 558 314 q 560 344 560 324 q 443 481 560 481 l 400 481 l 311 147 q 299 79 299 104 q 319 41 299 50 q 390 32 339 32 l 442 32 q 568 55 517 32 q 660 131 619 78 q 742 278 700 183 l 774 278 q 743 178 758 238 q 707 0 719 96 q 392 4 613 4 q -60 0 92 4 l -53 28 q 22 39 -3 31 q 61 71 46 47 q 90 147 76 94 l 274 836 q 285 903 285 883 q 265 943 285 933 q 192 956 244 953 l 199 983 q 650 979 350 979 m 574 1089 q 669 1171 628 1132 q 719 1217 711 1210 q 787 1277 763 1257 q 838 1313 811 1297 q 897 1328 864 1328 q 964 1290 946 1328 q 971 1263 971 1278 q 954 1219 971 1239 q 908 1183 938 1199 q 849 1158 885 1171 q 775 1135 814 1146 q 583 1072 671 1107 l 574 1089 z "},"Ĕ":{"ha":869,"x_min":-60,"x_max":956,"o":"m 650 979 q 932 983 847 979 q 879 819 893 878 q 861 733 872 789 l 831 733 q 832 783 832 751 q 797 914 832 876 q 678 951 763 951 l 635 951 q 562 944 586 951 q 523 913 538 936 q 494 836 508 889 l 407 508 l 458 508 q 575 557 528 508 q 649 675 622 606 l 681 675 q 638 529 654 596 l 629 494 q 589 314 613 429 l 558 314 q 560 344 560 324 q 443 481 560 481 l 400 481 l 311 147 q 299 79 299 104 q 319 41 299 50 q 390 32 339 32 l 442 32 q 568 55 517 32 q 660 131 619 78 q 742 278 700 183 l 774 278 q 743 178 758 238 q 707 0 719 96 q 392 4 613 4 q -60 0 92 4 l -53 28 q 22 39 -3 31 q 61 71 46 47 q 90 147 76 94 l 274 836 q 285 903 285 883 q 265 943 285 933 q 192 956 244 953 l 199 983 q 650 979 350 979 m 624 1207 q 940 1286 807 1207 l 956 1272 q 796 1131 897 1192 q 596 1071 694 1071 q 449 1126 504 1071 q 376 1271 393 1182 l 397 1281 q 490 1224 438 1240 q 624 1207 542 1207 z "},"Ě":{"ha":869,"x_min":-60,"x_max":992,"o":"m 650 979 q 932 983 847 979 q 879 819 893 878 q 861 733 872 789 l 831 733 q 832 783 832 751 q 797 914 832 876 q 678 951 763 951 l 635 951 q 562 944 586 951 q 523 913 538 936 q 494 836 508 889 l 407 508 l 458 508 q 575 557 528 508 q 649 675 622 606 l 681 675 q 638 529 654 596 l 629 494 q 589 314 613 429 l 558 314 q 560 344 560 324 q 443 481 560 481 l 400 481 l 311 147 q 299 79 299 104 q 319 41 299 50 q 390 32 339 32 l 442 32 q 568 55 517 32 q 660 131 619 78 q 742 278 700 183 l 774 278 q 743 178 758 238 q 707 0 719 96 q 392 4 613 4 q -60 0 92 4 l -53 28 q 22 39 -3 31 q 61 71 46 47 q 90 147 76 94 l 274 836 q 285 903 285 883 q 265 943 285 933 q 192 956 244 953 l 199 983 q 650 979 350 979 m 683 1219 q 985 1301 829 1272 l 992 1282 q 776 1188 876 1246 q 615 1067 676 1131 l 590 1067 q 515 1195 558 1144 q 397 1282 471 1246 l 403 1301 q 553 1267 493 1286 q 683 1219 613 1249 z "},"Ê":{"ha":869,"x_min":-60,"x_max":932,"o":"m 650 979 q 932 983 847 979 q 879 819 893 878 q 861 733 872 789 l 831 733 q 832 783 832 751 q 797 914 832 876 q 678 951 763 951 l 635 951 q 562 944 586 951 q 523 913 538 936 q 494 836 508 889 l 407 508 l 458 508 q 575 557 528 508 q 649 675 622 606 l 681 675 q 638 529 654 596 l 629 494 q 589 314 613 429 l 558 314 q 560 344 560 324 q 443 481 560 481 l 400 481 l 311 147 q 299 79 299 104 q 319 41 299 50 q 390 32 339 32 l 442 32 q 568 55 517 32 q 660 131 619 78 q 742 278 700 183 l 774 278 q 743 178 758 238 q 707 0 719 96 q 392 4 613 4 q -60 0 92 4 l -53 28 q 22 39 -3 31 q 61 71 46 47 q 90 147 76 94 l 274 836 q 285 903 285 883 q 265 943 285 933 q 192 956 244 953 l 199 983 q 650 979 350 979 m 603 1153 q 300 1071 458 1100 l 293 1090 q 508 1184 408 1126 q 669 1306 608 1242 l 694 1306 q 770 1177 726 1228 q 888 1090 814 1126 l 882 1071 q 731 1105 792 1086 q 603 1153 671 1124 z "},"Ế":{"ha":869,"x_min":-60,"x_max":1043,"o":"m 650 979 q 932 983 847 979 q 879 819 893 878 q 861 733 872 789 l 831 733 q 832 783 832 751 q 797 914 832 876 q 678 951 763 951 l 635 951 q 562 944 586 951 q 523 913 538 936 q 494 836 508 889 l 407 508 l 458 508 q 575 557 528 508 q 649 675 622 606 l 681 675 q 638 529 654 596 l 629 494 q 589 314 613 429 l 558 314 q 560 344 560 324 q 443 481 560 481 l 400 481 l 311 147 q 299 79 299 104 q 319 41 299 50 q 390 32 339 32 l 442 32 q 568 55 517 32 q 660 131 619 78 q 742 278 700 183 l 774 278 q 743 178 758 238 q 707 0 719 96 q 392 4 613 4 q -60 0 92 4 l -53 28 q 22 39 -3 31 q 61 71 46 47 q 90 147 76 94 l 274 836 q 285 903 285 883 q 265 943 285 933 q 192 956 244 953 l 199 983 q 650 979 350 979 m 603 1153 q 300 1071 458 1100 l 293 1090 q 508 1184 408 1126 q 669 1306 608 1242 l 694 1306 q 770 1177 726 1228 q 888 1090 814 1126 l 882 1071 q 731 1105 792 1086 q 603 1153 671 1124 m 646 1378 q 742 1460 700 1421 q 792 1506 783 1499 q 859 1566 835 1546 q 910 1601 883 1586 q 969 1617 936 1617 q 1036 1579 1018 1617 q 1043 1551 1043 1567 q 1026 1508 1043 1528 q 981 1472 1010 1488 q 922 1447 957 1460 q 847 1424 886 1435 q 656 1361 743 1396 l 646 1378 z "},"Ệ":{"ha":869,"x_min":-60,"x_max":932,"o":"m 650 979 q 932 983 847 979 q 879 819 893 878 q 861 733 872 789 l 831 733 q 832 783 832 751 q 797 914 832 876 q 678 951 763 951 l 635 951 q 562 944 586 951 q 523 913 538 936 q 494 836 508 889 l 407 508 l 458 508 q 575 557 528 508 q 649 675 622 606 l 681 675 q 638 529 654 596 l 629 494 q 589 314 613 429 l 558 314 q 560 344 560 324 q 443 481 560 481 l 400 481 l 311 147 q 299 79 299 104 q 319 41 299 50 q 390 32 339 32 l 442 32 q 568 55 517 32 q 660 131 619 78 q 742 278 700 183 l 774 278 q 743 178 758 238 q 707 0 719 96 q 392 4 613 4 q -60 0 92 4 l -53 28 q 22 39 -3 31 q 61 71 46 47 q 90 147 76 94 l 274 836 q 285 903 285 883 q 265 943 285 933 q 192 956 244 953 l 199 983 q 650 979 350 979 m 336 -260 q 269 -241 293 -260 q 246 -187 246 -222 q 279 -106 246 -136 q 368 -76 313 -76 q 435 -95 411 -76 q 458 -149 458 -114 q 424 -230 458 -200 q 336 -260 390 -260 m 603 1153 q 300 1071 458 1100 l 293 1090 q 508 1184 408 1126 q 669 1306 608 1242 l 694 1306 q 770 1177 726 1228 q 888 1090 814 1126 l 882 1071 q 731 1105 792 1086 q 603 1153 671 1124 z "},"Ề":{"ha":869,"x_min":-60,"x_max":932,"o":"m 650 979 q 932 983 847 979 q 879 819 893 878 q 861 733 872 789 l 831 733 q 832 783 832 751 q 797 914 832 876 q 678 951 763 951 l 635 951 q 562 944 586 951 q 523 913 538 936 q 494 836 508 889 l 407 508 l 458 508 q 575 557 528 508 q 649 675 622 606 l 681 675 q 638 529 654 596 l 629 494 q 589 314 613 429 l 558 314 q 560 344 560 324 q 443 481 560 481 l 400 481 l 311 147 q 299 79 299 104 q 319 41 299 50 q 390 32 339 32 l 442 32 q 568 55 517 32 q 660 131 619 78 q 742 278 700 183 l 774 278 q 743 178 758 238 q 707 0 719 96 q 392 4 613 4 q -60 0 92 4 l -53 28 q 22 39 -3 31 q 61 71 46 47 q 90 147 76 94 l 274 836 q 285 903 285 883 q 265 943 285 933 q 192 956 244 953 l 199 983 q 650 979 350 979 m 603 1153 q 300 1071 458 1100 l 293 1090 q 508 1184 408 1126 q 669 1306 608 1242 l 694 1306 q 770 1177 726 1228 q 888 1090 814 1126 l 882 1071 q 731 1105 792 1086 q 603 1153 671 1124 m 732 1360 q 565 1425 656 1394 q 523 1441 556 1429 q 467 1468 490 1453 q 435 1499 447 1479 q 424 1539 424 1518 q 433 1574 424 1558 q 496 1607 453 1607 q 549 1592 525 1607 q 583 1563 568 1579 q 625 1511 597 1546 q 664 1462 632 1503 q 743 1375 696 1421 l 732 1360 z "},"Ể":{"ha":869,"x_min":-60,"x_max":1144,"o":"m 650 979 q 932 983 847 979 q 879 819 893 878 q 861 733 872 789 l 831 733 q 832 783 832 751 q 797 914 832 876 q 678 951 763 951 l 635 951 q 562 944 586 951 q 523 913 538 936 q 494 836 508 889 l 407 508 l 458 508 q 575 557 528 508 q 649 675 622 606 l 681 675 q 638 529 654 596 l 629 494 q 589 314 613 429 l 558 314 q 560 344 560 324 q 443 481 560 481 l 400 481 l 311 147 q 299 79 299 104 q 319 41 299 50 q 390 32 339 32 l 442 32 q 568 55 517 32 q 660 131 619 78 q 742 278 700 183 l 774 278 q 743 178 758 238 q 707 0 719 96 q 392 4 613 4 q -60 0 92 4 l -53 28 q 22 39 -3 31 q 61 71 46 47 q 90 147 76 94 l 274 836 q 285 903 285 883 q 265 943 285 933 q 192 956 244 953 l 199 983 q 650 979 350 979 m 603 1153 q 300 1071 458 1100 l 293 1090 q 508 1184 408 1126 q 669 1306 608 1242 l 694 1306 q 770 1177 726 1228 q 888 1090 814 1126 l 882 1071 q 731 1105 792 1086 q 603 1153 671 1124 m 897 1260 q 918 1320 903 1297 q 961 1371 933 1343 q 1002 1419 989 1397 q 1015 1475 1015 1440 q 932 1557 1015 1557 q 869 1542 889 1557 q 918 1472 918 1521 q 894 1417 918 1439 q 833 1396 869 1396 q 783 1413 801 1396 q 764 1460 764 1431 q 844 1556 764 1518 q 982 1583 903 1583 q 1100 1558 1056 1583 q 1144 1482 1144 1533 q 1119 1420 1144 1442 q 1042 1374 1094 1399 q 960 1326 989 1350 q 925 1260 932 1303 l 897 1260 z "},"Ễ":{"ha":869,"x_min":-60,"x_max":1021,"o":"m 650 979 q 932 983 847 979 q 879 819 893 878 q 861 733 872 789 l 831 733 q 832 783 832 751 q 797 914 832 876 q 678 951 763 951 l 635 951 q 562 944 586 951 q 523 913 538 936 q 494 836 508 889 l 407 508 l 458 508 q 575 557 528 508 q 649 675 622 606 l 681 675 q 638 529 654 596 l 629 494 q 589 314 613 429 l 558 314 q 560 344 560 324 q 443 481 560 481 l 400 481 l 311 147 q 299 79 299 104 q 319 41 299 50 q 390 32 339 32 l 442 32 q 568 55 517 32 q 660 131 619 78 q 742 278 700 183 l 774 278 q 743 178 758 238 q 707 0 719 96 q 392 4 613 4 q -60 0 92 4 l -53 28 q 22 39 -3 31 q 61 71 46 47 q 90 147 76 94 l 274 836 q 285 903 285 883 q 265 943 285 933 q 192 956 244 953 l 199 983 q 650 979 350 979 m 603 1153 q 300 1071 458 1100 l 293 1090 q 508 1184 408 1126 q 669 1306 608 1242 l 694 1306 q 770 1177 726 1228 q 888 1090 814 1126 l 882 1071 q 731 1105 792 1086 q 603 1153 671 1124 m 625 1576 q 706 1562 674 1576 q 778 1521 739 1547 q 834 1486 811 1497 q 889 1475 857 1475 q 945 1494 919 1475 q 996 1556 971 1513 l 1021 1549 q 921 1403 983 1451 q 790 1356 858 1356 q 708 1370 740 1356 q 636 1413 676 1385 q 581 1446 603 1435 q 526 1457 558 1457 q 470 1438 496 1457 q 419 1376 444 1419 l 394 1383 q 494 1528 432 1481 q 625 1576 556 1576 z "},"Ë":{"ha":869,"x_min":-60,"x_max":932,"o":"m 650 979 q 932 983 847 979 q 879 819 893 878 q 861 733 872 789 l 831 733 q 832 783 832 751 q 797 914 832 876 q 678 951 763 951 l 635 951 q 562 944 586 951 q 523 913 538 936 q 494 836 508 889 l 407 508 l 458 508 q 575 557 528 508 q 649 675 622 606 l 681 675 q 638 529 654 596 l 629 494 q 589 314 613 429 l 558 314 q 560 344 560 324 q 443 481 560 481 l 400 481 l 311 147 q 299 79 299 104 q 319 41 299 50 q 390 32 339 32 l 442 32 q 568 55 517 32 q 660 131 619 78 q 742 278 700 183 l 774 278 q 743 178 758 238 q 707 0 719 96 q 392 4 613 4 q -60 0 92 4 l -53 28 q 22 39 -3 31 q 61 71 46 47 q 90 147 76 94 l 274 836 q 285 903 285 883 q 265 943 285 933 q 192 956 244 953 l 199 983 q 650 979 350 979 m 349 1156 q 383 1242 349 1210 q 468 1274 418 1274 q 535 1248 511 1274 q 558 1181 558 1222 q 522 1095 558 1126 q 438 1064 486 1064 q 372 1089 394 1064 q 349 1156 349 1114 m 682 1156 q 717 1242 682 1210 q 801 1274 751 1274 q 868 1248 844 1274 q 892 1181 892 1222 q 856 1095 892 1126 q 771 1064 819 1064 q 704 1089 726 1064 q 682 1156 682 1114 z "},"Ė":{"ha":869,"x_min":-60,"x_max":932,"o":"m 650 979 q 932 983 847 979 q 879 819 893 878 q 861 733 872 789 l 831 733 q 832 783 832 751 q 797 914 832 876 q 678 951 763 951 l 635 951 q 562 944 586 951 q 523 913 538 936 q 494 836 508 889 l 407 508 l 458 508 q 575 557 528 508 q 649 675 622 606 l 681 675 q 638 529 654 596 l 629 494 q 589 314 613 429 l 558 314 q 560 344 560 324 q 443 481 560 481 l 400 481 l 311 147 q 299 79 299 104 q 319 41 299 50 q 390 32 339 32 l 442 32 q 568 55 517 32 q 660 131 619 78 q 742 278 700 183 l 774 278 q 743 178 758 238 q 707 0 719 96 q 392 4 613 4 q -60 0 92 4 l -53 28 q 22 39 -3 31 q 61 71 46 47 q 90 147 76 94 l 274 836 q 285 903 285 883 q 265 943 285 933 q 192 956 244 953 l 199 983 q 650 979 350 979 m 504 1147 q 544 1241 504 1206 q 646 1276 585 1276 q 722 1253 696 1276 q 749 1190 749 1231 q 707 1099 749 1136 q 604 1063 665 1063 q 531 1085 557 1063 q 504 1147 504 1107 z "},"Ẹ":{"ha":869,"x_min":-60,"x_max":932,"o":"m 650 979 q 932 983 847 979 q 879 819 893 878 q 861 733 872 789 l 831 733 q 832 783 832 751 q 797 914 832 876 q 678 951 763 951 l 635 951 q 562 944 586 951 q 523 913 538 936 q 494 836 508 889 l 407 508 l 458 508 q 575 557 528 508 q 649 675 622 606 l 681 675 q 638 529 654 596 l 629 494 q 589 314 613 429 l 558 314 q 560 344 560 324 q 443 481 560 481 l 400 481 l 311 147 q 299 79 299 104 q 319 41 299 50 q 390 32 339 32 l 442 32 q 568 55 517 32 q 660 131 619 78 q 742 278 700 183 l 774 278 q 743 178 758 238 q 707 0 719 96 q 392 4 613 4 q -60 0 92 4 l -53 28 q 22 39 -3 31 q 61 71 46 47 q 90 147 76 94 l 274 836 q 285 903 285 883 q 265 943 285 933 q 192 956 244 953 l 199 983 q 650 979 350 979 m 336 -260 q 269 -241 293 -260 q 246 -187 246 -222 q 279 -106 246 -136 q 368 -76 313 -76 q 435 -95 411 -76 q 458 -149 458 -114 q 424 -230 458 -200 q 336 -260 390 -260 z "},"È":{"ha":869,"x_min":-60,"x_max":932,"o":"m 650 979 q 932 983 847 979 q 879 819 893 878 q 861 733 872 789 l 831 733 q 832 783 832 751 q 797 914 832 876 q 678 951 763 951 l 635 951 q 562 944 586 951 q 523 913 538 936 q 494 836 508 889 l 407 508 l 458 508 q 575 557 528 508 q 649 675 622 606 l 681 675 q 638 529 654 596 l 629 494 q 589 314 613 429 l 558 314 q 560 344 560 324 q 443 481 560 481 l 400 481 l 311 147 q 299 79 299 104 q 319 41 299 50 q 390 32 339 32 l 442 32 q 568 55 517 32 q 660 131 619 78 q 742 278 700 183 l 774 278 q 743 178 758 238 q 707 0 719 96 q 392 4 613 4 q -60 0 92 4 l -53 28 q 22 39 -3 31 q 61 71 46 47 q 90 147 76 94 l 274 836 q 285 903 285 883 q 265 943 285 933 q 192 956 244 953 l 199 983 q 650 979 350 979 m 660 1071 q 493 1136 583 1106 q 451 1152 483 1140 q 394 1179 418 1164 q 363 1210 375 1190 q 351 1250 351 1229 q 361 1285 351 1269 q 424 1318 381 1318 q 476 1303 453 1318 q 510 1274 496 1290 q 553 1222 525 1257 q 592 1173 560 1214 q 671 1086 624 1132 l 660 1071 z "},"Ẻ":{"ha":869,"x_min":-60,"x_max":932,"o":"m 650 979 q 932 983 847 979 q 879 819 893 878 q 861 733 872 789 l 831 733 q 832 783 832 751 q 797 914 832 876 q 678 951 763 951 l 635 951 q 562 944 586 951 q 523 913 538 936 q 494 836 508 889 l 407 508 l 458 508 q 575 557 528 508 q 649 675 622 606 l 681 675 q 638 529 654 596 l 629 494 q 589 314 613 429 l 558 314 q 560 344 560 324 q 443 481 560 481 l 400 481 l 311 147 q 299 79 299 104 q 319 41 299 50 q 390 32 339 32 l 442 32 q 568 55 517 32 q 660 131 619 78 q 742 278 700 183 l 774 278 q 743 178 758 238 q 707 0 719 96 q 392 4 613 4 q -60 0 92 4 l -53 28 q 22 39 -3 31 q 61 71 46 47 q 90 147 76 94 l 274 836 q 285 903 285 883 q 265 943 285 933 q 192 956 244 953 l 199 983 q 650 979 350 979 m 585 1032 q 606 1092 590 1069 q 649 1143 621 1115 q 690 1191 676 1169 q 703 1247 703 1213 q 619 1329 703 1329 q 557 1314 576 1329 q 606 1244 606 1293 q 581 1190 606 1211 q 521 1168 557 1168 q 470 1185 489 1168 q 451 1232 451 1203 q 532 1328 451 1290 q 669 1356 590 1356 q 788 1331 743 1356 q 832 1254 832 1306 q 807 1192 832 1214 q 729 1146 782 1171 q 648 1099 676 1122 q 613 1032 619 1075 l 585 1032 z "},"Ē":{"ha":869,"x_min":-60,"x_max":932,"o":"m 650 979 q 932 983 847 979 q 879 819 893 878 q 861 733 872 789 l 831 733 q 832 783 832 751 q 797 914 832 876 q 678 951 763 951 l 635 951 q 562 944 586 951 q 523 913 538 936 q 494 836 508 889 l 407 508 l 458 508 q 575 557 528 508 q 649 675 622 606 l 681 675 q 638 529 654 596 l 629 494 q 589 314 613 429 l 558 314 q 560 344 560 324 q 443 481 560 481 l 400 481 l 311 147 q 299 79 299 104 q 319 41 299 50 q 390 32 339 32 l 442 32 q 568 55 517 32 q 660 131 619 78 q 742 278 700 183 l 774 278 q 743 178 758 238 q 707 0 719 96 q 392 4 613 4 q -60 0 92 4 l -53 28 q 22 39 -3 31 q 61 71 46 47 q 90 147 76 94 l 274 836 q 285 903 285 883 q 265 943 285 933 q 192 956 244 953 l 199 983 q 650 979 350 979 m 872 1138 l 317 1138 l 325 1172 l 881 1172 l 872 1138 z "},"Ę":{"ha":869,"x_min":-60,"x_max":932,"o":"m 650 979 q 932 983 847 979 q 879 819 893 878 q 861 733 872 789 l 831 733 q 832 783 832 751 q 797 914 832 876 q 678 951 763 951 l 635 951 q 562 944 586 951 q 523 913 538 936 q 494 836 508 889 l 407 508 l 458 508 q 575 557 528 508 q 649 675 622 606 l 681 675 q 638 529 654 596 l 629 494 q 589 314 613 429 l 558 314 q 560 344 560 324 q 443 481 560 481 l 400 481 l 311 147 q 299 79 299 104 q 319 41 299 50 q 390 32 339 32 l 442 32 q 568 55 517 32 q 660 131 619 78 q 742 278 700 183 l 774 278 q 743 178 758 238 q 707 0 719 96 q 392 4 613 4 q -60 0 92 4 l -53 28 q 22 39 -3 31 q 61 71 46 47 q 90 147 76 94 l 274 836 q 285 903 285 883 q 265 943 285 933 q 192 956 244 953 l 199 983 q 650 979 350 979 m 703 4 q 598 -62 639 -19 q 557 -150 557 -104 q 603 -192 557 -192 q 704 -161 650 -192 l 719 -185 q 518 -261 625 -261 q 431 -239 463 -261 q 400 -178 400 -217 q 478 -70 400 -117 q 667 4 556 -24 l 703 4 z "},"Ẽ":{"ha":869,"x_min":-60,"x_max":947,"o":"m 650 979 q 932 983 847 979 q 879 819 893 878 q 861 733 872 789 l 831 733 q 832 783 832 751 q 797 914 832 876 q 678 951 763 951 l 635 951 q 562 944 586 951 q 523 913 538 936 q 494 836 508 889 l 407 508 l 458 508 q 575 557 528 508 q 649 675 622 606 l 681 675 q 638 529 654 596 l 629 494 q 589 314 613 429 l 558 314 q 560 344 560 324 q 443 481 560 481 l 400 481 l 311 147 q 299 79 299 104 q 319 41 299 50 q 390 32 339 32 l 442 32 q 568 55 517 32 q 660 131 619 78 q 742 278 700 183 l 774 278 q 743 178 758 238 q 707 0 719 96 q 392 4 613 4 q -60 0 92 4 l -53 28 q 22 39 -3 31 q 61 71 46 47 q 90 147 76 94 l 274 836 q 285 903 285 883 q 265 943 285 933 q 192 956 244 953 l 199 983 q 650 979 350 979 m 551 1288 q 633 1273 600 1288 q 704 1232 665 1258 q 760 1197 738 1208 q 815 1186 783 1186 q 872 1205 846 1186 q 922 1267 897 1224 l 947 1260 q 847 1115 910 1163 q 717 1067 785 1067 q 635 1081 667 1067 q 563 1124 603 1096 q 507 1157 529 1146 q 453 1168 485 1168 q 397 1149 422 1168 q 346 1088 371 1131 l 321 1094 q 420 1240 358 1192 q 551 1288 482 1288 z "},"Ʒ":{"ha":844,"x_min":-43,"x_max":924,"o":"m 917 956 l 592 532 q 722 435 679 490 q 765 299 765 381 q 708 135 765 208 q 550 22 650 63 q 328 -19 450 -19 q 88 31 192 -19 q 36 51 53 51 q 12 37 22 51 q -11 -10 1 22 l -43 -10 q 56 365 3 124 l 88 365 q 74 249 74 306 q 131 78 74 140 q 301 17 188 17 q 433 58 374 17 q 526 167 492 100 q 560 306 560 233 q 513 455 560 400 q 372 533 467 510 l 379 561 l 681 951 l 522 951 q 320 886 408 951 q 174 667 232 821 l 142 667 q 215 983 178 774 q 526 979 306 979 q 924 983 800 979 l 917 956 z "},"Ǯ":{"ha":844,"x_min":-43,"x_max":971,"o":"m 917 956 l 592 532 q 722 435 679 490 q 765 299 765 381 q 708 135 765 208 q 550 22 650 63 q 328 -19 450 -19 q 88 31 192 -19 q 36 51 53 51 q 12 37 22 51 q -11 -10 1 22 l -43 -10 q 56 365 3 124 l 88 365 q 74 249 74 306 q 131 78 74 140 q 301 17 188 17 q 433 58 374 17 q 526 167 492 100 q 560 306 560 233 q 513 455 560 400 q 372 533 467 510 l 379 561 l 681 951 l 522 951 q 320 886 408 951 q 174 667 232 821 l 142 667 q 215 983 178 774 q 526 979 306 979 q 924 983 800 979 l 917 956 m 663 1219 q 964 1301 808 1272 l 971 1282 q 756 1188 856 1246 q 594 1067 656 1131 l 569 1067 q 494 1195 538 1144 q 376 1282 450 1246 l 382 1301 q 532 1267 472 1286 q 663 1219 592 1249 z "},"F":{"ha":817,"x_min":-60,"x_max":932,"o":"m 650 979 q 932 983 847 979 q 878 814 900 897 q 849 692 854 726 l 817 692 q 822 776 822 735 q 784 912 822 872 q 658 951 746 951 l 626 951 q 558 944 581 951 q 521 913 535 936 q 494 836 507 889 l 406 503 l 469 503 q 582 549 536 503 q 660 669 628 594 l 690 669 q 639 489 669 604 q 596 283 626 436 l 565 283 q 547 426 569 378 q 454 475 524 475 l 399 475 l 311 147 q 300 86 300 106 q 326 42 300 53 q 419 28 351 31 l 414 0 q 167 4 329 4 q -60 0 14 4 l -53 28 q 22 39 -3 31 q 61 71 46 47 q 90 147 76 94 l 274 836 q 285 903 285 883 q 265 943 285 933 q 192 956 244 953 l 199 983 q 650 979 350 979 z "},"G":{"ha":1026,"x_min":53,"x_max":1057,"o":"m 472 8 q 530 17 501 8 q 579 38 558 25 q 613 74 601 53 q 636 139 625 96 l 668 261 q 681 333 681 307 q 656 380 681 368 q 564 394 631 392 l 571 422 q 807 418 657 418 q 1003 422 938 418 l 996 394 q 947 383 963 392 q 919 352 931 375 q 893 275 907 329 l 819 0 l 792 0 q 785 58 794 36 q 753 79 775 79 q 711 71 732 79 q 668 51 690 63 q 636 35 646 40 q 535 -6 583 7 q 435 -19 486 -19 q 153 64 253 -19 q 53 299 53 147 q 139 624 53 460 q 378 895 225 788 q 719 1003 531 1003 q 852 980 803 1003 q 947 913 901 957 q 971 900 960 900 q 998 919 985 900 q 1026 983 1011 939 l 1057 983 q 968 664 1011 864 l 938 664 q 944 768 944 724 q 940 824 944 801 q 925 869 936 847 q 842 950 897 922 q 711 978 788 978 q 478 857 578 978 q 326 565 379 736 q 274 253 274 394 q 323 68 274 128 q 472 8 372 8 z "},"Ǵ":{"ha":1026,"x_min":53,"x_max":1092,"o":"m 472 8 q 530 17 501 8 q 579 38 558 25 q 613 74 601 53 q 636 139 625 96 l 668 261 q 681 333 681 307 q 656 380 681 368 q 564 394 631 392 l 571 422 q 807 418 657 418 q 1003 422 938 418 l 996 394 q 947 383 963 392 q 919 352 931 375 q 893 275 907 329 l 819 0 l 792 0 q 785 58 794 36 q 753 79 775 79 q 711 71 732 79 q 668 51 690 63 q 636 35 646 40 q 535 -6 583 7 q 435 -19 486 -19 q 153 64 253 -19 q 53 299 53 147 q 139 624 53 460 q 378 895 225 788 q 719 1003 531 1003 q 852 980 803 1003 q 947 913 901 957 q 971 900 960 900 q 998 919 985 900 q 1026 983 1011 939 l 1057 983 q 968 664 1011 864 l 938 664 q 944 768 944 724 q 940 824 944 801 q 925 869 936 847 q 842 950 897 922 q 711 978 788 978 q 478 857 578 978 q 326 565 379 736 q 274 253 274 394 q 323 68 274 128 q 472 8 372 8 m 694 1089 q 790 1171 749 1132 q 840 1217 832 1210 q 908 1277 883 1257 q 958 1313 932 1297 q 1018 1328 985 1328 q 1085 1290 1067 1328 q 1092 1263 1092 1278 q 1075 1219 1092 1239 q 1029 1183 1058 1199 q 970 1158 1006 1171 q 896 1135 935 1146 q 704 1072 792 1107 l 694 1089 z "},"Ğ":{"ha":1026,"x_min":53,"x_max":1076,"o":"m 472 8 q 530 17 501 8 q 579 38 558 25 q 613 74 601 53 q 636 139 625 96 l 668 261 q 681 333 681 307 q 656 380 681 368 q 564 394 631 392 l 571 422 q 807 418 657 418 q 1003 422 938 418 l 996 394 q 947 383 963 392 q 919 352 931 375 q 893 275 907 329 l 819 0 l 792 0 q 785 58 794 36 q 753 79 775 79 q 711 71 732 79 q 668 51 690 63 q 636 35 646 40 q 535 -6 583 7 q 435 -19 486 -19 q 153 64 253 -19 q 53 299 53 147 q 139 624 53 460 q 378 895 225 788 q 719 1003 531 1003 q 852 980 803 1003 q 947 913 901 957 q 971 900 960 900 q 998 919 985 900 q 1026 983 1011 939 l 1057 983 q 968 664 1011 864 l 938 664 q 944 768 944 724 q 940 824 944 801 q 925 869 936 847 q 842 950 897 922 q 711 978 788 978 q 478 857 578 978 q 326 565 379 736 q 274 253 274 394 q 323 68 274 128 q 472 8 372 8 m 744 1207 q 1061 1286 928 1207 l 1076 1272 q 917 1131 1018 1192 q 717 1071 815 1071 q 569 1126 625 1071 q 497 1271 514 1182 l 518 1281 q 610 1224 558 1240 q 744 1207 663 1207 z "},"Ǧ":{"ha":1026,"x_min":53,"x_max":1113,"o":"m 472 8 q 530 17 501 8 q 579 38 558 25 q 613 74 601 53 q 636 139 625 96 l 668 261 q 681 333 681 307 q 656 380 681 368 q 564 394 631 392 l 571 422 q 807 418 657 418 q 1003 422 938 418 l 996 394 q 947 383 963 392 q 919 352 931 375 q 893 275 907 329 l 819 0 l 792 0 q 785 58 794 36 q 753 79 775 79 q 711 71 732 79 q 668 51 690 63 q 636 35 646 40 q 535 -6 583 7 q 435 -19 486 -19 q 153 64 253 -19 q 53 299 53 147 q 139 624 53 460 q 378 895 225 788 q 719 1003 531 1003 q 852 980 803 1003 q 947 913 901 957 q 971 900 960 900 q 998 919 985 900 q 1026 983 1011 939 l 1057 983 q 968 664 1011 864 l 938 664 q 944 768 944 724 q 940 824 944 801 q 925 869 936 847 q 842 950 897 922 q 711 978 788 978 q 478 857 578 978 q 326 565 379 736 q 274 253 274 394 q 323 68 274 128 q 472 8 372 8 m 804 1219 q 1106 1301 950 1272 l 1113 1282 q 897 1188 997 1246 q 736 1067 797 1131 l 711 1067 q 635 1195 679 1144 q 518 1282 592 1246 l 524 1301 q 674 1267 614 1286 q 804 1219 733 1249 z "},"Ĝ":{"ha":1026,"x_min":53,"x_max":1057,"o":"m 472 8 q 530 17 501 8 q 579 38 558 25 q 613 74 601 53 q 636 139 625 96 l 668 261 q 681 333 681 307 q 656 380 681 368 q 564 394 631 392 l 571 422 q 807 418 657 418 q 1003 422 938 418 l 996 394 q 947 383 963 392 q 919 352 931 375 q 893 275 907 329 l 819 0 l 792 0 q 785 58 794 36 q 753 79 775 79 q 711 71 732 79 q 668 51 690 63 q 636 35 646 40 q 535 -6 583 7 q 435 -19 486 -19 q 153 64 253 -19 q 53 299 53 147 q 139 624 53 460 q 378 895 225 788 q 719 1003 531 1003 q 852 980 803 1003 q 947 913 901 957 q 971 900 960 900 q 998 919 985 900 q 1026 983 1011 939 l 1057 983 q 968 664 1011 864 l 938 664 q 944 768 944 724 q 940 824 944 801 q 925 869 936 847 q 842 950 897 922 q 711 978 788 978 q 478 857 578 978 q 326 565 379 736 q 274 253 274 394 q 323 68 274 128 q 472 8 372 8 m 724 1153 q 421 1071 579 1100 l 414 1090 q 629 1184 529 1126 q 790 1306 729 1242 l 815 1306 q 891 1177 847 1228 q 1008 1090 935 1126 l 1003 1071 q 852 1105 913 1086 q 724 1153 792 1124 z "},"Ģ":{"ha":1026,"x_min":53,"x_max":1057,"o":"m 472 8 q 530 17 501 8 q 579 38 558 25 q 613 74 601 53 q 636 139 625 96 l 668 261 q 681 333 681 307 q 656 380 681 368 q 564 394 631 392 l 571 422 q 807 418 657 418 q 1003 422 938 418 l 996 394 q 947 383 963 392 q 919 352 931 375 q 893 275 907 329 l 819 0 l 792 0 q 785 58 794 36 q 753 79 775 79 q 711 71 732 79 q 668 51 690 63 q 636 35 646 40 q 535 -6 583 7 q 435 -19 486 -19 q 153 64 253 -19 q 53 299 53 147 q 139 624 53 460 q 378 895 225 788 q 719 1003 531 1003 q 852 980 803 1003 q 947 913 901 957 q 971 900 960 900 q 998 919 985 900 q 1026 983 1011 939 l 1057 983 q 968 664 1011 864 l 938 664 q 944 768 944 724 q 940 824 944 801 q 925 869 936 847 q 842 950 897 922 q 711 978 788 978 q 478 857 578 978 q 326 565 379 736 q 274 253 274 394 q 323 68 274 128 q 472 8 372 8 m 444 -74 q 511 -96 483 -74 q 539 -158 539 -118 q 489 -275 539 -228 q 347 -335 439 -322 l 344 -308 q 437 -281 399 -303 q 482 -228 475 -260 q 403 -251 449 -251 q 319 -183 319 -251 q 355 -106 319 -137 q 444 -74 390 -74 z "},"Ġ":{"ha":1026,"x_min":53,"x_max":1057,"o":"m 472 8 q 530 17 501 8 q 579 38 558 25 q 613 74 601 53 q 636 139 625 96 l 668 261 q 681 333 681 307 q 656 380 681 368 q 564 394 631 392 l 571 422 q 807 418 657 418 q 1003 422 938 418 l 996 394 q 947 383 963 392 q 919 352 931 375 q 893 275 907 329 l 819 0 l 792 0 q 785 58 794 36 q 753 79 775 79 q 711 71 732 79 q 668 51 690 63 q 636 35 646 40 q 535 -6 583 7 q 435 -19 486 -19 q 153 64 253 -19 q 53 299 53 147 q 139 624 53 460 q 378 895 225 788 q 719 1003 531 1003 q 852 980 803 1003 q 947 913 901 957 q 971 900 960 900 q 998 919 985 900 q 1026 983 1011 939 l 1057 983 q 968 664 1011 864 l 938 664 q 944 768 944 724 q 940 824 944 801 q 925 869 936 847 q 842 950 897 922 q 711 978 788 978 q 478 857 578 978 q 326 565 379 736 q 274 253 274 394 q 323 68 274 128 q 472 8 372 8 m 625 1147 q 665 1241 625 1206 q 767 1276 706 1276 q 843 1253 817 1276 q 869 1190 869 1231 q 828 1099 869 1136 q 725 1063 786 1063 q 651 1085 678 1063 q 625 1147 625 1107 z "},"Ǥ":{"ha":1026,"x_min":53,"x_max":1057,"o":"m 579 453 q 815 449 665 449 q 1011 453 947 449 l 1004 425 q 955 414 971 422 q 927 382 939 406 q 901 306 915 358 l 892 269 l 1001 269 l 996 242 l 885 242 l 819 0 l 792 0 q 785 58 794 36 q 753 79 775 79 q 711 71 732 79 q 668 51 690 63 q 636 35 646 40 q 535 -6 583 7 q 435 -19 486 -19 q 153 64 253 -19 q 53 299 53 147 q 139 624 53 460 q 378 895 225 788 q 719 1003 531 1003 q 852 980 803 1003 q 947 913 901 957 q 971 900 960 900 q 998 919 985 900 q 1026 983 1011 939 l 1057 983 q 968 664 1011 864 l 938 664 q 944 768 944 724 q 940 824 944 801 q 925 869 936 847 q 842 950 897 922 q 711 978 788 978 q 478 857 578 978 q 326 565 379 736 q 274 253 274 394 q 323 68 274 128 q 472 8 372 8 q 530 17 501 8 q 579 38 558 25 q 613 74 601 51 q 636 139 625 96 l 664 242 l 522 242 l 528 269 l 671 269 l 676 292 q 689 363 689 338 q 664 410 689 397 q 572 425 639 422 l 579 453 z "},"H":{"ha":1125,"x_min":-57,"x_max":1228,"o":"m 999 979 q 1228 983 1150 979 l 1221 956 q 1145 944 1169 953 q 1106 913 1121 936 q 1078 836 1092 889 l 894 147 q 882 79 882 94 q 902 40 882 50 q 976 28 922 31 l 971 0 q 743 4 896 4 q 525 0 603 4 l 531 28 q 606 39 581 31 q 645 71 631 47 q 674 147 660 94 l 763 481 l 400 481 l 311 147 q 299 79 299 94 q 319 40 299 50 q 393 28 339 31 l 388 0 q 169 4 311 4 q -57 0 18 4 l -50 28 q 23 39 -1 31 q 62 72 47 47 q 90 147 76 96 l 274 836 q 285 903 285 883 q 265 943 285 933 q 192 956 244 953 l 199 983 q 425 979 269 979 q 644 983 558 979 l 638 956 q 562 944 586 953 q 523 913 538 936 q 494 836 508 889 l 407 508 l 769 508 l 857 836 q 869 903 869 881 q 849 943 869 933 q 775 956 828 953 l 782 983 q 999 979 857 979 z "},"Ħ":{"ha":1125,"x_min":-57,"x_max":1228,"o":"m 999 979 q 1228 983 1150 979 l 1221 956 q 1145 944 1169 953 q 1106 913 1121 936 q 1078 836 1092 889 l 894 147 q 882 79 882 94 q 902 40 882 50 q 976 28 922 31 l 971 0 q 743 4 896 4 q 525 0 603 4 l 531 28 q 606 39 581 31 q 645 71 631 47 q 674 147 660 94 l 763 481 l 400 481 l 311 147 q 299 79 299 94 q 319 40 299 50 q 393 28 339 31 l 388 0 q 169 4 311 4 q -57 0 18 4 l -50 28 q 23 39 -1 31 q 62 72 47 47 q 90 147 76 96 l 274 836 q 285 903 285 883 q 265 943 285 933 q 192 956 244 953 l 199 983 q 425 979 269 979 q 644 983 558 979 l 638 956 q 562 944 586 953 q 523 913 538 936 q 494 836 508 889 l 407 508 l 769 508 l 857 836 q 869 903 869 881 q 849 943 869 933 q 775 956 828 953 l 782 983 q 999 979 857 979 m 1206 713 l 85 713 l 92 740 l 1213 740 l 1206 713 z "},"Ȟ":{"ha":1125,"x_min":-57,"x_max":1228,"o":"m 999 979 q 1228 983 1150 979 l 1221 956 q 1145 944 1169 953 q 1106 913 1121 936 q 1078 836 1092 889 l 894 147 q 882 79 882 94 q 902 40 882 50 q 976 28 922 31 l 971 0 q 743 4 896 4 q 525 0 603 4 l 531 28 q 606 39 581 31 q 645 71 631 47 q 674 147 660 94 l 763 481 l 400 481 l 311 147 q 299 79 299 94 q 319 40 299 50 q 393 28 339 31 l 388 0 q 169 4 311 4 q -57 0 18 4 l -50 28 q 23 39 -1 31 q 62 72 47 47 q 90 147 76 96 l 274 836 q 285 903 285 883 q 265 943 285 933 q 192 956 244 953 l 199 983 q 425 979 269 979 q 644 983 558 979 l 638 956 q 562 944 586 953 q 523 913 538 936 q 494 836 508 889 l 407 508 l 769 508 l 857 836 q 869 903 869 881 q 849 943 869 933 q 775 956 828 953 l 782 983 q 999 979 857 979 m 808 1219 q 1110 1301 954 1272 l 1117 1282 q 901 1188 1001 1246 q 740 1067 801 1131 l 715 1067 q 640 1195 683 1144 q 522 1282 596 1246 l 528 1301 q 678 1267 618 1286 q 808 1219 738 1249 z "},"Ĥ":{"ha":1125,"x_min":-57,"x_max":1228,"o":"m 999 979 q 1228 983 1150 979 l 1221 956 q 1145 944 1169 953 q 1106 913 1121 936 q 1078 836 1092 889 l 894 147 q 882 79 882 94 q 902 40 882 50 q 976 28 922 31 l 971 0 q 743 4 896 4 q 525 0 603 4 l 531 28 q 606 39 581 31 q 645 71 631 47 q 674 147 660 94 l 763 481 l 400 481 l 311 147 q 299 79 299 94 q 319 40 299 50 q 393 28 339 31 l 388 0 q 169 4 311 4 q -57 0 18 4 l -50 28 q 23 39 -1 31 q 62 72 47 47 q 90 147 76 96 l 274 836 q 285 903 285 883 q 265 943 285 933 q 192 956 244 953 l 199 983 q 425 979 269 979 q 644 983 558 979 l 638 956 q 562 944 586 953 q 523 913 538 936 q 494 836 508 889 l 407 508 l 769 508 l 857 836 q 869 903 869 881 q 849 943 869 933 q 775 956 828 953 l 782 983 q 999 979 857 979 m 728 1153 q 425 1071 583 1100 l 418 1090 q 633 1184 533 1126 q 794 1306 733 1242 l 819 1306 q 895 1177 851 1228 q 1013 1090 939 1126 l 1007 1071 q 856 1105 917 1086 q 728 1153 796 1124 z "},"I":{"ha":542,"x_min":-57,"x_max":644,"o":"m 311 147 q 299 79 299 94 q 319 40 299 50 q 393 28 339 31 l 388 0 q 161 4 307 4 q -57 0 15 4 l -50 28 q 23 39 -1 31 q 62 72 47 47 q 90 147 76 96 l 274 836 q 285 903 285 883 q 265 943 285 933 q 192 956 244 953 l 199 983 q 417 979 267 979 q 644 983 554 979 l 638 956 q 562 944 586 953 q 523 913 538 936 q 494 836 508 889 l 311 147 z "},"Ĳ":{"ha":1175,"x_min":22,"x_max":1319,"o":"m 1311 1014 q 1319 997 1319 1006 q 1218 925 1319 964 q 1094 758 1143 858 q 1006 508 1046 658 l 1150 508 l 1144 481 l 999 481 q 989 444 993 465 l 904 90 q 767 -164 865 -67 q 497 -261 668 -261 q 355 -235 408 -261 q 301 -154 301 -210 q 333 -81 301 -110 q 418 -51 364 -51 q 496 -74 465 -51 q 526 -137 526 -97 q 451 -233 526 -199 q 490 -237 464 -237 q 576 -198 543 -237 q 628 -98 608 -158 q 682 97 647 -37 l 757 382 q 788 481 772 438 l 607 481 l 613 508 l 799 508 q 891 667 836 599 q 1010 787 946 735 q 1178 910 1074 839 q 1028 851 1121 892 q 900 803 950 818 q 785 788 850 788 q 685 796 731 788 q 564 822 640 804 q 453 848 501 839 q 350 857 404 857 q 239 779 239 857 q 294 700 239 728 q 438 672 349 672 q 552 685 504 672 q 647 724 600 697 l 658 700 q 543 656 596 668 l 390 147 q 376 79 376 106 q 398 40 376 51 q 472 28 419 29 l 467 0 q 240 4 386 4 q 22 0 96 4 l 29 28 q 100 39 76 31 q 138 71 124 47 q 169 147 153 94 l 322 653 q 189 717 239 671 q 139 839 139 763 q 202 975 139 924 q 379 1026 265 1026 q 521 1008 460 1026 q 663 954 582 990 q 801 903 746 919 q 931 886 857 886 q 1206 940 1072 886 q 1293 1021 1258 1021 q 1311 1014 1304 1021 z "},"Í":{"ha":542,"x_min":-57,"x_max":815,"o":"m 311 147 q 299 79 299 94 q 319 40 299 50 q 393 28 339 31 l 388 0 q 161 4 307 4 q -57 0 15 4 l -50 28 q 23 39 -1 31 q 62 72 47 47 q 90 147 76 96 l 274 836 q 285 903 285 883 q 265 943 285 933 q 192 956 244 953 l 199 983 q 417 979 267 979 q 644 983 554 979 l 638 956 q 562 944 586 953 q 523 913 538 936 q 494 836 508 889 l 311 147 m 418 1089 q 514 1171 472 1132 q 564 1217 556 1210 q 631 1277 607 1257 q 682 1313 656 1297 q 742 1328 708 1328 q 808 1290 790 1328 q 815 1263 815 1278 q 799 1219 815 1239 q 753 1183 782 1199 q 694 1158 729 1171 q 619 1135 658 1146 q 428 1072 515 1107 l 418 1089 z "},"Ĭ":{"ha":542,"x_min":-57,"x_max":800,"o":"m 311 147 q 299 79 299 94 q 319 40 299 50 q 393 28 339 31 l 388 0 q 161 4 307 4 q -57 0 15 4 l -50 28 q 23 39 -1 31 q 62 72 47 47 q 90 147 76 96 l 274 836 q 285 903 285 883 q 265 943 285 933 q 192 956 244 953 l 199 983 q 417 979 267 979 q 644 983 554 979 l 638 956 q 562 944 586 953 q 523 913 538 936 q 494 836 508 889 l 311 147 m 468 1207 q 785 1286 651 1207 l 800 1272 q 640 1131 742 1192 q 440 1071 539 1071 q 293 1126 349 1071 q 221 1271 238 1182 l 242 1281 q 334 1224 282 1240 q 468 1207 386 1207 z "},"Î":{"ha":542,"x_min":-57,"x_max":732,"o":"m 311 147 q 299 79 299 94 q 319 40 299 50 q 393 28 339 31 l 388 0 q 161 4 307 4 q -57 0 15 4 l -50 28 q 23 39 -1 31 q 62 72 47 47 q 90 147 76 96 l 274 836 q 285 903 285 883 q 265 943 285 933 q 192 956 244 953 l 199 983 q 417 979 267 979 q 644 983 554 979 l 638 956 q 562 944 586 953 q 523 913 538 936 q 494 836 508 889 l 311 147 m 447 1153 q 144 1071 303 1100 l 138 1090 q 353 1184 253 1126 q 514 1306 453 1242 l 539 1306 q 615 1177 571 1228 q 732 1090 658 1126 l 726 1071 q 576 1105 636 1086 q 447 1153 515 1124 z "},"Ï":{"ha":542,"x_min":-57,"x_max":736,"o":"m 311 147 q 299 79 299 94 q 319 40 299 50 q 393 28 339 31 l 388 0 q 161 4 307 4 q -57 0 15 4 l -50 28 q 23 39 -1 31 q 62 72 47 47 q 90 147 76 96 l 274 836 q 285 903 285 883 q 265 943 285 933 q 192 956 244 953 l 199 983 q 417 979 267 979 q 644 983 554 979 l 638 956 q 562 944 586 953 q 523 913 538 936 q 494 836 508 889 l 311 147 m 193 1156 q 228 1242 193 1210 q 313 1274 263 1274 q 379 1248 356 1274 q 403 1181 403 1222 q 367 1095 403 1126 q 282 1064 331 1064 q 216 1089 239 1064 q 193 1156 193 1114 m 526 1156 q 561 1242 526 1210 q 646 1274 596 1274 q 713 1248 689 1274 q 736 1181 736 1222 q 700 1095 736 1126 q 615 1064 664 1064 q 549 1089 571 1064 q 526 1156 526 1114 z "},"İ":{"ha":542,"x_min":-57,"x_max":644,"o":"m 311 147 q 299 79 299 94 q 319 40 299 50 q 393 28 339 31 l 388 0 q 161 4 307 4 q -57 0 15 4 l -50 28 q 23 39 -1 31 q 62 72 47 47 q 90 147 76 96 l 274 836 q 285 903 285 883 q 265 943 285 933 q 192 956 244 953 l 199 983 q 417 979 267 979 q 644 983 554 979 l 638 956 q 562 944 586 953 q 523 913 538 936 q 494 836 508 889 l 311 147 m 349 1147 q 389 1241 349 1206 q 490 1276 429 1276 q 567 1253 540 1276 q 593 1190 593 1231 q 551 1099 593 1136 q 449 1063 510 1063 q 375 1085 401 1063 q 349 1147 349 1107 z "},"Ị":{"ha":542,"x_min":-57,"x_max":644,"o":"m 311 147 q 299 79 299 94 q 319 40 299 50 q 393 28 339 31 l 388 0 q 161 4 307 4 q -57 0 15 4 l -50 28 q 23 39 -1 31 q 62 72 47 47 q 90 147 76 96 l 274 836 q 285 903 285 883 q 265 943 285 933 q 192 956 244 953 l 199 983 q 417 979 267 979 q 644 983 554 979 l 638 956 q 562 944 586 953 q 523 913 538 936 q 494 836 508 889 l 311 147 m 118 -260 q 51 -241 75 -260 q 28 -187 28 -222 q 61 -106 28 -136 q 150 -76 94 -76 q 217 -95 193 -76 q 240 -149 240 -114 q 206 -230 240 -200 q 118 -260 172 -260 z "},"Ì":{"ha":542,"x_min":-57,"x_max":644,"o":"m 311 147 q 299 79 299 94 q 319 40 299 50 q 393 28 339 31 l 388 0 q 161 4 307 4 q -57 0 15 4 l -50 28 q 23 39 -1 31 q 62 72 47 47 q 90 147 76 96 l 274 836 q 285 903 285 883 q 265 943 285 933 q 192 956 244 953 l 199 983 q 417 979 267 979 q 644 983 554 979 l 638 956 q 562 944 586 953 q 523 913 538 936 q 494 836 508 889 l 311 147 m 504 1071 q 338 1136 428 1106 q 295 1152 328 1140 q 239 1179 263 1164 q 208 1210 219 1190 q 196 1250 196 1229 q 206 1285 196 1269 q 268 1318 225 1318 q 321 1303 297 1318 q 355 1274 340 1290 q 397 1222 369 1257 q 436 1173 404 1214 q 515 1086 468 1132 l 504 1071 z "},"Ỉ":{"ha":542,"x_min":-57,"x_max":676,"o":"m 311 147 q 299 79 299 94 q 319 40 299 50 q 393 28 339 31 l 388 0 q 161 4 307 4 q -57 0 15 4 l -50 28 q 23 39 -1 31 q 62 72 47 47 q 90 147 76 96 l 274 836 q 285 903 285 883 q 265 943 285 933 q 192 956 244 953 l 199 983 q 417 979 267 979 q 644 983 554 979 l 638 956 q 562 944 586 953 q 523 913 538 936 q 494 836 508 889 l 311 147 m 429 1032 q 450 1092 435 1069 q 493 1143 465 1115 q 534 1191 521 1169 q 547 1247 547 1213 q 464 1329 547 1329 q 401 1314 421 1329 q 450 1244 450 1293 q 426 1190 450 1211 q 365 1168 401 1168 q 315 1185 333 1168 q 296 1232 296 1203 q 376 1328 296 1290 q 514 1356 435 1356 q 632 1331 588 1356 q 676 1254 676 1306 q 651 1192 676 1214 q 574 1146 626 1171 q 492 1099 521 1122 q 457 1032 464 1075 l 429 1032 z "},"Ī":{"ha":542,"x_min":-57,"x_max":725,"o":"m 311 147 q 299 79 299 94 q 319 40 299 50 q 393 28 339 31 l 388 0 q 161 4 307 4 q -57 0 15 4 l -50 28 q 23 39 -1 31 q 62 72 47 47 q 90 147 76 96 l 274 836 q 285 903 285 883 q 265 943 285 933 q 192 956 244 953 l 199 983 q 417 979 267 979 q 644 983 554 979 l 638 956 q 562 944 586 953 q 523 913 538 936 q 494 836 508 889 l 311 147 m 717 1138 l 161 1138 l 169 1172 l 725 1172 l 717 1138 z "},"Į":{"ha":542,"x_min":-57,"x_max":644,"o":"m 311 147 q 299 79 299 94 q 319 40 299 50 q 393 28 339 31 l 388 0 q 161 4 307 4 q -57 0 15 4 l -50 28 q 23 39 -1 31 q 62 72 47 47 q 90 147 76 96 l 274 836 q 285 903 285 883 q 265 943 285 933 q 192 956 244 953 l 199 983 q 417 979 267 979 q 644 983 554 979 l 638 956 q 562 944 586 953 q 523 913 538 936 q 494 836 508 889 l 311 147 m 382 4 q 277 -62 318 -19 q 236 -150 236 -104 q 282 -192 236 -192 q 383 -161 329 -192 l 399 -185 q 197 -261 304 -261 q 110 -239 142 -261 q 79 -178 79 -217 q 157 -70 79 -117 q 346 4 235 -24 l 382 4 z "},"Ĩ":{"ha":542,"x_min":-57,"x_max":792,"o":"m 311 147 q 299 79 299 94 q 319 40 299 50 q 393 28 339 31 l 388 0 q 161 4 307 4 q -57 0 15 4 l -50 28 q 23 39 -1 31 q 62 72 47 47 q 90 147 76 96 l 274 836 q 285 903 285 883 q 265 943 285 933 q 192 956 244 953 l 199 983 q 417 979 267 979 q 644 983 554 979 l 638 956 q 562 944 586 953 q 523 913 538 936 q 494 836 508 889 l 311 147 m 396 1288 q 477 1273 444 1288 q 549 1232 510 1258 q 605 1197 582 1208 q 660 1186 628 1186 q 716 1205 690 1186 q 767 1267 742 1224 l 792 1260 q 692 1115 754 1163 q 561 1067 629 1067 q 479 1081 511 1067 q 407 1124 447 1096 q 351 1157 374 1146 q 297 1168 329 1168 q 241 1149 267 1168 q 190 1088 215 1131 l 165 1094 q 265 1240 203 1192 q 396 1288 326 1288 z "},"J":{"ha":949,"x_min":38,"x_max":1093,"o":"m 1085 1014 q 1093 997 1093 1006 q 992 925 1093 964 q 853 756 910 860 q 751 508 796 653 l 890 508 l 886 481 l 744 481 q 729 426 733 444 l 643 90 q 503 -165 603 -68 q 232 -261 403 -261 q 91 -236 144 -261 q 38 -157 38 -211 q 69 -81 38 -111 q 154 -51 100 -51 q 231 -74 201 -51 q 263 -135 261 -96 q 186 -233 263 -200 q 225 -237 199 -237 q 311 -198 278 -237 q 365 -97 344 -158 q 422 97 386 -36 l 497 364 q 538 481 513 422 l 349 481 l 353 508 l 550 508 q 703 722 610 633 q 950 910 797 810 q 817 851 894 890 q 700 803 744 818 q 597 788 656 788 q 522 797 557 788 q 435 825 488 806 q 363 849 393 840 q 300 857 332 857 q 238 837 261 857 q 215 778 215 817 q 372 671 218 685 l 368 644 q 192 703 258 653 q 126 844 126 754 q 177 977 126 928 q 324 1026 228 1026 q 428 1009 383 1026 q 533 957 474 992 q 637 904 590 922 q 744 886 683 886 q 979 940 863 886 q 1067 1021 1032 1021 q 1085 1014 1078 1021 z "},"Ĵ":{"ha":949,"x_min":38,"x_max":1093,"o":"m 1085 1014 q 1093 997 1093 1006 q 992 925 1093 964 q 853 756 910 860 q 751 508 796 653 l 890 508 l 886 481 l 744 481 q 729 426 733 444 l 643 90 q 503 -165 603 -68 q 232 -261 403 -261 q 91 -236 144 -261 q 38 -157 38 -211 q 69 -81 38 -111 q 154 -51 100 -51 q 231 -74 201 -51 q 263 -135 261 -96 q 186 -233 263 -200 q 225 -237 199 -237 q 311 -198 278 -237 q 365 -97 344 -158 q 422 97 386 -36 l 497 364 q 538 481 513 422 l 349 481 l 353 508 l 550 508 q 703 722 610 633 q 950 910 797 810 q 817 851 894 890 q 700 803 744 818 q 597 788 656 788 q 522 797 557 788 q 435 825 488 806 q 363 849 393 840 q 300 857 332 857 q 238 837 261 857 q 215 778 215 817 q 372 671 218 685 l 368 644 q 192 703 258 653 q 126 844 126 754 q 177 977 126 928 q 324 1026 228 1026 q 428 1009 383 1026 q 533 957 474 992 q 637 904 590 922 q 744 886 683 886 q 979 940 863 886 q 1067 1021 1032 1021 q 1085 1014 1078 1021 m 740 1153 q 438 1071 596 1100 l 431 1090 q 646 1184 546 1126 q 807 1306 746 1242 l 832 1306 q 908 1177 864 1228 q 1025 1090 951 1126 l 1019 1071 q 869 1105 929 1086 q 740 1153 808 1124 z "},"K":{"ha":1028,"x_min":-57,"x_max":1076,"o":"m 946 1003 q 1041 969 1006 1003 q 1076 879 1076 935 q 1042 785 1076 828 q 950 742 1008 742 q 885 766 911 742 q 858 832 858 790 q 886 913 858 874 q 961 972 914 951 q 939 976 953 976 q 899 969 914 976 q 868 946 883 961 q 829 882 846 921 q 793 781 813 843 q 749 656 769 706 q 693 568 729 607 q 601 517 657 529 q 753 464 708 506 q 799 333 799 422 q 796 279 799 318 l 781 133 q 815 82 776 82 q 860 102 842 82 q 893 165 878 122 l 917 236 l 944 236 l 908 129 q 835 17 883 54 q 722 -19 786 -19 q 602 18 643 -19 q 561 122 561 56 q 564 156 561 133 l 590 350 q 594 408 594 383 q 586 464 594 443 q 558 499 578 485 q 474 483 497 483 q 439 507 439 483 q 479 540 439 540 q 561 526 510 540 q 662 572 624 535 q 721 657 700 610 q 767 785 742 704 q 804 896 788 856 q 847 963 821 936 q 946 1003 888 1003 m 311 147 q 299 79 299 94 q 319 40 299 50 q 393 28 339 31 l 388 0 q 169 4 311 4 q -57 0 18 4 l -50 28 q 23 39 -1 31 q 62 72 47 47 q 90 147 76 96 l 274 836 q 285 903 285 883 q 265 943 285 933 q 192 956 244 953 l 199 983 q 425 979 269 979 q 644 983 558 979 l 638 956 q 562 944 586 953 q 523 913 538 936 q 494 836 508 889 l 311 147 z "},"Ǩ":{"ha":1028,"x_min":-57,"x_max":1076,"o":"m 946 1003 q 1041 969 1006 1003 q 1076 879 1076 935 q 1042 785 1076 828 q 950 742 1008 742 q 885 766 911 742 q 858 832 858 790 q 886 913 858 874 q 961 972 914 951 q 939 976 953 976 q 899 969 914 976 q 868 946 883 961 q 829 882 846 921 q 793 781 813 843 q 749 656 769 706 q 693 568 729 607 q 601 517 657 529 q 753 464 708 506 q 799 333 799 422 q 796 279 799 318 l 781 133 q 815 82 776 82 q 860 102 842 82 q 893 165 878 122 l 917 236 l 944 236 l 908 129 q 835 17 883 54 q 722 -19 786 -19 q 602 18 643 -19 q 561 122 561 56 q 564 156 561 133 l 590 350 q 594 408 594 383 q 586 464 594 443 q 558 499 578 485 q 474 483 497 483 q 439 507 439 483 q 479 540 439 540 q 561 526 510 540 q 662 572 624 535 q 721 657 700 610 q 767 785 742 704 q 804 896 788 856 q 847 963 821 936 q 946 1003 888 1003 m 311 147 q 299 79 299 94 q 319 40 299 50 q 393 28 339 31 l 388 0 q 169 4 311 4 q -57 0 18 4 l -50 28 q 23 39 -1 31 q 62 72 47 47 q 90 147 76 96 l 274 836 q 285 903 285 883 q 265 943 285 933 q 192 956 244 953 l 199 983 q 425 979 269 979 q 644 983 558 979 l 638 956 q 562 944 586 953 q 523 913 538 936 q 494 836 508 889 l 311 147 m 726 1219 q 1028 1301 872 1272 l 1035 1282 q 819 1188 919 1246 q 658 1067 719 1131 l 633 1067 q 558 1195 601 1144 q 440 1282 514 1246 l 446 1301 q 596 1267 536 1286 q 726 1219 656 1249 z "},"Ķ":{"ha":1028,"x_min":-57,"x_max":1076,"o":"m 946 1003 q 1041 969 1006 1003 q 1076 879 1076 935 q 1042 785 1076 828 q 950 742 1008 742 q 885 766 911 742 q 858 832 858 790 q 886 913 858 874 q 961 972 914 951 q 939 976 953 976 q 899 969 914 976 q 868 946 883 961 q 829 882 846 921 q 793 781 813 843 q 749 656 769 706 q 693 568 729 607 q 601 517 657 529 q 753 464 708 506 q 799 333 799 422 q 796 279 799 318 l 781 133 q 815 82 776 82 q 860 102 842 82 q 893 165 878 122 l 917 236 l 944 236 l 908 129 q 835 17 883 54 q 722 -19 786 -19 q 602 18 643 -19 q 561 122 561 56 q 564 156 561 133 l 590 350 q 594 408 594 383 q 586 464 594 443 q 558 499 578 485 q 474 483 497 483 q 439 507 439 483 q 479 540 439 540 q 561 526 510 540 q 662 572 624 535 q 721 657 700 610 q 767 785 742 704 q 804 896 788 856 q 847 963 821 936 q 946 1003 888 1003 m 311 147 q 299 79 299 94 q 319 40 299 50 q 393 28 339 31 l 388 0 q 169 4 311 4 q -57 0 18 4 l -50 28 q 23 39 -1 31 q 62 72 47 47 q 90 147 76 96 l 274 836 q 285 903 285 883 q 265 943 285 933 q 192 956 244 953 l 199 983 q 425 979 269 979 q 644 983 558 979 l 638 956 q 562 944 586 953 q 523 913 538 936 q 494 836 508 889 l 311 147 m 390 -74 q 457 -96 429 -74 q 485 -158 485 -118 q 435 -275 485 -228 q 293 -335 385 -322 l 290 -308 q 383 -281 344 -303 q 428 -228 421 -260 q 349 -251 394 -251 q 265 -183 265 -251 q 301 -106 265 -137 q 390 -74 336 -74 z "},"L":{"ha":840,"x_min":-60,"x_max":781,"o":"m 781 292 q 747 178 767 254 q 710 0 725 100 q 394 4 615 4 q -60 0 92 4 l -53 28 q 22 39 -3 31 q 61 71 46 47 q 90 147 76 94 l 274 836 q 285 903 285 883 q 265 943 285 933 q 192 956 244 953 l 199 983 q 428 979 272 979 q 644 983 558 979 l 638 956 q 562 944 586 953 q 522 913 538 936 q 493 836 507 889 l 310 147 q 297 79 297 94 q 317 41 297 50 q 390 32 338 32 l 446 32 q 619 92 544 32 q 750 292 694 153 l 781 292 z "},"Ĺ":{"ha":840,"x_min":-60,"x_max":808,"o":"m 781 292 q 747 178 767 254 q 710 0 725 100 q 394 4 615 4 q -60 0 92 4 l -53 28 q 22 39 -3 31 q 61 71 46 47 q 90 147 76 94 l 274 836 q 285 903 285 883 q 265 943 285 933 q 192 956 244 953 l 199 983 q 428 979 272 979 q 644 983 558 979 l 638 956 q 562 944 586 953 q 522 913 538 936 q 493 836 507 889 l 310 147 q 297 79 297 94 q 317 41 297 50 q 390 32 338 32 l 446 32 q 619 92 544 32 q 750 292 694 153 l 781 292 m 411 1089 q 507 1171 465 1132 q 557 1217 549 1210 q 624 1277 600 1257 q 675 1313 649 1297 q 735 1328 701 1328 q 801 1290 783 1328 q 808 1263 808 1278 q 792 1219 808 1239 q 746 1183 775 1199 q 687 1158 722 1171 q 613 1135 651 1146 q 421 1072 508 1107 l 411 1089 z "},"Ľ":{"ha":840,"x_min":-60,"x_max":885,"o":"m 781 292 q 747 178 767 254 q 710 0 725 100 q 394 4 615 4 q -60 0 92 4 l -53 28 q 22 39 -3 31 q 61 71 46 47 q 90 147 76 94 l 274 836 q 285 903 285 883 q 265 943 285 933 q 192 956 244 953 l 199 983 q 428 979 272 979 q 644 983 558 979 l 638 956 q 562 944 586 953 q 522 913 538 936 q 493 836 507 889 l 310 147 q 297 79 297 94 q 317 41 297 50 q 390 32 338 32 l 446 32 q 619 92 544 32 q 750 292 694 153 l 781 292 m 643 674 q 705 829 685 761 q 725 928 725 897 q 717 948 725 942 q 688 954 708 954 l 692 983 l 750 982 q 883 999 817 982 q 885 985 885 996 q 826 851 885 935 q 663 668 767 767 l 643 674 z "},"Ļ":{"ha":840,"x_min":-60,"x_max":781,"o":"m 781 292 q 747 178 767 254 q 710 0 725 100 q 394 4 615 4 q -60 0 92 4 l -53 28 q 22 39 -3 31 q 61 71 46 47 q 90 147 76 94 l 274 836 q 285 903 285 883 q 265 943 285 933 q 192 956 244 953 l 199 983 q 428 979 272 979 q 644 983 558 979 l 638 956 q 562 944 586 953 q 522 913 538 936 q 493 836 507 889 l 310 147 q 297 79 297 94 q 317 41 297 50 q 390 32 338 32 l 446 32 q 619 92 544 32 q 750 292 694 153 l 781 292 m 376 -74 q 443 -96 415 -74 q 471 -158 471 -118 q 421 -275 471 -228 q 279 -335 371 -322 l 276 -308 q 369 -281 331 -303 q 414 -228 407 -260 q 335 -251 381 -251 q 251 -183 251 -251 q 287 -106 251 -137 q 376 -74 322 -74 z "},"Ŀ":{"ha":863,"x_min":-60,"x_max":863,"o":"m 781 292 q 747 178 767 254 q 710 0 725 100 q 394 4 615 4 q -60 0 92 4 l -53 28 q 22 39 -3 31 q 61 71 46 47 q 90 147 76 94 l 274 836 q 285 903 285 883 q 265 943 285 933 q 192 956 244 953 l 199 983 q 428 979 272 979 q 644 983 558 979 l 638 956 q 562 944 586 953 q 522 913 538 936 q 493 836 507 889 l 310 147 q 297 79 297 94 q 317 41 297 50 q 390 32 338 32 l 446 32 q 619 92 544 32 q 750 292 694 153 l 781 292 m 633 488 q 672 581 633 543 q 768 618 711 618 q 838 596 813 618 q 863 533 863 574 q 822 444 863 483 q 726 404 781 404 q 658 426 682 404 q 633 488 633 449 z "},"Ł":{"ha":842,"x_min":-58,"x_max":782,"o":"m 782 292 q 749 178 768 254 q 711 0 726 100 q 396 4 617 4 q -58 0 93 4 l -51 28 q 23 39 -1 31 q 63 71 47 47 q 92 147 78 94 l 147 354 l 22 292 l 31 324 l 156 386 l 275 836 q 286 903 286 883 q 266 943 286 933 q 193 956 246 953 l 200 983 q 429 979 272 979 q 646 983 560 979 l 639 956 q 563 944 588 953 q 524 913 539 936 q 494 836 508 889 l 404 500 l 718 657 l 710 625 l 396 467 l 311 147 q 299 79 299 94 q 319 41 299 50 q 392 32 339 32 l 447 32 q 621 92 546 32 q 751 292 696 153 l 782 292 z "},"M":{"ha":1274,"x_min":-58,"x_max":1376,"o":"m 1153 979 q 1376 983 1286 979 l 1369 956 q 1294 944 1318 953 q 1255 913 1269 936 q 1226 836 1240 889 l 1043 147 q 1032 81 1032 100 q 1052 40 1032 50 q 1125 28 1072 31 l 1119 0 q 897 4 1032 4 q 675 0 746 4 l 681 28 q 756 39 732 31 q 795 71 781 47 q 824 147 810 94 l 1025 896 l 449 -7 l 418 -7 l 306 846 l 131 179 q 119 111 119 139 q 146 50 119 71 q 235 28 172 29 l 229 0 q 74 4 179 4 q -58 0 -10 4 l -51 28 q 48 68 15 31 q 99 179 81 106 l 275 836 q 286 903 286 883 q 266 943 286 933 q 193 956 246 953 l 200 983 q 390 979 263 979 q 515 983 463 979 l 594 274 l 1044 979 l 1153 979 z "},"N":{"ha":1146,"x_min":-111,"x_max":1296,"o":"m 1164 1047 q 1260 1014 1225 1047 q 1296 929 1296 981 q 1260 839 1296 875 q 1169 803 1224 803 q 1099 826 1124 803 q 1074 886 1074 849 q 1103 967 1074 932 q 1178 1015 1132 1001 q 1156 1021 1172 1021 q 1039 947 1089 1021 q 911 624 978 856 q 760 -7 844 393 l 729 -7 l 385 747 q 272 251 325 453 q 168 -15 218 50 q 103 -79 138 -56 q 19 -103 69 -103 q -76 -69 -42 -103 q -111 15 -111 -36 q -76 106 -111 69 q 15 142 -40 142 q 85 119 60 142 q 111 58 111 96 q 81 -22 111 13 q 6 -71 51 -57 q 29 -76 13 -76 q 146 -1 100 -76 q 253 292 197 81 q 374 836 308 503 q 382 899 382 876 q 360 942 382 932 q 275 956 338 953 l 282 983 q 406 979 326 979 q 518 983 469 979 l 806 325 q 1014 958 922 824 q 1164 1047 1075 1047 z "},"Ń":{"ha":1146,"x_min":-111,"x_max":1296,"o":"m 1164 1047 q 1260 1014 1225 1047 q 1296 929 1296 981 q 1260 839 1296 875 q 1169 803 1224 803 q 1099 826 1124 803 q 1074 886 1074 849 q 1103 967 1074 932 q 1178 1015 1132 1001 q 1156 1021 1172 1021 q 1039 947 1089 1021 q 911 624 978 856 q 760 -7 844 393 l 729 -7 l 385 747 q 272 251 325 453 q 168 -15 218 50 q 103 -79 138 -56 q 19 -103 69 -103 q -76 -69 -42 -103 q -111 15 -111 -36 q -76 106 -111 69 q 15 142 -40 142 q 85 119 60 142 q 111 58 111 96 q 81 -22 111 13 q 6 -71 51 -57 q 29 -76 13 -76 q 146 -1 100 -76 q 253 292 197 81 q 374 836 308 503 q 382 899 382 876 q 360 942 382 932 q 275 956 338 953 l 282 983 q 406 979 326 979 q 518 983 469 979 l 806 325 q 1014 958 922 824 q 1164 1047 1075 1047 m 708 1089 q 804 1171 763 1132 q 854 1217 846 1210 q 922 1277 897 1257 q 972 1313 946 1297 q 1032 1328 999 1328 q 1099 1290 1081 1328 q 1106 1263 1106 1278 q 1089 1219 1106 1239 q 1043 1183 1072 1199 q 984 1158 1019 1171 q 910 1135 949 1146 q 718 1072 806 1107 l 708 1089 z "},"Ň":{"ha":1146,"x_min":-111,"x_max":1296,"o":"m 1164 1047 q 1260 1014 1225 1047 q 1296 929 1296 981 q 1260 839 1296 875 q 1169 803 1224 803 q 1099 826 1124 803 q 1074 886 1074 849 q 1103 967 1074 932 q 1178 1015 1132 1001 q 1156 1021 1172 1021 q 1039 947 1089 1021 q 911 624 978 856 q 760 -7 844 393 l 729 -7 l 385 747 q 272 251 325 453 q 168 -15 218 50 q 103 -79 138 -56 q 19 -103 69 -103 q -76 -69 -42 -103 q -111 15 -111 -36 q -76 106 -111 69 q 15 142 -40 142 q 85 119 60 142 q 111 58 111 96 q 81 -22 111 13 q 6 -71 51 -57 q 29 -76 13 -76 q 146 -1 100 -76 q 253 292 197 81 q 374 836 308 503 q 382 899 382 876 q 360 942 382 932 q 275 956 338 953 l 282 983 q 406 979 326 979 q 518 983 469 979 l 806 325 q 1014 958 922 824 q 1164 1047 1075 1047 m 818 1219 q 1119 1301 964 1272 l 1126 1282 q 911 1188 1011 1246 q 750 1067 811 1131 l 725 1067 q 649 1195 693 1144 q 532 1282 606 1246 l 538 1301 q 688 1267 628 1286 q 818 1219 747 1249 z "},"Ņ":{"ha":1146,"x_min":-111,"x_max":1296,"o":"m 1164 1047 q 1260 1014 1225 1047 q 1296 929 1296 981 q 1260 839 1296 875 q 1169 803 1224 803 q 1099 826 1124 803 q 1074 886 1074 849 q 1103 967 1074 932 q 1178 1015 1132 1001 q 1156 1021 1172 1021 q 1039 947 1089 1021 q 911 624 978 856 q 760 -7 844 393 l 729 -7 l 385 747 q 272 251 325 453 q 168 -15 218 50 q 103 -79 138 -56 q 19 -103 69 -103 q -76 -69 -42 -103 q -111 15 -111 -36 q -76 106 -111 69 q 15 142 -40 142 q 85 119 60 142 q 111 58 111 96 q 81 -22 111 13 q 6 -71 51 -57 q 29 -76 13 -76 q 146 -1 100 -76 q 253 292 197 81 q 374 836 308 503 q 382 899 382 876 q 360 942 382 932 q 275 956 338 953 l 282 983 q 406 979 326 979 q 518 983 469 979 l 806 325 q 1014 958 922 824 q 1164 1047 1075 1047 m 429 -74 q 496 -96 468 -74 q 524 -158 524 -118 q 474 -275 524 -228 q 332 -335 424 -322 l 329 -308 q 422 -281 383 -303 q 467 -228 460 -260 q 388 -251 433 -251 q 304 -183 304 -251 q 340 -106 304 -137 q 429 -74 375 -74 z "},"Ŋ":{"ha":1001,"x_min":-56,"x_max":1115,"o":"m 988 979 q 1115 983 1068 979 l 1108 956 q 1033 943 1058 953 q 994 908 1008 933 q 965 831 979 883 l 756 38 q 667 -186 722 -111 q 511 -261 613 -261 q 394 -235 443 -261 q 344 -157 346 -210 q 376 -81 344 -111 q 461 -51 407 -51 q 538 -74 508 -51 q 569 -135 568 -96 q 492 -233 569 -199 q 521 -237 504 -237 q 642 -174 597 -237 q 714 -8 686 -111 l 286 758 l 125 153 q 114 86 114 108 q 135 42 114 54 q 213 28 157 31 l 206 0 q 75 4 158 4 q -56 0 -10 4 l -50 28 q 26 40 0 31 q 66 75 51 50 q 94 153 81 100 l 276 836 q 288 900 288 881 q 265 942 288 931 q 185 956 243 953 l 192 983 q 315 979 235 979 q 428 983 379 979 l 797 310 l 933 831 q 944 899 944 878 q 923 942 944 931 q 847 956 901 953 l 854 983 q 988 979 903 979 z "},"Ñ":{"ha":1146,"x_min":-111,"x_max":1296,"o":"m 1164 1047 q 1260 1014 1225 1047 q 1296 929 1296 981 q 1260 839 1296 875 q 1169 803 1224 803 q 1099 826 1124 803 q 1074 886 1074 849 q 1103 967 1074 932 q 1178 1015 1132 1001 q 1156 1021 1172 1021 q 1039 947 1089 1021 q 911 624 978 856 q 760 -7 844 393 l 729 -7 l 385 747 q 272 251 325 453 q 168 -15 218 50 q 103 -79 138 -56 q 19 -103 69 -103 q -76 -69 -42 -103 q -111 15 -111 -36 q -76 106 -111 69 q 15 142 -40 142 q 85 119 60 142 q 111 58 111 96 q 81 -22 111 13 q 6 -71 51 -57 q 29 -76 13 -76 q 146 -1 100 -76 q 253 292 197 81 q 374 836 308 503 q 382 899 382 876 q 360 942 382 932 q 275 956 338 953 l 282 983 q 406 979 326 979 q 518 983 469 979 l 806 325 q 1014 958 922 824 q 1164 1047 1075 1047 m 686 1288 q 767 1273 735 1288 q 839 1232 800 1258 q 895 1197 872 1208 q 950 1186 918 1186 q 1006 1205 981 1186 q 1057 1267 1032 1224 l 1082 1260 q 982 1115 1044 1163 q 851 1067 919 1067 q 769 1081 801 1067 q 697 1124 738 1096 q 642 1157 664 1146 q 588 1168 619 1168 q 531 1149 557 1168 q 481 1088 506 1131 l 456 1094 q 555 1240 493 1192 q 686 1288 617 1288 z "},"O":{"ha":1079,"x_min":58,"x_max":1065,"o":"m 58 314 q 138 632 58 471 q 363 898 218 793 q 688 1003 507 1003 q 965 915 865 1003 q 1065 668 1065 828 q 985 351 1065 511 q 760 85 904 190 q 435 -19 615 -19 q 158 68 257 -19 q 58 314 58 156 m 675 978 q 493 878 581 978 q 351 619 406 778 q 297 296 297 461 q 339 83 297 161 q 447 6 381 6 q 629 106 542 6 q 771 364 717 206 q 825 688 825 522 q 783 900 825 822 q 675 978 742 978 z "},"Ó":{"ha":1079,"x_min":58,"x_max":1065,"o":"m 58 314 q 138 632 58 471 q 363 898 218 793 q 688 1003 507 1003 q 965 915 865 1003 q 1065 668 1065 828 q 985 351 1065 511 q 760 85 904 190 q 435 -19 615 -19 q 158 68 257 -19 q 58 314 58 156 m 675 978 q 493 878 581 978 q 351 619 406 778 q 297 296 297 461 q 339 83 297 161 q 447 6 381 6 q 629 106 542 6 q 771 364 717 206 q 825 688 825 522 q 783 900 825 822 q 675 978 742 978 m 663 1089 q 758 1171 717 1132 q 808 1217 800 1210 q 876 1277 851 1257 q 926 1313 900 1297 q 986 1328 953 1328 q 1053 1290 1035 1328 q 1060 1263 1060 1278 q 1043 1219 1060 1239 q 997 1183 1026 1199 q 938 1158 974 1171 q 864 1135 903 1146 q 672 1072 760 1107 l 663 1089 z "},"Ŏ":{"ha":1079,"x_min":58,"x_max":1065,"o":"m 58 314 q 138 632 58 471 q 363 898 218 793 q 688 1003 507 1003 q 965 915 865 1003 q 1065 668 1065 828 q 985 351 1065 511 q 760 85 904 190 q 435 -19 615 -19 q 158 68 257 -19 q 58 314 58 156 m 675 978 q 493 878 581 978 q 351 619 406 778 q 297 296 297 461 q 339 83 297 161 q 447 6 381 6 q 629 106 542 6 q 771 364 717 206 q 825 688 825 522 q 783 900 825 822 q 675 978 742 978 m 713 1207 q 1029 1286 896 1207 l 1044 1272 q 885 1131 986 1192 q 685 1071 783 1071 q 538 1126 593 1071 q 465 1271 482 1182 l 486 1281 q 578 1224 526 1240 q 713 1207 631 1207 z "},"Ô":{"ha":1079,"x_min":58,"x_max":1065,"o":"m 58 314 q 138 632 58 471 q 363 898 218 793 q 688 1003 507 1003 q 965 915 865 1003 q 1065 668 1065 828 q 985 351 1065 511 q 760 85 904 190 q 435 -19 615 -19 q 158 68 257 -19 q 58 314 58 156 m 675 978 q 493 878 581 978 q 351 619 406 778 q 297 296 297 461 q 339 83 297 161 q 447 6 381 6 q 629 106 542 6 q 771 364 717 206 q 825 688 825 522 q 783 900 825 822 q 675 978 742 978 m 692 1153 q 389 1071 547 1100 l 382 1090 q 597 1184 497 1126 q 758 1306 697 1242 l 783 1306 q 859 1177 815 1228 q 976 1090 903 1126 l 971 1071 q 820 1105 881 1086 q 692 1153 760 1124 z "},"Ố":{"ha":1079,"x_min":58,"x_max":1132,"o":"m 58 314 q 138 632 58 471 q 363 898 218 793 q 688 1003 507 1003 q 965 915 865 1003 q 1065 668 1065 828 q 985 351 1065 511 q 760 85 904 190 q 435 -19 615 -19 q 158 68 257 -19 q 58 314 58 156 m 675 978 q 493 878 581 978 q 351 619 406 778 q 297 296 297 461 q 339 83 297 161 q 447 6 381 6 q 629 106 542 6 q 771 364 717 206 q 825 688 825 522 q 783 900 825 822 q 675 978 742 978 m 692 1153 q 389 1071 547 1100 l 382 1090 q 597 1184 497 1126 q 758 1306 697 1242 l 783 1306 q 859 1177 815 1228 q 976 1090 903 1126 l 971 1071 q 820 1105 881 1086 q 692 1153 760 1124 m 735 1378 q 831 1460 789 1421 q 881 1506 872 1499 q 948 1566 924 1546 q 999 1601 972 1586 q 1058 1617 1025 1617 q 1125 1579 1107 1617 q 1132 1551 1132 1567 q 1115 1508 1132 1528 q 1069 1472 1099 1488 q 1010 1447 1046 1460 q 936 1424 975 1435 q 744 1361 832 1396 l 735 1378 z "},"Ộ":{"ha":1079,"x_min":58,"x_max":1065,"o":"m 58 314 q 138 632 58 471 q 363 898 218 793 q 688 1003 507 1003 q 965 915 865 1003 q 1065 668 1065 828 q 985 351 1065 511 q 760 85 904 190 q 435 -19 615 -19 q 158 68 257 -19 q 58 314 58 156 m 675 978 q 493 878 581 978 q 351 619 406 778 q 297 296 297 461 q 339 83 297 161 q 447 6 381 6 q 629 106 542 6 q 771 364 717 206 q 825 688 825 522 q 783 900 825 822 q 675 978 742 978 m 692 1153 q 389 1071 547 1100 l 382 1090 q 597 1184 497 1126 q 758 1306 697 1242 l 783 1306 q 859 1177 815 1228 q 976 1090 903 1126 l 971 1071 q 820 1105 881 1086 q 692 1153 760 1124 m 400 -260 q 333 -241 357 -260 q 310 -187 310 -222 q 343 -106 310 -136 q 432 -76 376 -76 q 499 -95 475 -76 q 522 -149 522 -114 q 488 -230 522 -200 q 400 -260 454 -260 z "},"Ồ":{"ha":1079,"x_min":58,"x_max":1065,"o":"m 58 314 q 138 632 58 471 q 363 898 218 793 q 688 1003 507 1003 q 965 915 865 1003 q 1065 668 1065 828 q 985 351 1065 511 q 760 85 904 190 q 435 -19 615 -19 q 158 68 257 -19 q 58 314 58 156 m 675 978 q 493 878 581 978 q 351 619 406 778 q 297 296 297 461 q 339 83 297 161 q 447 6 381 6 q 629 106 542 6 q 771 364 717 206 q 825 688 825 522 q 783 900 825 822 q 675 978 742 978 m 692 1153 q 389 1071 547 1100 l 382 1090 q 597 1184 497 1126 q 758 1306 697 1242 l 783 1306 q 859 1177 815 1228 q 976 1090 903 1126 l 971 1071 q 820 1105 881 1086 q 692 1153 760 1124 m 821 1360 q 654 1425 744 1394 q 612 1441 644 1429 q 556 1468 579 1453 q 524 1499 536 1479 q 513 1539 513 1518 q 522 1574 513 1558 q 585 1607 542 1607 q 638 1592 614 1607 q 672 1563 657 1579 q 714 1511 686 1546 q 753 1462 721 1503 q 832 1375 785 1421 l 821 1360 z "},"Ổ":{"ha":1079,"x_min":58,"x_max":1233,"o":"m 58 314 q 138 632 58 471 q 363 898 218 793 q 688 1003 507 1003 q 965 915 865 1003 q 1065 668 1065 828 q 985 351 1065 511 q 760 85 904 190 q 435 -19 615 -19 q 158 68 257 -19 q 58 314 58 156 m 675 978 q 493 878 581 978 q 351 619 406 778 q 297 296 297 461 q 339 83 297 161 q 447 6 381 6 q 629 106 542 6 q 771 364 717 206 q 825 688 825 522 q 783 900 825 822 q 675 978 742 978 m 692 1153 q 389 1071 547 1100 l 382 1090 q 597 1184 497 1126 q 758 1306 697 1242 l 783 1306 q 859 1177 815 1228 q 976 1090 903 1126 l 971 1071 q 820 1105 881 1086 q 692 1153 760 1124 m 986 1260 q 1007 1320 992 1297 q 1050 1371 1022 1343 q 1091 1419 1078 1397 q 1104 1475 1104 1440 q 1021 1557 1104 1557 q 958 1542 978 1557 q 1007 1472 1007 1521 q 983 1417 1007 1439 q 922 1396 958 1396 q 872 1413 890 1396 q 853 1460 853 1431 q 933 1556 853 1518 q 1071 1583 992 1583 q 1189 1558 1144 1583 q 1233 1482 1233 1533 q 1208 1420 1233 1442 q 1131 1374 1183 1399 q 1049 1326 1078 1350 q 1014 1260 1021 1303 l 986 1260 z "},"Ỗ":{"ha":1079,"x_min":58,"x_max":1110,"o":"m 58 314 q 138 632 58 471 q 363 898 218 793 q 688 1003 507 1003 q 965 915 865 1003 q 1065 668 1065 828 q 985 351 1065 511 q 760 85 904 190 q 435 -19 615 -19 q 158 68 257 -19 q 58 314 58 156 m 675 978 q 493 878 581 978 q 351 619 406 778 q 297 296 297 461 q 339 83 297 161 q 447 6 381 6 q 629 106 542 6 q 771 364 717 206 q 825 688 825 522 q 783 900 825 822 q 675 978 742 978 m 692 1153 q 389 1071 547 1100 l 382 1090 q 597 1184 497 1126 q 758 1306 697 1242 l 783 1306 q 859 1177 815 1228 q 976 1090 903 1126 l 971 1071 q 820 1105 881 1086 q 692 1153 760 1124 m 714 1576 q 795 1562 763 1576 q 867 1521 828 1547 q 923 1486 900 1497 q 978 1475 946 1475 q 1034 1494 1008 1475 q 1085 1556 1060 1513 l 1110 1549 q 1010 1403 1072 1451 q 879 1356 947 1356 q 797 1370 829 1356 q 725 1413 765 1385 q 669 1446 692 1435 q 615 1457 647 1457 q 559 1438 585 1457 q 508 1376 533 1419 l 483 1383 q 583 1528 521 1481 q 714 1576 644 1576 z "},"Ö":{"ha":1079,"x_min":58,"x_max":1065,"o":"m 58 314 q 138 632 58 471 q 363 898 218 793 q 688 1003 507 1003 q 965 915 865 1003 q 1065 668 1065 828 q 985 351 1065 511 q 760 85 904 190 q 435 -19 615 -19 q 158 68 257 -19 q 58 314 58 156 m 675 978 q 493 878 581 978 q 351 619 406 778 q 297 296 297 461 q 339 83 297 161 q 447 6 381 6 q 629 106 542 6 q 771 364 717 206 q 825 688 825 522 q 783 900 825 822 q 675 978 742 978 m 438 1156 q 472 1242 438 1210 q 557 1274 507 1274 q 624 1248 600 1274 q 647 1181 647 1222 q 611 1095 647 1126 q 526 1064 575 1064 q 460 1089 483 1064 q 438 1156 438 1114 m 771 1156 q 806 1242 771 1210 q 890 1274 840 1274 q 957 1248 933 1274 q 981 1181 981 1222 q 944 1095 981 1126 q 860 1064 908 1064 q 793 1089 815 1064 q 771 1156 771 1114 z "},"Ọ":{"ha":1079,"x_min":58,"x_max":1065,"o":"m 58 314 q 138 632 58 471 q 363 898 218 793 q 688 1003 507 1003 q 965 915 865 1003 q 1065 668 1065 828 q 985 351 1065 511 q 760 85 904 190 q 435 -19 615 -19 q 158 68 257 -19 q 58 314 58 156 m 675 978 q 493 878 581 978 q 351 619 406 778 q 297 296 297 461 q 339 83 297 161 q 447 6 381 6 q 629 106 542 6 q 771 364 717 206 q 825 688 825 522 q 783 900 825 822 q 675 978 742 978 m 400 -260 q 333 -241 357 -260 q 310 -187 310 -222 q 343 -106 310 -136 q 432 -76 376 -76 q 499 -95 475 -76 q 522 -149 522 -114 q 488 -230 522 -200 q 400 -260 454 -260 z "},"Ò":{"ha":1079,"x_min":58,"x_max":1065,"o":"m 58 314 q 138 632 58 471 q 363 898 218 793 q 688 1003 507 1003 q 965 915 865 1003 q 1065 668 1065 828 q 985 351 1065 511 q 760 85 904 190 q 435 -19 615 -19 q 158 68 257 -19 q 58 314 58 156 m 675 978 q 493 878 581 978 q 351 619 406 778 q 297 296 297 461 q 339 83 297 161 q 447 6 381 6 q 629 106 542 6 q 771 364 717 206 q 825 688 825 522 q 783 900 825 822 q 675 978 742 978 m 749 1071 q 582 1136 672 1106 q 540 1152 572 1140 q 483 1179 507 1164 q 452 1210 464 1190 q 440 1250 440 1229 q 450 1285 440 1269 q 513 1318 469 1318 q 565 1303 542 1318 q 599 1274 585 1290 q 642 1222 614 1257 q 681 1173 649 1214 q 760 1086 713 1132 l 749 1071 z "},"Ỏ":{"ha":1079,"x_min":58,"x_max":1065,"o":"m 58 314 q 138 632 58 471 q 363 898 218 793 q 688 1003 507 1003 q 965 915 865 1003 q 1065 668 1065 828 q 985 351 1065 511 q 760 85 904 190 q 435 -19 615 -19 q 158 68 257 -19 q 58 314 58 156 m 675 978 q 493 878 581 978 q 351 619 406 778 q 297 296 297 461 q 339 83 297 161 q 447 6 381 6 q 629 106 542 6 q 771 364 717 206 q 825 688 825 522 q 783 900 825 822 q 675 978 742 978 m 683 1094 q 705 1156 689 1132 q 749 1206 721 1179 q 790 1253 776 1232 q 803 1310 803 1275 q 719 1392 803 1392 q 657 1375 675 1392 q 706 1307 706 1354 q 681 1251 706 1274 q 621 1229 657 1229 q 571 1247 590 1229 q 551 1294 551 1265 q 573 1349 551 1325 q 631 1389 594 1374 q 769 1417 690 1417 q 888 1392 843 1417 q 932 1315 932 1367 q 907 1253 932 1275 q 829 1208 882 1232 q 747 1161 776 1185 q 711 1094 718 1138 l 683 1094 z "},"Ơ":{"ha":1079,"x_min":58,"x_max":1253,"o":"m 1156 1210 q 1225 1183 1197 1210 q 1253 1111 1253 1156 q 1231 1042 1253 1074 q 1165 989 1208 1011 q 1065 956 1126 968 q 928 943 1004 943 q 1030 832 994 901 q 1065 668 1065 763 q 985 351 1065 511 q 760 85 904 190 q 435 -19 615 -19 q 158 68 257 -19 q 58 314 58 156 q 138 632 58 471 q 363 898 218 793 q 688 1003 507 1003 q 863 975 786 1003 q 936 972 889 972 q 1129 1006 1044 972 q 1060 1114 1060 1051 q 1087 1183 1060 1156 q 1156 1210 1114 1210 m 447 6 q 629 106 542 6 q 771 364 717 206 q 825 688 825 522 q 783 900 825 822 q 675 978 742 978 q 493 878 581 978 q 351 619 406 778 q 297 296 297 461 q 339 83 297 161 q 447 6 381 6 z "},"Ớ":{"ha":1079,"x_min":58,"x_max":1253,"o":"m 1156 1210 q 1225 1183 1197 1210 q 1253 1111 1253 1156 q 1231 1042 1253 1074 q 1165 989 1208 1011 q 1065 956 1126 968 q 928 943 1004 943 q 1030 832 994 901 q 1065 668 1065 763 q 985 351 1065 511 q 760 85 904 190 q 435 -19 615 -19 q 158 68 257 -19 q 58 314 58 156 q 138 632 58 471 q 363 898 218 793 q 688 1003 507 1003 q 863 975 786 1003 q 936 972 889 972 q 1129 1006 1044 972 q 1060 1114 1060 1051 q 1087 1183 1060 1156 q 1156 1210 1114 1210 m 447 6 q 629 106 542 6 q 771 364 717 206 q 825 688 825 522 q 783 900 825 822 q 675 978 742 978 q 493 878 581 978 q 351 619 406 778 q 297 296 297 461 q 339 83 297 161 q 447 6 381 6 m 663 1089 q 758 1171 717 1132 q 808 1217 800 1210 q 876 1277 851 1257 q 926 1313 900 1297 q 986 1328 953 1328 q 1053 1290 1035 1328 q 1060 1263 1060 1278 q 1043 1219 1060 1239 q 997 1183 1026 1199 q 938 1158 974 1171 q 864 1135 903 1146 q 672 1072 760 1107 l 663 1089 z "},"Ợ":{"ha":1079,"x_min":58,"x_max":1253,"o":"m 1156 1210 q 1225 1183 1197 1210 q 1253 1111 1253 1156 q 1231 1042 1253 1074 q 1165 989 1208 1011 q 1065 956 1126 968 q 928 943 1004 943 q 1030 832 994 901 q 1065 668 1065 763 q 985 351 1065 511 q 760 85 904 190 q 435 -19 615 -19 q 158 68 257 -19 q 58 314 58 156 q 138 632 58 471 q 363 898 218 793 q 688 1003 507 1003 q 863 975 786 1003 q 936 972 889 972 q 1129 1006 1044 972 q 1060 1114 1060 1051 q 1087 1183 1060 1156 q 1156 1210 1114 1210 m 447 6 q 629 106 542 6 q 771 364 717 206 q 825 688 825 522 q 783 900 825 822 q 675 978 742 978 q 493 878 581 978 q 351 619 406 778 q 297 296 297 461 q 339 83 297 161 q 447 6 381 6 m 400 -260 q 333 -241 357 -260 q 310 -187 310 -222 q 343 -106 310 -136 q 432 -76 376 -76 q 499 -95 475 -76 q 522 -149 522 -114 q 488 -230 522 -200 q 400 -260 454 -260 z "},"Ờ":{"ha":1079,"x_min":58,"x_max":1253,"o":"m 1156 1210 q 1225 1183 1197 1210 q 1253 1111 1253 1156 q 1231 1042 1253 1074 q 1165 989 1208 1011 q 1065 956 1126 968 q 928 943 1004 943 q 1030 832 994 901 q 1065 668 1065 763 q 985 351 1065 511 q 760 85 904 190 q 435 -19 615 -19 q 158 68 257 -19 q 58 314 58 156 q 138 632 58 471 q 363 898 218 793 q 688 1003 507 1003 q 863 975 786 1003 q 936 972 889 972 q 1129 1006 1044 972 q 1060 1114 1060 1051 q 1087 1183 1060 1156 q 1156 1210 1114 1210 m 447 6 q 629 106 542 6 q 771 364 717 206 q 825 688 825 522 q 783 900 825 822 q 675 978 742 978 q 493 878 581 978 q 351 619 406 778 q 297 296 297 461 q 339 83 297 161 q 447 6 381 6 m 749 1071 q 582 1136 672 1106 q 540 1152 572 1140 q 483 1179 507 1164 q 452 1210 464 1190 q 440 1250 440 1229 q 450 1285 440 1269 q 513 1318 469 1318 q 565 1303 542 1318 q 599 1274 585 1290 q 642 1222 614 1257 q 681 1173 649 1214 q 760 1086 713 1132 l 749 1071 z "},"Ở":{"ha":1079,"x_min":58,"x_max":1253,"o":"m 1156 1210 q 1225 1183 1197 1210 q 1253 1111 1253 1156 q 1231 1042 1253 1074 q 1165 989 1208 1011 q 1065 956 1126 968 q 928 943 1004 943 q 1030 832 994 901 q 1065 668 1065 763 q 985 351 1065 511 q 760 85 904 190 q 435 -19 615 -19 q 158 68 257 -19 q 58 314 58 156 q 138 632 58 471 q 363 898 218 793 q 688 1003 507 1003 q 863 975 786 1003 q 936 972 889 972 q 1129 1006 1044 972 q 1060 1114 1060 1051 q 1087 1183 1060 1156 q 1156 1210 1114 1210 m 447 6 q 629 106 542 6 q 771 364 717 206 q 825 688 825 522 q 783 900 825 822 q 675 978 742 978 q 493 878 581 978 q 351 619 406 778 q 297 296 297 461 q 339 83 297 161 q 447 6 381 6 m 674 1032 q 694 1092 679 1069 q 738 1143 710 1115 q 778 1191 765 1169 q 792 1247 792 1213 q 708 1329 792 1329 q 646 1314 665 1329 q 694 1244 694 1293 q 670 1190 694 1211 q 610 1168 646 1168 q 559 1185 578 1168 q 540 1232 540 1203 q 621 1328 540 1290 q 758 1356 679 1356 q 876 1331 832 1356 q 921 1254 921 1306 q 896 1192 921 1214 q 818 1146 871 1171 q 737 1099 765 1122 q 701 1032 708 1075 l 674 1032 z "},"Ỡ":{"ha":1079,"x_min":58,"x_max":1253,"o":"m 1156 1210 q 1225 1183 1197 1210 q 1253 1111 1253 1156 q 1231 1042 1253 1074 q 1165 989 1208 1011 q 1065 956 1126 968 q 928 943 1004 943 q 1030 832 994 901 q 1065 668 1065 763 q 985 351 1065 511 q 760 85 904 190 q 435 -19 615 -19 q 158 68 257 -19 q 58 314 58 156 q 138 632 58 471 q 363 898 218 793 q 688 1003 507 1003 q 863 975 786 1003 q 936 972 889 972 q 1129 1006 1044 972 q 1060 1114 1060 1051 q 1087 1183 1060 1156 q 1156 1210 1114 1210 m 447 6 q 629 106 542 6 q 771 364 717 206 q 825 688 825 522 q 783 900 825 822 q 675 978 742 978 q 493 878 581 978 q 351 619 406 778 q 297 296 297 461 q 339 83 297 161 q 447 6 381 6 m 640 1288 q 722 1273 689 1288 q 793 1232 754 1258 q 849 1197 826 1208 q 904 1186 872 1186 q 960 1205 935 1186 q 1011 1267 986 1224 l 1036 1260 q 936 1115 999 1163 q 806 1067 874 1067 q 724 1081 756 1067 q 651 1124 692 1096 q 596 1157 618 1146 q 542 1168 574 1168 q 485 1149 511 1168 q 435 1088 460 1131 l 410 1094 q 509 1240 447 1192 q 640 1288 571 1288 z "},"Ő":{"ha":1079,"x_min":58,"x_max":1065,"o":"m 58 314 q 138 632 58 471 q 363 898 218 793 q 688 1003 507 1003 q 965 915 865 1003 q 1065 668 1065 828 q 985 351 1065 511 q 760 85 904 190 q 435 -19 615 -19 q 158 68 257 -19 q 58 314 58 156 m 675 978 q 493 878 581 978 q 351 619 406 778 q 297 296 297 461 q 339 83 297 161 q 447 6 381 6 q 629 106 542 6 q 771 364 717 206 q 825 688 825 522 q 783 900 825 822 q 675 978 742 978 m 461 1088 q 554 1200 492 1121 q 604 1261 585 1239 q 644 1299 624 1283 q 697 1315 671 1315 q 760 1282 738 1315 q 769 1247 769 1267 q 758 1208 769 1228 q 725 1175 746 1189 q 676 1150 703 1161 q 606 1124 650 1139 q 472 1072 522 1094 l 461 1088 m 754 1088 q 847 1200 785 1121 q 897 1261 878 1239 q 938 1299 917 1283 q 989 1315 964 1315 q 1051 1282 1029 1315 q 1063 1247 1063 1267 q 1050 1208 1063 1228 q 1018 1175 1038 1189 q 969 1150 996 1161 q 899 1124 943 1139 q 765 1072 815 1094 l 754 1088 z "},"Ō":{"ha":1079,"x_min":58,"x_max":1065,"o":"m 58 314 q 138 632 58 471 q 363 898 218 793 q 688 1003 507 1003 q 965 915 865 1003 q 1065 668 1065 828 q 985 351 1065 511 q 760 85 904 190 q 435 -19 615 -19 q 158 68 257 -19 q 58 314 58 156 m 675 978 q 493 878 581 978 q 351 619 406 778 q 297 296 297 461 q 339 83 297 161 q 447 6 381 6 q 629 106 542 6 q 771 364 717 206 q 825 688 825 522 q 783 900 825 822 q 675 978 742 978 m 961 1138 l 406 1138 l 414 1172 l 969 1172 l 961 1138 z "},"Ø":{"ha":1079,"x_min":-4,"x_max":1117,"o":"m 975 906 q 1065 668 1065 819 q 985 351 1065 511 q 760 85 904 190 q 435 -19 615 -19 q 172 56 271 -19 l 19 -101 l -4 -82 l 149 76 q 58 314 58 163 q 138 632 58 471 q 363 898 218 793 q 688 1003 507 1003 q 954 925 856 1003 l 1096 1074 l 1117 1056 l 975 906 m 675 978 q 493 878 581 978 q 351 619 406 778 q 297 296 297 461 q 303 206 297 243 l 817 793 q 765 929 803 881 q 675 978 728 978 m 447 6 q 629 106 542 6 q 771 364 717 206 q 825 688 825 522 q 822 756 825 714 l 310 167 q 363 48 326 90 q 447 6 399 6 z "},"Ǿ":{"ha":1079,"x_min":-4,"x_max":1117,"o":"m 997 1183 q 938 1158 974 1171 q 864 1135 903 1146 q 672 1072 760 1107 l 663 1089 q 758 1171 717 1132 q 808 1217 800 1210 q 876 1277 851 1257 q 926 1313 900 1297 q 986 1328 953 1328 q 1053 1290 1035 1328 q 1060 1263 1060 1278 q 1043 1219 1060 1239 q 997 1183 1026 1199 m 975 906 q 1065 668 1065 819 q 985 351 1065 511 q 760 85 904 190 q 435 -19 615 -19 q 172 56 271 -19 l 19 -101 l -4 -82 l 149 76 q 58 314 58 163 q 138 632 58 471 q 363 898 218 793 q 688 1003 507 1003 q 954 925 856 1003 l 1096 1074 l 1117 1056 l 975 906 m 675 978 q 493 878 581 978 q 351 619 406 778 q 297 296 297 461 q 303 206 297 243 l 817 793 q 765 929 803 881 q 675 978 728 978 m 447 6 q 629 106 542 6 q 771 364 717 206 q 825 688 825 522 q 822 756 825 714 l 310 167 q 363 48 326 90 q 447 6 399 6 z "},"Õ":{"ha":1079,"x_min":58,"x_max":1065,"o":"m 58 314 q 138 632 58 471 q 363 898 218 793 q 688 1003 507 1003 q 965 915 865 1003 q 1065 668 1065 828 q 985 351 1065 511 q 760 85 904 190 q 435 -19 615 -19 q 158 68 257 -19 q 58 314 58 156 m 675 978 q 493 878 581 978 q 351 619 406 778 q 297 296 297 461 q 339 83 297 161 q 447 6 381 6 q 629 106 542 6 q 771 364 717 206 q 825 688 825 522 q 783 900 825 822 q 675 978 742 978 m 640 1288 q 722 1273 689 1288 q 793 1232 754 1258 q 849 1197 826 1208 q 904 1186 872 1186 q 960 1205 935 1186 q 1011 1267 986 1224 l 1036 1260 q 936 1115 999 1163 q 806 1067 874 1067 q 724 1081 756 1067 q 651 1124 692 1096 q 596 1157 618 1146 q 542 1168 574 1168 q 485 1149 511 1168 q 435 1088 460 1131 l 410 1094 q 509 1240 447 1192 q 640 1288 571 1288 z "},"Œ":{"ha":1381,"x_min":60,"x_max":1447,"o":"m 1171 979 q 1447 983 1363 979 q 1394 819 1414 894 q 1376 733 1379 772 l 1346 733 q 1356 832 1356 788 q 1326 924 1356 897 q 1233 951 1297 951 l 1151 951 q 1078 944 1103 951 q 1040 913 1054 936 q 1013 836 1026 889 l 925 508 l 1028 508 q 1093 529 1067 508 q 1135 581 1119 550 q 1171 664 1151 611 l 1201 664 q 1164 532 1179 596 l 1154 494 q 1118 325 1135 422 l 1088 325 q 1092 368 1088 347 q 1094 411 1094 399 q 1079 460 1094 442 q 1022 481 1064 478 l 918 481 l 829 147 q 817 79 817 94 q 837 41 817 50 q 908 32 857 32 l 1004 32 q 1114 55 1071 32 q 1189 130 1157 78 q 1253 278 1221 182 l 1283 278 q 1254 178 1274 257 q 1218 0 1228 85 q 910 4 1125 4 q 571 3 688 4 q 425 -19 497 -19 q 156 68 253 -19 q 60 314 60 156 q 138 632 60 471 q 358 898 217 793 q 678 1003 500 1003 q 807 981 747 1003 q 1008 979 869 979 l 1171 979 m 792 836 q 801 897 801 869 q 772 960 801 943 q 682 978 742 978 q 494 878 582 978 q 352 620 406 779 q 299 296 299 461 q 340 83 299 160 q 450 6 381 6 q 547 27 513 6 q 597 104 582 49 l 792 836 z "},"P":{"ha":893,"x_min":-58,"x_max":949,"o":"m 310 147 q 300 86 300 114 q 320 43 300 57 q 392 28 340 29 l 386 0 q 172 4 303 4 q -58 0 15 4 l -53 28 q 22 39 -3 31 q 62 71 47 47 q 90 147 76 94 l 274 836 q 283 901 283 882 q 263 942 283 929 q 192 956 243 954 l 199 983 q 419 979 269 979 q 519 981 486 979 l 622 982 q 949 772 949 982 q 876 578 949 664 q 674 443 804 492 q 375 394 543 394 l 310 147 m 383 422 l 389 422 q 578 478 504 422 q 684 620 651 533 q 717 804 717 707 q 685 918 717 881 q 582 956 653 956 q 539 946 553 956 q 516 914 525 936 q 493 836 507 892 l 383 422 z "},"Þ":{"ha":918,"x_min":-57,"x_max":915,"o":"m 311 147 q 299 79 299 94 q 319 40 299 50 q 393 28 339 31 l 388 0 q 161 4 307 4 q -57 0 15 4 l -50 28 q 23 39 -1 31 q 62 72 47 47 q 90 147 76 96 l 274 836 q 285 903 285 883 q 265 943 285 933 q 192 956 244 953 l 199 983 q 417 979 267 979 q 644 983 554 979 l 638 956 q 562 944 586 953 q 523 913 538 936 q 494 836 508 889 l 479 781 l 589 782 q 833 726 750 782 q 915 572 915 669 q 843 378 915 464 q 640 243 771 292 q 342 194 510 194 l 324 194 l 311 147 m 532 756 q 472 754 488 756 l 331 222 l 356 222 q 539 274 465 222 q 648 409 613 325 q 683 594 683 493 q 645 713 683 671 q 532 756 607 756 z "},"Q":{"ha":1154,"x_min":-53,"x_max":1133,"o":"m 929 143 q 1012 113 981 143 q 1043 26 1043 83 q 991 -110 1043 -43 q 850 -219 939 -176 q 656 -261 761 -261 q 508 -235 575 -261 q 390 -172 440 -210 q 276 -78 339 -135 q 92 -114 171 -114 q -15 -85 24 -114 q -53 -1 -53 -57 q 2 110 -53 67 q 142 154 57 154 q 283 121 215 154 q 446 22 351 88 q 675 192 572 88 q 838 426 778 296 q 897 696 897 556 q 843 903 897 829 q 688 978 789 978 q 519 915 593 978 q 406 753 446 851 q 365 550 365 654 q 399 422 365 465 q 507 378 433 378 q 653 431 590 378 q 733 554 717 483 q 739 621 742 585 q 690 558 725 579 q 617 538 654 538 q 544 567 571 538 q 517 640 517 596 q 555 731 517 694 q 649 768 593 768 q 740 727 707 768 q 774 615 774 686 q 730 472 774 536 q 608 373 686 408 q 431 338 529 338 q 214 403 296 338 q 132 585 132 469 q 214 797 132 701 q 431 948 296 893 q 717 1003 567 1003 q 933 968 839 1003 q 1081 869 1028 933 q 1133 721 1133 806 q 1037 467 1133 601 q 788 213 940 333 q 469 6 636 92 q 652 -105 572 -67 q 821 -143 732 -143 q 1000 -44 949 -143 q 911 -75 961 -75 q 833 -48 864 -75 q 803 26 803 -21 q 838 110 803 76 q 929 143 874 143 m 103 -90 q 257 -58 164 -90 q 149 28 193 0 q 58 57 106 57 q -1 39 22 57 q -24 -11 -24 21 q 10 -69 -24 -49 q 103 -90 43 -90 z "},"R":{"ha":988,"x_min":-58,"x_max":949,"o":"m 910 168 l 942 168 l 936 150 q 860 22 910 63 q 724 -19 810 -19 q 597 17 639 -19 q 554 115 554 53 q 556 142 554 133 l 576 300 q 579 346 579 333 q 540 440 579 410 q 397 472 500 469 l 311 147 q 297 79 297 99 q 318 41 297 53 q 392 28 339 29 l 386 0 q 169 4 303 4 q -58 0 15 4 l -53 28 q 22 39 -3 31 q 62 71 47 47 q 90 147 76 94 l 272 836 q 285 901 285 886 q 265 942 285 929 q 192 956 244 954 l 199 983 q 408 979 269 979 l 528 981 q 617 982 560 982 q 867 935 786 982 q 949 789 949 888 q 838 584 949 667 q 540 481 728 501 q 732 435 667 468 q 797 319 797 401 q 794 289 797 311 l 775 146 q 774 115 774 135 q 818 49 774 49 q 864 73 844 49 q 903 149 883 97 l 910 168 m 403 497 l 414 497 q 640 580 554 497 q 725 810 725 663 q 693 920 725 885 q 596 956 661 956 q 534 937 554 956 q 500 864 514 918 l 403 497 z "},"Ŕ":{"ha":988,"x_min":-58,"x_max":963,"o":"m 910 168 l 942 168 l 936 150 q 860 22 910 63 q 724 -19 810 -19 q 597 17 639 -19 q 554 115 554 53 q 556 142 554 133 l 576 300 q 579 346 579 333 q 540 440 579 410 q 397 472 500 469 l 311 147 q 297 79 297 99 q 318 41 297 53 q 392 28 339 29 l 386 0 q 169 4 303 4 q -58 0 15 4 l -53 28 q 22 39 -3 31 q 62 71 47 47 q 90 147 76 94 l 272 836 q 285 901 285 886 q 265 942 285 929 q 192 956 244 954 l 199 983 q 408 979 269 979 l 528 981 q 617 982 560 982 q 867 935 786 982 q 949 789 949 888 q 838 584 949 667 q 540 481 728 501 q 732 435 667 468 q 797 319 797 401 q 794 289 797 311 l 775 146 q 774 115 774 135 q 818 49 774 49 q 864 73 844 49 q 903 149 883 97 l 910 168 m 403 497 l 414 497 q 640 580 554 497 q 725 810 725 663 q 693 920 725 885 q 596 956 661 956 q 534 937 554 956 q 500 864 514 918 l 403 497 m 565 1089 q 661 1171 619 1132 q 711 1217 703 1210 q 778 1277 754 1257 q 829 1313 803 1297 q 889 1328 856 1328 q 956 1290 938 1328 q 963 1263 963 1278 q 946 1219 963 1239 q 900 1183 929 1199 q 841 1158 876 1171 q 767 1135 806 1146 q 575 1072 663 1107 l 565 1089 z "},"Ř":{"ha":988,"x_min":-58,"x_max":983,"o":"m 910 168 l 942 168 l 936 150 q 860 22 910 63 q 724 -19 810 -19 q 597 17 639 -19 q 554 115 554 53 q 556 142 554 133 l 576 300 q 579 346 579 333 q 540 440 579 410 q 397 472 500 469 l 311 147 q 297 79 297 99 q 318 41 297 53 q 392 28 339 29 l 386 0 q 169 4 303 4 q -58 0 15 4 l -53 28 q 22 39 -3 31 q 62 71 47 47 q 90 147 76 94 l 272 836 q 285 901 285 886 q 265 942 285 929 q 192 956 244 954 l 199 983 q 408 979 269 979 l 528 981 q 617 982 560 982 q 867 935 786 982 q 949 789 949 888 q 838 584 949 667 q 540 481 728 501 q 732 435 667 468 q 797 319 797 401 q 794 289 797 311 l 775 146 q 774 115 774 135 q 818 49 774 49 q 864 73 844 49 q 903 149 883 97 l 910 168 m 403 497 l 414 497 q 640 580 554 497 q 725 810 725 663 q 693 920 725 885 q 596 956 661 956 q 534 937 554 956 q 500 864 514 918 l 403 497 m 675 1219 q 976 1301 821 1272 l 983 1282 q 768 1188 868 1246 q 607 1067 668 1131 l 582 1067 q 506 1195 550 1144 q 389 1282 463 1246 l 394 1301 q 544 1267 485 1286 q 675 1219 604 1249 z "},"Ŗ":{"ha":988,"x_min":-58,"x_max":949,"o":"m 910 168 l 942 168 l 936 150 q 860 22 910 63 q 724 -19 810 -19 q 597 17 639 -19 q 554 115 554 53 q 556 142 554 133 l 576 300 q 579 346 579 333 q 540 440 579 410 q 397 472 500 469 l 311 147 q 297 79 297 99 q 318 41 297 53 q 392 28 339 29 l 386 0 q 169 4 303 4 q -58 0 15 4 l -53 28 q 22 39 -3 31 q 62 71 47 47 q 90 147 76 94 l 272 836 q 285 901 285 886 q 265 942 285 929 q 192 956 244 954 l 199 983 q 408 979 269 979 l 528 981 q 617 982 560 982 q 867 935 786 982 q 949 789 949 888 q 838 584 949 667 q 540 481 728 501 q 732 435 667 468 q 797 319 797 401 q 794 289 797 311 l 775 146 q 774 115 774 135 q 818 49 774 49 q 864 73 844 49 q 903 149 883 97 l 910 168 m 403 497 l 414 497 q 640 580 554 497 q 725 810 725 663 q 693 920 725 885 q 596 956 661 956 q 534 937 554 956 q 500 864 514 918 l 403 497 m 425 -74 q 492 -96 464 -74 q 519 -158 519 -118 q 469 -275 519 -228 q 328 -335 419 -322 l 325 -308 q 417 -281 379 -303 q 463 -228 456 -260 q 383 -251 429 -251 q 300 -183 300 -251 q 335 -106 300 -137 q 425 -74 371 -74 z "},"S":{"ha":815,"x_min":-39,"x_max":861,"o":"m 861 993 q 779 710 808 860 l 751 710 q 760 788 760 750 q 708 920 760 871 q 561 969 657 969 q 440 932 486 969 q 393 818 393 894 q 431 698 393 754 q 547 558 469 642 q 639 456 606 497 q 696 364 672 414 q 719 258 719 314 q 660 103 719 165 q 512 10 600 40 q 336 -19 424 -19 q 199 -4 247 -19 q 96 44 150 11 q 47 65 65 65 q 19 51 29 65 q -11 -10 8 36 l -39 -10 q 5 117 -17 43 q 56 324 26 192 l 83 324 q 71 225 71 271 q 128 66 71 121 q 297 11 186 11 q 476 157 476 11 q 440 297 476 235 q 329 439 403 358 q 250 534 279 496 q 201 621 221 572 q 181 725 181 669 q 231 877 181 814 q 361 972 282 940 q 522 1003 440 1003 q 646 986 594 1003 q 742 942 697 969 q 788 919 778 919 q 809 937 799 919 q 833 993 819 954 l 861 993 z "},"Ś":{"ha":815,"x_min":-39,"x_max":933,"o":"m 861 993 q 779 710 808 860 l 751 710 q 760 788 760 750 q 708 920 760 871 q 561 969 657 969 q 440 932 486 969 q 393 818 393 894 q 431 698 393 754 q 547 558 469 642 q 639 456 606 497 q 696 364 672 414 q 719 258 719 314 q 660 103 719 165 q 512 10 600 40 q 336 -19 424 -19 q 199 -4 247 -19 q 96 44 150 11 q 47 65 65 65 q 19 51 29 65 q -11 -10 8 36 l -39 -10 q 5 117 -17 43 q 56 324 26 192 l 83 324 q 71 225 71 271 q 128 66 71 121 q 297 11 186 11 q 476 157 476 11 q 440 297 476 235 q 329 439 403 358 q 250 534 279 496 q 201 621 221 572 q 181 725 181 669 q 231 877 181 814 q 361 972 282 940 q 522 1003 440 1003 q 646 986 594 1003 q 742 942 697 969 q 788 919 778 919 q 809 937 799 919 q 833 993 819 954 l 861 993 m 536 1089 q 632 1171 590 1132 q 682 1217 674 1210 q 749 1277 725 1257 q 800 1313 774 1297 q 860 1328 826 1328 q 926 1290 908 1328 q 933 1263 933 1278 q 917 1219 933 1239 q 871 1183 900 1199 q 812 1158 847 1171 q 738 1135 776 1146 q 546 1072 633 1107 l 536 1089 z "},"Š":{"ha":815,"x_min":-39,"x_max":954,"o":"m 861 993 q 779 710 808 860 l 751 710 q 760 788 760 750 q 708 920 760 871 q 561 969 657 969 q 440 932 486 969 q 393 818 393 894 q 431 698 393 754 q 547 558 469 642 q 639 456 606 497 q 696 364 672 414 q 719 258 719 314 q 660 103 719 165 q 512 10 600 40 q 336 -19 424 -19 q 199 -4 247 -19 q 96 44 150 11 q 47 65 65 65 q 19 51 29 65 q -11 -10 8 36 l -39 -10 q 5 117 -17 43 q 56 324 26 192 l 83 324 q 71 225 71 271 q 128 66 71 121 q 297 11 186 11 q 476 157 476 11 q 440 297 476 235 q 329 439 403 358 q 250 534 279 496 q 201 621 221 572 q 181 725 181 669 q 231 877 181 814 q 361 972 282 940 q 522 1003 440 1003 q 646 986 594 1003 q 742 942 697 969 q 788 919 778 919 q 809 937 799 919 q 833 993 819 954 l 861 993 m 646 1219 q 947 1301 792 1272 l 954 1282 q 739 1188 839 1246 q 578 1067 639 1131 l 553 1067 q 477 1195 521 1144 q 360 1282 433 1246 l 365 1301 q 515 1267 456 1286 q 646 1219 575 1249 z "},"Ş":{"ha":815,"x_min":-39,"x_max":861,"o":"m 861 993 q 779 710 808 860 l 751 710 q 760 788 760 750 q 708 920 760 871 q 561 969 657 969 q 440 932 486 969 q 393 818 393 894 q 431 698 393 754 q 547 558 469 642 q 639 456 606 497 q 696 364 672 414 q 719 258 719 314 q 660 103 719 165 q 512 10 600 40 q 336 -19 424 -19 q 199 -4 247 -19 q 96 44 150 11 q 47 65 65 65 q 19 51 29 65 q -11 -10 8 36 l -39 -10 q 5 117 -17 43 q 56 324 26 192 l 83 324 q 71 225 71 271 q 128 66 71 121 q 297 11 186 11 q 476 157 476 11 q 440 297 476 235 q 329 439 403 358 q 250 534 279 496 q 201 621 221 572 q 181 725 181 669 q 231 877 181 814 q 361 972 282 940 q 522 1003 440 1003 q 646 986 594 1003 q 742 942 697 969 q 788 919 778 919 q 809 937 799 919 q 833 993 819 954 l 861 993 m 296 -87 q 376 -74 335 -74 q 444 -91 419 -74 q 469 -140 469 -108 q 398 -231 469 -201 q 233 -261 326 -261 q 146 -253 186 -261 q 82 -233 106 -244 l 90 -212 q 203 -228 146 -228 q 288 -214 249 -228 q 328 -164 328 -200 q 283 -132 328 -132 q 235 -142 258 -132 l 301 8 l 339 8 l 296 -87 z "},"Ŝ":{"ha":815,"x_min":-39,"x_max":861,"o":"m 861 993 q 779 710 808 860 l 751 710 q 760 788 760 750 q 708 920 760 871 q 561 969 657 969 q 440 932 486 969 q 393 818 393 894 q 431 698 393 754 q 547 558 469 642 q 639 456 606 497 q 696 364 672 414 q 719 258 719 314 q 660 103 719 165 q 512 10 600 40 q 336 -19 424 -19 q 199 -4 247 -19 q 96 44 150 11 q 47 65 65 65 q 19 51 29 65 q -11 -10 8 36 l -39 -10 q 5 117 -17 43 q 56 324 26 192 l 83 324 q 71 225 71 271 q 128 66 71 121 q 297 11 186 11 q 476 157 476 11 q 440 297 476 235 q 329 439 403 358 q 250 534 279 496 q 201 621 221 572 q 181 725 181 669 q 231 877 181 814 q 361 972 282 940 q 522 1003 440 1003 q 646 986 594 1003 q 742 942 697 969 q 788 919 778 919 q 809 937 799 919 q 833 993 819 954 l 861 993 m 565 1153 q 263 1071 421 1100 l 256 1090 q 471 1184 371 1126 q 632 1306 571 1242 l 657 1306 q 733 1177 689 1228 q 850 1090 776 1126 l 844 1071 q 694 1105 754 1086 q 565 1153 633 1124 z "},"Ș":{"ha":815,"x_min":-39,"x_max":861,"o":"m 861 993 q 779 710 808 860 l 751 710 q 760 788 760 750 q 708 920 760 871 q 561 969 657 969 q 440 932 486 969 q 393 818 393 894 q 431 698 393 754 q 547 558 469 642 q 639 456 606 497 q 696 364 672 414 q 719 258 719 314 q 660 103 719 165 q 512 10 600 40 q 336 -19 424 -19 q 199 -4 247 -19 q 96 44 150 11 q 47 65 65 65 q 19 51 29 65 q -11 -10 8 36 l -39 -10 q 5 117 -17 43 q 56 324 26 192 l 83 324 q 71 225 71 271 q 128 66 71 121 q 297 11 186 11 q 476 157 476 11 q 440 297 476 235 q 329 439 403 358 q 250 534 279 496 q 201 621 221 572 q 181 725 181 669 q 231 877 181 814 q 361 972 282 940 q 522 1003 440 1003 q 646 986 594 1003 q 742 942 697 969 q 788 919 778 919 q 809 937 799 919 q 833 993 819 954 l 861 993 m 299 -74 q 365 -96 338 -74 q 393 -158 393 -118 q 343 -275 393 -228 q 201 -335 293 -322 l 199 -308 q 291 -281 253 -303 q 336 -228 329 -260 q 257 -251 303 -251 q 174 -183 174 -251 q 209 -106 174 -137 q 299 -74 244 -74 z "},"ẞ":{"ha":914,"x_min":-85,"x_max":892,"o":"m 138 -240 q -85 -261 15 -242 l 154 635 q 329 915 206 826 q 632 1003 453 1003 q 824 958 756 1003 q 892 821 892 914 q 788 635 892 715 q 532 519 683 556 q 767 438 693 506 q 840 283 840 371 q 786 124 840 193 q 639 18 732 56 q 432 -19 546 -19 q 321 6 363 -19 q 279 85 279 32 q 311 174 279 135 q 396 214 343 214 q 458 190 435 214 q 482 131 482 167 q 452 54 482 89 q 378 8 422 19 q 426 3 396 3 q 524 38 481 3 q 591 138 567 74 q 615 288 615 203 q 584 438 615 369 q 504 507 553 507 q 465 495 483 500 q 432 490 446 490 q 411 495 418 490 q 404 507 404 500 q 416 526 404 518 q 443 535 428 535 q 513 522 463 535 q 624 671 581 567 q 667 874 667 775 q 651 956 667 931 q 594 982 636 982 q 490 934 538 982 q 414 779 443 886 l 138 -240 z "},"Ə":{"ha":1044,"x_min":44,"x_max":1024,"o":"m 642 1004 q 922 915 821 1004 q 1024 642 1024 826 q 941 321 1024 474 q 713 74 858 168 q 392 -19 568 -19 q 141 56 238 -19 q 44 275 44 131 q 65 418 44 342 l 738 418 q 766 546 756 475 q 776 678 776 617 q 716 891 776 822 q 551 960 656 960 q 451 944 501 960 q 360 899 401 928 q 266 807 301 863 q 194 650 231 751 l 163 650 q 239 983 217 829 l 271 983 q 267 935 267 953 q 285 901 267 901 q 317 913 297 901 q 372 943 324 917 q 491 987 419 969 q 642 1004 563 1004 m 421 10 q 733 392 617 10 l 289 392 q 258 214 258 292 q 300 65 258 121 q 421 10 342 10 z "},"T":{"ha":946,"x_min":119,"x_max":1192,"o":"m 1085 1192 q 1163 1163 1133 1192 q 1192 1094 1192 1135 q 1096 963 1192 1010 q 864 922 1011 922 q 783 925 839 922 l 579 161 q 568 97 568 119 q 594 46 568 61 q 683 28 619 31 l 678 0 q 421 4 590 4 q 176 0 256 4 l 182 28 q 274 42 242 31 q 326 81 307 54 q 358 161 344 108 l 568 946 q 401 956 464 956 q 244 932 286 956 q 304 891 281 921 q 328 819 328 861 q 297 737 328 771 q 219 703 267 703 q 147 734 174 703 q 119 813 119 765 q 141 888 119 851 q 210 947 163 924 q 396 981 278 981 q 654 964 488 981 q 876 950 807 950 q 1024 968 969 950 q 989 1016 1003 988 q 975 1078 975 1044 q 1005 1160 975 1128 q 1085 1192 1035 1192 z "},"Ŧ":{"ha":946,"x_min":119,"x_max":1192,"o":"m 1085 1192 q 1163 1163 1133 1192 q 1192 1094 1192 1135 q 1096 963 1192 1010 q 864 922 1011 922 q 783 925 839 922 l 579 161 q 568 97 568 119 q 594 46 568 61 q 683 28 619 31 l 678 0 q 421 4 590 4 q 176 0 256 4 l 182 28 q 274 42 242 31 q 326 81 307 54 q 358 161 344 108 l 568 946 q 401 956 464 956 q 244 932 286 956 q 304 891 281 921 q 328 819 328 861 q 297 737 328 771 q 219 703 267 703 q 147 734 174 703 q 119 813 119 765 q 141 888 119 851 q 210 947 163 924 q 396 981 278 981 q 654 964 488 981 q 876 950 807 950 q 1024 968 969 950 q 989 1016 1003 988 q 975 1078 975 1044 q 1005 1160 975 1128 q 1085 1192 1035 1192 m 836 474 l 247 474 l 256 508 l 844 508 l 836 474 z "},"Ť":{"ha":946,"x_min":119,"x_max":1192,"o":"m 1085 1192 q 1163 1163 1133 1192 q 1192 1094 1192 1135 q 1096 963 1192 1010 q 864 922 1011 922 q 783 925 839 922 l 579 161 q 568 97 568 119 q 594 46 568 61 q 683 28 619 31 l 678 0 q 421 4 590 4 q 176 0 256 4 l 182 28 q 274 42 242 31 q 326 81 307 54 q 358 161 344 108 l 568 946 q 401 956 464 956 q 244 932 286 956 q 304 891 281 921 q 328 819 328 861 q 297 737 328 771 q 219 703 267 703 q 147 734 174 703 q 119 813 119 765 q 141 888 119 851 q 210 947 163 924 q 396 981 278 981 q 654 964 488 981 q 876 950 807 950 q 1024 968 969 950 q 989 1016 1003 988 q 975 1078 975 1044 q 1005 1160 975 1128 q 1085 1192 1035 1192 m 757 1219 q 1058 1301 903 1272 l 1065 1282 q 850 1188 950 1246 q 689 1067 750 1131 l 664 1067 q 588 1195 632 1144 q 471 1282 544 1246 l 476 1301 q 626 1267 567 1286 q 757 1219 686 1249 z "},"Ţ":{"ha":946,"x_min":119,"x_max":1192,"o":"m 1085 1192 q 1163 1163 1133 1192 q 1192 1094 1192 1135 q 1096 963 1192 1010 q 864 922 1011 922 q 783 925 839 922 l 579 161 q 568 97 568 119 q 594 46 568 61 q 683 28 619 31 l 678 0 q 421 4 590 4 q 176 0 256 4 l 182 28 q 274 42 242 31 q 326 81 307 54 q 358 161 344 108 l 568 946 q 401 956 464 956 q 244 932 286 956 q 304 891 281 921 q 328 819 328 861 q 297 737 328 771 q 219 703 267 703 q 147 734 174 703 q 119 813 119 765 q 141 888 119 851 q 210 947 163 924 q 396 981 278 981 q 654 964 488 981 q 876 950 807 950 q 1024 968 969 950 q 989 1016 1003 988 q 975 1078 975 1044 q 1005 1160 975 1128 q 1085 1192 1035 1192 m 400 -87 q 481 -74 439 -74 q 549 -91 524 -74 q 574 -140 574 -108 q 502 -231 574 -201 q 338 -261 431 -261 q 250 -253 290 -261 q 186 -233 210 -244 l 194 -212 q 307 -228 250 -228 q 392 -214 353 -228 q 432 -164 432 -200 q 388 -132 432 -132 q 339 -142 363 -132 l 406 8 l 443 8 l 400 -87 z "},"Ț":{"ha":946,"x_min":119,"x_max":1192,"o":"m 1085 1192 q 1163 1163 1133 1192 q 1192 1094 1192 1135 q 1096 963 1192 1010 q 864 922 1011 922 q 783 925 839 922 l 579 161 q 568 97 568 119 q 594 46 568 61 q 683 28 619 31 l 678 0 q 421 4 590 4 q 176 0 256 4 l 182 28 q 274 42 242 31 q 326 81 307 54 q 358 161 344 108 l 568 946 q 401 956 464 956 q 244 932 286 956 q 304 891 281 921 q 328 819 328 861 q 297 737 328 771 q 219 703 267 703 q 147 734 174 703 q 119 813 119 765 q 141 888 119 851 q 210 947 163 924 q 396 981 278 981 q 654 964 488 981 q 876 950 807 950 q 1024 968 969 950 q 989 1016 1003 988 q 975 1078 975 1044 q 1005 1160 975 1128 q 1085 1192 1035 1192 m 403 -74 q 469 -96 442 -74 q 497 -158 497 -118 q 447 -275 497 -228 q 306 -335 397 -322 l 303 -308 q 395 -281 357 -303 q 440 -228 433 -260 q 361 -251 407 -251 q 278 -183 278 -251 q 313 -106 278 -137 q 403 -74 349 -74 z "},"U":{"ha":964,"x_min":104,"x_max":1088,"o":"m 893 756 q 915 874 915 838 q 892 931 915 914 q 810 956 868 949 l 817 983 q 965 979 868 979 q 1088 983 1042 979 l 1081 956 q 1007 932 1033 949 q 963 879 981 915 q 928 772 946 843 l 833 404 q 697 110 783 213 q 572 15 646 50 q 413 -19 497 -19 q 243 9 311 -19 q 142 90 175 38 q 104 219 104 144 q 135 400 104 286 l 250 836 q 261 903 261 883 q 241 943 261 933 q 168 956 221 953 l 176 983 q 406 979 247 979 q 621 983 535 979 l 613 956 q 537 944 561 953 q 498 913 513 936 q 469 836 483 889 l 347 376 q 314 174 314 254 q 344 65 314 101 q 439 29 375 29 q 669 124 585 29 q 797 389 753 218 l 893 756 z "},"Ú":{"ha":964,"x_min":104,"x_max":1088,"o":"m 893 756 q 915 874 915 838 q 892 931 915 914 q 810 956 868 949 l 817 983 q 965 979 868 979 q 1088 983 1042 979 l 1081 956 q 1007 932 1033 949 q 963 879 981 915 q 928 772 946 843 l 833 404 q 697 110 783 213 q 572 15 646 50 q 413 -19 497 -19 q 243 9 311 -19 q 142 90 175 38 q 104 219 104 144 q 135 400 104 286 l 250 836 q 261 903 261 883 q 241 943 261 933 q 168 956 221 953 l 176 983 q 406 979 247 979 q 621 983 535 979 l 613 956 q 537 944 561 953 q 498 913 513 936 q 469 836 483 889 l 347 376 q 314 174 314 254 q 344 65 314 101 q 439 29 375 29 q 669 124 585 29 q 797 389 753 218 l 893 756 m 658 1089 q 754 1171 713 1132 q 804 1217 796 1210 q 872 1277 847 1257 q 922 1313 896 1297 q 982 1328 949 1328 q 1049 1290 1031 1328 q 1056 1263 1056 1278 q 1039 1219 1056 1239 q 993 1183 1022 1199 q 934 1158 969 1171 q 860 1135 899 1146 q 668 1072 756 1107 l 658 1089 z "},"Ŭ":{"ha":964,"x_min":104,"x_max":1088,"o":"m 893 756 q 915 874 915 838 q 892 931 915 914 q 810 956 868 949 l 817 983 q 965 979 868 979 q 1088 983 1042 979 l 1081 956 q 1007 932 1033 949 q 963 879 981 915 q 928 772 946 843 l 833 404 q 697 110 783 213 q 572 15 646 50 q 413 -19 497 -19 q 243 9 311 -19 q 142 90 175 38 q 104 219 104 144 q 135 400 104 286 l 250 836 q 261 903 261 883 q 241 943 261 933 q 168 956 221 953 l 176 983 q 406 979 247 979 q 621 983 535 979 l 613 956 q 537 944 561 953 q 498 913 513 936 q 469 836 483 889 l 347 376 q 314 174 314 254 q 344 65 314 101 q 439 29 375 29 q 669 124 585 29 q 797 389 753 218 l 893 756 m 708 1207 q 1025 1286 892 1207 l 1040 1272 q 881 1131 982 1192 q 681 1071 779 1071 q 533 1126 589 1071 q 461 1271 478 1182 l 482 1281 q 574 1224 522 1240 q 708 1207 626 1207 z "},"Ǔ":{"ha":964,"x_min":104,"x_max":1088,"o":"m 893 756 q 915 874 915 838 q 892 931 915 914 q 810 956 868 949 l 817 983 q 965 979 868 979 q 1088 983 1042 979 l 1081 956 q 1007 932 1033 949 q 963 879 981 915 q 928 772 946 843 l 833 404 q 697 110 783 213 q 572 15 646 50 q 413 -19 497 -19 q 243 9 311 -19 q 142 90 175 38 q 104 219 104 144 q 135 400 104 286 l 250 836 q 261 903 261 883 q 241 943 261 933 q 168 956 221 953 l 176 983 q 406 979 247 979 q 621 983 535 979 l 613 956 q 537 944 561 953 q 498 913 513 936 q 469 836 483 889 l 347 376 q 314 174 314 254 q 344 65 314 101 q 439 29 375 29 q 669 124 585 29 q 797 389 753 218 l 893 756 m 768 1219 q 1069 1301 914 1272 l 1076 1282 q 861 1188 961 1246 q 700 1067 761 1131 l 675 1067 q 599 1195 643 1144 q 482 1282 556 1246 l 488 1301 q 638 1267 578 1286 q 768 1219 697 1249 z "},"Û":{"ha":964,"x_min":104,"x_max":1088,"o":"m 893 756 q 915 874 915 838 q 892 931 915 914 q 810 956 868 949 l 817 983 q 965 979 868 979 q 1088 983 1042 979 l 1081 956 q 1007 932 1033 949 q 963 879 981 915 q 928 772 946 843 l 833 404 q 697 110 783 213 q 572 15 646 50 q 413 -19 497 -19 q 243 9 311 -19 q 142 90 175 38 q 104 219 104 144 q 135 400 104 286 l 250 836 q 261 903 261 883 q 241 943 261 933 q 168 956 221 953 l 176 983 q 406 979 247 979 q 621 983 535 979 l 613 956 q 537 944 561 953 q 498 913 513 936 q 469 836 483 889 l 347 376 q 314 174 314 254 q 344 65 314 101 q 439 29 375 29 q 669 124 585 29 q 797 389 753 218 l 893 756 m 688 1153 q 385 1071 543 1100 l 378 1090 q 593 1184 493 1126 q 754 1306 693 1242 l 779 1306 q 855 1177 811 1228 q 972 1090 899 1126 l 967 1071 q 816 1105 876 1086 q 688 1153 756 1124 z "},"Ü":{"ha":964,"x_min":104,"x_max":1088,"o":"m 893 756 q 915 874 915 838 q 892 931 915 914 q 810 956 868 949 l 817 983 q 965 979 868 979 q 1088 983 1042 979 l 1081 956 q 1007 932 1033 949 q 963 879 981 915 q 928 772 946 843 l 833 404 q 697 110 783 213 q 572 15 646 50 q 413 -19 497 -19 q 243 9 311 -19 q 142 90 175 38 q 104 219 104 144 q 135 400 104 286 l 250 836 q 261 903 261 883 q 241 943 261 933 q 168 956 221 953 l 176 983 q 406 979 247 979 q 621 983 535 979 l 613 956 q 537 944 561 953 q 498 913 513 936 q 469 836 483 889 l 347 376 q 314 174 314 254 q 344 65 314 101 q 439 29 375 29 q 669 124 585 29 q 797 389 753 218 l 893 756 m 433 1156 q 468 1242 433 1210 q 553 1274 503 1274 q 619 1248 596 1274 q 643 1181 643 1222 q 607 1095 643 1126 q 522 1064 571 1064 q 456 1089 479 1064 q 433 1156 433 1114 m 767 1156 q 801 1242 767 1210 q 886 1274 836 1274 q 953 1248 929 1274 q 976 1181 976 1222 q 940 1095 976 1126 q 856 1064 904 1064 q 789 1089 811 1064 q 767 1156 767 1114 z "},"Ụ":{"ha":964,"x_min":104,"x_max":1088,"o":"m 893 756 q 915 874 915 838 q 892 931 915 914 q 810 956 868 949 l 817 983 q 965 979 868 979 q 1088 983 1042 979 l 1081 956 q 1007 932 1033 949 q 963 879 981 915 q 928 772 946 843 l 833 404 q 697 110 783 213 q 572 15 646 50 q 413 -19 497 -19 q 243 9 311 -19 q 142 90 175 38 q 104 219 104 144 q 135 400 104 286 l 250 836 q 261 903 261 883 q 241 943 261 933 q 168 956 221 953 l 176 983 q 406 979 247 979 q 621 983 535 979 l 613 956 q 537 944 561 953 q 498 913 513 936 q 469 836 483 889 l 347 376 q 314 174 314 254 q 344 65 314 101 q 439 29 375 29 q 669 124 585 29 q 797 389 753 218 l 893 756 m 383 -260 q 317 -241 340 -260 q 293 -187 293 -222 q 326 -106 293 -136 q 415 -76 360 -76 q 482 -95 458 -76 q 506 -149 506 -114 q 472 -230 506 -200 q 383 -260 438 -260 z "},"Ù":{"ha":964,"x_min":104,"x_max":1088,"o":"m 893 756 q 915 874 915 838 q 892 931 915 914 q 810 956 868 949 l 817 983 q 965 979 868 979 q 1088 983 1042 979 l 1081 956 q 1007 932 1033 949 q 963 879 981 915 q 928 772 946 843 l 833 404 q 697 110 783 213 q 572 15 646 50 q 413 -19 497 -19 q 243 9 311 -19 q 142 90 175 38 q 104 219 104 144 q 135 400 104 286 l 250 836 q 261 903 261 883 q 241 943 261 933 q 168 956 221 953 l 176 983 q 406 979 247 979 q 621 983 535 979 l 613 956 q 537 944 561 953 q 498 913 513 936 q 469 836 483 889 l 347 376 q 314 174 314 254 q 344 65 314 101 q 439 29 375 29 q 669 124 585 29 q 797 389 753 218 l 893 756 m 744 1071 q 578 1136 668 1106 q 535 1152 568 1140 q 479 1179 503 1164 q 448 1210 460 1190 q 436 1250 436 1229 q 446 1285 436 1269 q 508 1318 465 1318 q 561 1303 538 1318 q 595 1274 581 1290 q 638 1222 610 1257 q 676 1173 644 1214 q 756 1086 708 1132 l 744 1071 z "},"Ủ":{"ha":964,"x_min":104,"x_max":1088,"o":"m 893 756 q 915 874 915 838 q 892 931 915 914 q 810 956 868 949 l 817 983 q 965 979 868 979 q 1088 983 1042 979 l 1081 956 q 1007 932 1033 949 q 963 879 981 915 q 928 772 946 843 l 833 404 q 697 110 783 213 q 572 15 646 50 q 413 -19 497 -19 q 243 9 311 -19 q 142 90 175 38 q 104 219 104 144 q 135 400 104 286 l 250 836 q 261 903 261 883 q 241 943 261 933 q 168 956 221 953 l 176 983 q 406 979 247 979 q 621 983 535 979 l 613 956 q 537 944 561 953 q 498 913 513 936 q 469 836 483 889 l 347 376 q 314 174 314 254 q 344 65 314 101 q 439 29 375 29 q 669 124 585 29 q 797 389 753 218 l 893 756 m 669 1032 q 690 1092 675 1069 q 733 1143 706 1115 q 774 1191 761 1169 q 788 1247 788 1213 q 704 1329 788 1329 q 642 1314 661 1329 q 690 1244 690 1293 q 666 1190 690 1211 q 606 1168 642 1168 q 555 1185 574 1168 q 536 1232 536 1203 q 617 1328 536 1290 q 754 1356 675 1356 q 872 1331 828 1356 q 917 1254 917 1306 q 892 1192 917 1214 q 814 1146 867 1171 q 733 1099 761 1122 q 697 1032 704 1075 l 669 1032 z "},"Ư":{"ha":964,"x_min":106,"x_max":1194,"o":"m 1096 1215 q 1166 1188 1138 1215 q 1194 1117 1194 1160 q 1170 1047 1194 1078 q 1106 994 1146 1015 q 974 951 1040 958 l 832 404 q 697 110 782 208 q 399 -19 586 -19 q 244 9 311 -19 q 142 90 178 38 q 106 219 106 140 q 135 400 106 292 l 250 836 q 261 901 261 881 q 241 942 261 932 q 168 956 221 953 l 176 983 q 400 979 247 979 q 621 983 535 979 l 613 956 q 537 944 561 953 q 498 913 513 936 q 469 836 483 889 l 347 376 q 313 174 313 246 q 347 64 313 99 q 456 29 382 29 q 670 126 586 29 q 797 389 754 224 l 942 951 l 897 950 q 808 956 847 950 l 815 983 q 917 978 888 978 q 1005 984 969 978 q 1072 1010 1040 990 q 1021 1056 1042 1028 q 1000 1118 1000 1083 q 1027 1188 1000 1161 q 1096 1215 1054 1215 z "},"Ứ":{"ha":964,"x_min":106,"x_max":1194,"o":"m 1096 1215 q 1166 1188 1138 1215 q 1194 1117 1194 1160 q 1170 1047 1194 1078 q 1106 994 1146 1015 q 974 951 1040 958 l 832 404 q 697 110 782 208 q 399 -19 586 -19 q 244 9 311 -19 q 142 90 178 38 q 106 219 106 140 q 135 400 106 292 l 250 836 q 261 901 261 881 q 241 942 261 932 q 168 956 221 953 l 176 983 q 400 979 247 979 q 621 983 535 979 l 613 956 q 537 944 561 953 q 498 913 513 936 q 469 836 483 889 l 347 376 q 313 174 313 246 q 347 64 313 99 q 456 29 382 29 q 670 126 586 29 q 797 389 754 224 l 942 951 l 897 950 q 808 956 847 950 l 815 983 q 917 978 888 978 q 1005 984 969 978 q 1072 1010 1040 990 q 1021 1056 1042 1028 q 1000 1118 1000 1083 q 1027 1188 1000 1161 q 1096 1215 1054 1215 m 658 1089 q 754 1171 713 1132 q 804 1217 796 1210 q 872 1277 847 1257 q 922 1313 896 1297 q 982 1328 949 1328 q 1049 1290 1031 1328 q 1056 1263 1056 1278 q 1039 1219 1056 1239 q 993 1183 1022 1199 q 934 1158 969 1171 q 860 1135 899 1146 q 668 1072 756 1107 l 658 1089 z "},"Ự":{"ha":964,"x_min":106,"x_max":1194,"o":"m 1096 1215 q 1166 1188 1138 1215 q 1194 1117 1194 1160 q 1170 1047 1194 1078 q 1106 994 1146 1015 q 974 951 1040 958 l 832 404 q 697 110 782 208 q 399 -19 586 -19 q 244 9 311 -19 q 142 90 178 38 q 106 219 106 140 q 135 400 106 292 l 250 836 q 261 901 261 881 q 241 942 261 932 q 168 956 221 953 l 176 983 q 400 979 247 979 q 621 983 535 979 l 613 956 q 537 944 561 953 q 498 913 513 936 q 469 836 483 889 l 347 376 q 313 174 313 246 q 347 64 313 99 q 456 29 382 29 q 670 126 586 29 q 797 389 754 224 l 942 951 l 897 950 q 808 956 847 950 l 815 983 q 917 978 888 978 q 1005 984 969 978 q 1072 1010 1040 990 q 1021 1056 1042 1028 q 1000 1118 1000 1083 q 1027 1188 1000 1161 q 1096 1215 1054 1215 m 383 -260 q 317 -241 340 -260 q 293 -187 293 -222 q 326 -106 293 -136 q 415 -76 360 -76 q 482 -95 458 -76 q 506 -149 506 -114 q 472 -230 506 -200 q 383 -260 438 -260 z "},"Ừ":{"ha":964,"x_min":106,"x_max":1194,"o":"m 1096 1215 q 1166 1188 1138 1215 q 1194 1117 1194 1160 q 1170 1047 1194 1078 q 1106 994 1146 1015 q 974 951 1040 958 l 832 404 q 697 110 782 208 q 399 -19 586 -19 q 244 9 311 -19 q 142 90 178 38 q 106 219 106 140 q 135 400 106 292 l 250 836 q 261 901 261 881 q 241 942 261 932 q 168 956 221 953 l 176 983 q 400 979 247 979 q 621 983 535 979 l 613 956 q 537 944 561 953 q 498 913 513 936 q 469 836 483 889 l 347 376 q 313 174 313 246 q 347 64 313 99 q 456 29 382 29 q 670 126 586 29 q 797 389 754 224 l 942 951 l 897 950 q 808 956 847 950 l 815 983 q 917 978 888 978 q 1005 984 969 978 q 1072 1010 1040 990 q 1021 1056 1042 1028 q 1000 1118 1000 1083 q 1027 1188 1000 1161 q 1096 1215 1054 1215 m 744 1071 q 578 1136 668 1106 q 535 1152 568 1140 q 479 1179 503 1164 q 448 1210 460 1190 q 436 1250 436 1229 q 446 1285 436 1269 q 508 1318 465 1318 q 561 1303 538 1318 q 595 1274 581 1290 q 638 1222 610 1257 q 676 1173 644 1214 q 756 1086 708 1132 l 744 1071 z "},"Ử":{"ha":964,"x_min":106,"x_max":1194,"o":"m 1096 1215 q 1166 1188 1138 1215 q 1194 1117 1194 1160 q 1170 1047 1194 1078 q 1106 994 1146 1015 q 974 951 1040 958 l 832 404 q 697 110 782 208 q 399 -19 586 -19 q 244 9 311 -19 q 142 90 178 38 q 106 219 106 140 q 135 400 106 292 l 250 836 q 261 901 261 881 q 241 942 261 932 q 168 956 221 953 l 176 983 q 400 979 247 979 q 621 983 535 979 l 613 956 q 537 944 561 953 q 498 913 513 936 q 469 836 483 889 l 347 376 q 313 174 313 246 q 347 64 313 99 q 456 29 382 29 q 670 126 586 29 q 797 389 754 224 l 942 951 l 897 950 q 808 956 847 950 l 815 983 q 917 978 888 978 q 1005 984 969 978 q 1072 1010 1040 990 q 1021 1056 1042 1028 q 1000 1118 1000 1083 q 1027 1188 1000 1161 q 1096 1215 1054 1215 m 669 1032 q 690 1092 675 1069 q 733 1143 706 1115 q 774 1191 761 1169 q 788 1247 788 1213 q 704 1329 788 1329 q 642 1314 661 1329 q 690 1244 690 1293 q 666 1190 690 1211 q 606 1168 642 1168 q 555 1185 574 1168 q 536 1232 536 1203 q 617 1328 536 1290 q 754 1356 675 1356 q 872 1331 828 1356 q 917 1254 917 1306 q 892 1192 917 1214 q 814 1146 867 1171 q 733 1099 761 1122 q 697 1032 704 1075 l 669 1032 z "},"Ữ":{"ha":964,"x_min":106,"x_max":1194,"o":"m 1096 1215 q 1166 1188 1138 1215 q 1194 1117 1194 1160 q 1170 1047 1194 1078 q 1106 994 1146 1015 q 974 951 1040 958 l 832 404 q 697 110 782 208 q 399 -19 586 -19 q 244 9 311 -19 q 142 90 178 38 q 106 219 106 140 q 135 400 106 292 l 250 836 q 261 901 261 881 q 241 942 261 932 q 168 956 221 953 l 176 983 q 400 979 247 979 q 621 983 535 979 l 613 956 q 537 944 561 953 q 498 913 513 936 q 469 836 483 889 l 347 376 q 313 174 313 246 q 347 64 313 99 q 456 29 382 29 q 670 126 586 29 q 797 389 754 224 l 942 951 l 897 950 q 808 956 847 950 l 815 983 q 917 978 888 978 q 1005 984 969 978 q 1072 1010 1040 990 q 1021 1056 1042 1028 q 1000 1118 1000 1083 q 1027 1188 1000 1161 q 1096 1215 1054 1215 m 636 1288 q 717 1273 685 1288 q 789 1232 750 1258 q 845 1197 822 1208 q 900 1186 868 1186 q 956 1205 931 1186 q 1007 1267 982 1224 l 1032 1260 q 932 1115 994 1163 q 801 1067 869 1067 q 719 1081 751 1067 q 647 1124 688 1096 q 592 1157 614 1146 q 538 1168 569 1168 q 481 1149 507 1168 q 431 1088 456 1131 l 406 1094 q 505 1240 443 1192 q 636 1288 567 1288 z "},"Ű":{"ha":964,"x_min":104,"x_max":1088,"o":"m 893 756 q 915 874 915 838 q 892 931 915 914 q 810 956 868 949 l 817 983 q 965 979 868 979 q 1088 983 1042 979 l 1081 956 q 1007 932 1033 949 q 963 879 981 915 q 928 772 946 843 l 833 404 q 697 110 783 213 q 572 15 646 50 q 413 -19 497 -19 q 243 9 311 -19 q 142 90 175 38 q 104 219 104 144 q 135 400 104 286 l 250 836 q 261 903 261 883 q 241 943 261 933 q 168 956 221 953 l 176 983 q 406 979 247 979 q 621 983 535 979 l 613 956 q 537 944 561 953 q 498 913 513 936 q 469 836 483 889 l 347 376 q 314 174 314 254 q 344 65 314 101 q 439 29 375 29 q 669 124 585 29 q 797 389 753 218 l 893 756 m 457 1088 q 550 1200 488 1121 q 600 1261 581 1239 q 640 1299 619 1283 q 693 1315 667 1315 q 756 1282 733 1315 q 765 1247 765 1267 q 753 1208 765 1228 q 721 1175 742 1189 q 672 1150 699 1161 q 601 1124 646 1139 q 468 1072 518 1094 l 457 1088 m 750 1088 q 843 1200 781 1121 q 893 1261 874 1239 q 933 1299 913 1283 q 985 1315 960 1315 q 1047 1282 1025 1315 q 1058 1247 1058 1267 q 1046 1208 1058 1228 q 1014 1175 1033 1189 q 965 1150 992 1161 q 894 1124 939 1139 q 761 1072 811 1094 l 750 1088 z "},"Ū":{"ha":964,"x_min":104,"x_max":1088,"o":"m 893 756 q 915 874 915 838 q 892 931 915 914 q 810 956 868 949 l 817 983 q 965 979 868 979 q 1088 983 1042 979 l 1081 956 q 1007 932 1033 949 q 963 879 981 915 q 928 772 946 843 l 833 404 q 697 110 783 213 q 572 15 646 50 q 413 -19 497 -19 q 243 9 311 -19 q 142 90 175 38 q 104 219 104 144 q 135 400 104 286 l 250 836 q 261 903 261 883 q 241 943 261 933 q 168 956 221 953 l 176 983 q 406 979 247 979 q 621 983 535 979 l 613 956 q 537 944 561 953 q 498 913 513 936 q 469 836 483 889 l 347 376 q 314 174 314 254 q 344 65 314 101 q 439 29 375 29 q 669 124 585 29 q 797 389 753 218 l 893 756 m 957 1138 l 401 1138 l 410 1172 l 965 1172 l 957 1138 z "},"Ų":{"ha":964,"x_min":104,"x_max":1088,"o":"m 893 756 q 915 874 915 838 q 892 931 915 914 q 810 956 868 949 l 817 983 q 965 979 868 979 q 1088 983 1042 979 l 1081 956 q 1007 932 1033 949 q 963 879 981 915 q 928 772 946 843 l 833 404 q 697 110 783 213 q 572 15 646 50 q 413 -19 497 -19 q 243 9 311 -19 q 142 90 175 38 q 104 219 104 144 q 135 400 104 286 l 250 836 q 261 903 261 883 q 241 943 261 933 q 168 956 221 953 l 176 983 q 406 979 247 979 q 621 983 535 979 l 613 956 q 537 944 561 953 q 498 913 513 936 q 469 836 483 889 l 347 376 q 314 174 314 254 q 344 65 314 101 q 439 29 375 29 q 669 124 585 29 q 797 389 753 218 l 893 756 m 542 4 q 437 -62 478 -19 q 396 -150 396 -104 q 442 -192 396 -192 q 543 -161 489 -192 l 558 -185 q 357 -261 464 -261 q 270 -239 301 -261 q 239 -178 239 -217 q 317 -70 239 -117 q 506 4 394 -24 l 542 4 z "},"Ů":{"ha":964,"x_min":104,"x_max":1088,"o":"m 893 756 q 915 874 915 838 q 892 931 915 914 q 810 956 868 949 l 817 983 q 965 979 868 979 q 1088 983 1042 979 l 1081 956 q 1007 932 1033 949 q 963 879 981 915 q 928 772 946 843 l 833 404 q 697 110 783 213 q 572 15 646 50 q 413 -19 497 -19 q 243 9 311 -19 q 142 90 175 38 q 104 219 104 144 q 135 400 104 286 l 250 836 q 261 903 261 883 q 241 943 261 933 q 168 956 221 953 l 176 983 q 406 979 247 979 q 621 983 535 979 l 613 956 q 537 944 561 953 q 498 913 513 936 q 469 836 483 889 l 347 376 q 314 174 314 254 q 344 65 314 101 q 439 29 375 29 q 669 124 585 29 q 797 389 753 218 l 893 756 m 719 1301 q 817 1269 778 1301 q 856 1183 856 1236 q 831 1107 856 1142 q 767 1051 807 1072 q 683 1031 728 1031 q 588 1063 625 1031 q 551 1150 551 1094 q 600 1258 551 1214 q 719 1301 649 1301 m 689 1060 q 780 1095 740 1060 q 819 1182 819 1131 q 788 1249 819 1225 q 715 1272 757 1272 q 626 1235 664 1272 q 589 1150 589 1199 q 619 1084 589 1108 q 689 1060 649 1060 z "},"Ũ":{"ha":964,"x_min":104,"x_max":1088,"o":"m 893 756 q 915 874 915 838 q 892 931 915 914 q 810 956 868 949 l 817 983 q 965 979 868 979 q 1088 983 1042 979 l 1081 956 q 1007 932 1033 949 q 963 879 981 915 q 928 772 946 843 l 833 404 q 697 110 783 213 q 572 15 646 50 q 413 -19 497 -19 q 243 9 311 -19 q 142 90 175 38 q 104 219 104 144 q 135 400 104 286 l 250 836 q 261 903 261 883 q 241 943 261 933 q 168 956 221 953 l 176 983 q 406 979 247 979 q 621 983 535 979 l 613 956 q 537 944 561 953 q 498 913 513 936 q 469 836 483 889 l 347 376 q 314 174 314 254 q 344 65 314 101 q 439 29 375 29 q 669 124 585 29 q 797 389 753 218 l 893 756 m 636 1288 q 717 1273 685 1288 q 789 1232 750 1258 q 845 1197 822 1208 q 900 1186 868 1186 q 956 1205 931 1186 q 1007 1267 982 1224 l 1032 1260 q 932 1115 994 1163 q 801 1067 869 1067 q 719 1081 751 1067 q 647 1124 688 1096 q 592 1157 614 1146 q 538 1168 569 1168 q 481 1149 507 1168 q 431 1088 456 1131 l 406 1094 q 505 1240 443 1192 q 636 1288 567 1288 z "},"V":{"ha":918,"x_min":128,"x_max":1083,"o":"m 979 979 q 1083 983 1039 979 l 1076 956 q 994 912 1031 943 q 911 808 957 881 l 381 -7 l 346 -6 l 310 -7 l 200 867 q 173 933 194 913 q 128 956 151 954 l 135 983 q 335 979 206 979 q 547 983 475 979 l 540 956 q 453 937 478 953 q 428 872 428 921 q 429 839 428 851 l 499 224 l 864 785 q 906 888 906 849 q 876 937 906 921 q 790 956 847 953 l 797 983 q 979 979 851 979 z "},"W":{"ha":1364,"x_min":119,"x_max":1515,"o":"m 1410 979 q 1515 983 1472 979 l 1508 956 q 1422 912 1460 942 q 1344 808 1385 882 l 907 -7 l 835 -7 l 749 613 l 375 -7 l 303 -7 l 193 867 q 167 934 188 914 q 119 956 146 954 l 126 983 q 321 979 194 979 q 501 983 439 979 l 494 956 q 438 936 454 953 q 421 874 421 919 q 422 839 421 851 l 489 236 l 743 654 l 714 867 q 692 933 708 913 q 654 956 675 954 l 661 983 q 842 979 726 979 q 1058 983 986 979 l 1051 956 q 965 937 989 953 q 940 876 940 921 q 943 839 940 867 l 1017 258 l 1303 785 q 1338 888 1338 850 q 1309 938 1338 922 q 1221 956 1281 953 l 1228 983 q 1410 979 1285 979 z "},"Ẃ":{"ha":1364,"x_min":119,"x_max":1515,"o":"m 1410 979 q 1515 983 1472 979 l 1508 956 q 1422 912 1460 942 q 1344 808 1385 882 l 907 -7 l 835 -7 l 749 613 l 375 -7 l 303 -7 l 193 867 q 167 934 188 914 q 119 956 146 954 l 126 983 q 321 979 194 979 q 501 983 439 979 l 494 956 q 438 936 454 953 q 421 874 421 919 q 422 839 421 851 l 489 236 l 743 654 l 714 867 q 692 933 708 913 q 654 956 675 954 l 661 983 q 842 979 726 979 q 1058 983 986 979 l 1051 956 q 965 937 989 953 q 940 876 940 921 q 943 839 940 867 l 1017 258 l 1303 785 q 1338 888 1338 850 q 1309 938 1338 922 q 1221 956 1281 953 l 1228 983 q 1410 979 1285 979 m 850 1086 q 946 1168 904 1129 q 996 1214 988 1207 q 1063 1274 1039 1254 q 1114 1310 1088 1294 q 1174 1325 1140 1325 q 1240 1288 1222 1325 q 1247 1260 1247 1275 q 1231 1216 1247 1236 q 1185 1181 1214 1196 q 1126 1156 1161 1168 q 1051 1132 1090 1143 q 860 1069 947 1104 l 850 1086 z "},"Ŵ":{"ha":1364,"x_min":119,"x_max":1515,"o":"m 1410 979 q 1515 983 1472 979 l 1508 956 q 1422 912 1460 942 q 1344 808 1385 882 l 907 -7 l 835 -7 l 749 613 l 375 -7 l 303 -7 l 193 867 q 167 934 188 914 q 119 956 146 954 l 126 983 q 321 979 194 979 q 501 983 439 979 l 494 956 q 438 936 454 953 q 421 874 421 919 q 422 839 421 851 l 489 236 l 743 654 l 714 867 q 692 933 708 913 q 654 956 675 954 l 661 983 q 842 979 726 979 q 1058 983 986 979 l 1051 956 q 965 937 989 953 q 940 876 940 921 q 943 839 940 867 l 1017 258 l 1303 785 q 1338 888 1338 850 q 1309 938 1338 922 q 1221 956 1281 953 l 1228 983 q 1410 979 1285 979 m 879 1150 q 576 1068 735 1097 l 569 1088 q 785 1181 685 1124 q 946 1303 885 1239 l 971 1303 q 1047 1174 1003 1225 q 1164 1088 1090 1124 l 1158 1068 q 1008 1102 1068 1083 q 879 1150 947 1121 z "},"Ẅ":{"ha":1364,"x_min":119,"x_max":1515,"o":"m 1410 979 q 1515 983 1472 979 l 1508 956 q 1422 912 1460 942 q 1344 808 1385 882 l 907 -7 l 835 -7 l 749 613 l 375 -7 l 303 -7 l 193 867 q 167 934 188 914 q 119 956 146 954 l 126 983 q 321 979 194 979 q 501 983 439 979 l 494 956 q 438 936 454 953 q 421 874 421 919 q 422 839 421 851 l 489 236 l 743 654 l 714 867 q 692 933 708 913 q 654 956 675 954 l 661 983 q 842 979 726 979 q 1058 983 986 979 l 1051 956 q 965 937 989 953 q 940 876 940 921 q 943 839 940 867 l 1017 258 l 1303 785 q 1338 888 1338 850 q 1309 938 1338 922 q 1221 956 1281 953 l 1228 983 q 1410 979 1285 979 m 625 1153 q 660 1239 625 1207 q 744 1271 694 1271 q 811 1245 788 1271 q 835 1178 835 1219 q 799 1092 835 1124 q 714 1061 763 1061 q 648 1086 671 1061 q 625 1153 625 1111 m 958 1153 q 993 1239 958 1207 q 1078 1271 1028 1271 q 1144 1245 1121 1271 q 1168 1178 1168 1219 q 1132 1092 1168 1124 q 1047 1061 1096 1061 q 981 1086 1003 1061 q 958 1153 958 1111 z "},"Ẁ":{"ha":1364,"x_min":119,"x_max":1515,"o":"m 1410 979 q 1515 983 1472 979 l 1508 956 q 1422 912 1460 942 q 1344 808 1385 882 l 907 -7 l 835 -7 l 749 613 l 375 -7 l 303 -7 l 193 867 q 167 934 188 914 q 119 956 146 954 l 126 983 q 321 979 194 979 q 501 983 439 979 l 494 956 q 438 936 454 953 q 421 874 421 919 q 422 839 421 851 l 489 236 l 743 654 l 714 867 q 692 933 708 913 q 654 956 675 954 l 661 983 q 842 979 726 979 q 1058 983 986 979 l 1051 956 q 965 937 989 953 q 940 876 940 921 q 943 839 940 867 l 1017 258 l 1303 785 q 1338 888 1338 850 q 1309 938 1338 922 q 1221 956 1281 953 l 1228 983 q 1410 979 1285 979 m 936 1068 q 769 1133 860 1103 q 727 1149 760 1138 q 671 1176 694 1161 q 640 1207 651 1188 q 628 1247 628 1226 q 638 1282 628 1267 q 700 1315 657 1315 q 753 1300 729 1315 q 787 1271 772 1288 q 829 1219 801 1254 q 868 1170 836 1211 q 947 1083 900 1129 l 936 1068 z "},"X":{"ha":1029,"x_min":-56,"x_max":1118,"o":"m 994 1003 q 1085 967 1053 1003 q 1118 876 1118 931 q 1083 780 1118 818 q 994 742 1049 742 q 928 767 951 742 q 904 835 904 792 q 935 918 906 881 q 1010 971 964 956 q 986 976 1003 976 q 896 944 939 976 q 776 806 843 903 q 646 568 710 708 l 692 174 q 717 104 699 129 q 771 79 736 79 q 826 99 804 79 q 865 165 849 119 l 889 236 l 917 236 l 881 129 q 805 16 853 51 q 688 -19 757 -19 q 533 37 581 -19 q 472 197 485 93 l 453 358 q 329 166 399 256 q 196 28 260 76 q 67 -19 135 -19 q -24 17 8 -19 q -56 107 -56 53 q -21 203 -56 165 q 68 242 14 242 q 133 217 110 242 q 157 151 157 193 q 128 66 157 104 q 53 13 100 28 q 76 7 58 7 q 168 39 119 7 q 303 175 228 81 q 447 403 379 269 l 397 814 q 319 911 386 911 q 265 889 288 911 q 225 818 242 867 l 201 747 l 174 747 l 210 854 q 288 967 238 932 q 413 1003 338 1003 q 559 947 513 1003 q 619 786 606 892 l 640 613 q 751 812 689 719 q 868 953 813 904 q 994 1003 931 1003 z "},"Y":{"ha":1019,"x_min":115,"x_max":1132,"o":"m 1003 1003 q 1097 969 1063 1003 q 1132 883 1132 935 q 1097 794 1132 831 q 1006 758 1061 758 q 935 781 960 758 q 910 843 910 804 q 940 923 911 889 q 1015 971 969 957 q 992 976 1008 976 q 908 944 950 976 q 767 773 846 900 q 624 460 688 646 l 544 147 q 536 92 536 114 q 560 43 536 56 q 643 28 583 31 l 636 0 q 397 4 557 4 q 174 0 247 4 l 181 28 q 256 39 231 31 q 296 72 281 47 q 324 147 311 96 l 399 446 q 338 768 376 636 q 239 900 299 900 q 201 883 215 900 q 175 835 186 867 l 146 747 l 115 747 l 150 854 q 226 968 176 933 q 346 1003 275 1003 q 488 947 436 1003 q 566 787 540 890 q 611 507 592 683 q 715 742 657 638 q 839 917 774 846 q 1003 1003 918 1003 z "},"Ý":{"ha":1019,"x_min":115,"x_max":1132,"o":"m 1003 1003 q 1097 969 1063 1003 q 1132 883 1132 935 q 1097 794 1132 831 q 1006 758 1061 758 q 935 781 960 758 q 910 843 910 804 q 940 923 911 889 q 1015 971 969 957 q 992 976 1008 976 q 908 944 950 976 q 767 773 846 900 q 624 460 688 646 l 544 147 q 536 92 536 114 q 560 43 536 56 q 643 28 583 31 l 636 0 q 397 4 557 4 q 174 0 247 4 l 181 28 q 256 39 231 31 q 296 72 281 47 q 324 147 311 96 l 399 446 q 338 768 376 636 q 239 900 299 900 q 201 883 215 900 q 175 835 186 867 l 146 747 l 115 747 l 150 854 q 226 968 176 933 q 346 1003 275 1003 q 488 947 436 1003 q 566 787 540 890 q 611 507 592 683 q 715 742 657 638 q 839 917 774 846 q 1003 1003 918 1003 m 649 1089 q 744 1171 703 1132 q 794 1217 786 1210 q 862 1277 838 1257 q 913 1313 886 1297 q 972 1328 939 1328 q 1039 1290 1021 1328 q 1046 1263 1046 1278 q 1029 1219 1046 1239 q 983 1183 1013 1199 q 924 1158 960 1171 q 850 1135 889 1146 q 658 1072 746 1107 l 649 1089 z "},"Ŷ":{"ha":1019,"x_min":115,"x_max":1132,"o":"m 1003 1003 q 1097 969 1063 1003 q 1132 883 1132 935 q 1097 794 1132 831 q 1006 758 1061 758 q 935 781 960 758 q 910 843 910 804 q 940 923 911 889 q 1015 971 969 957 q 992 976 1008 976 q 908 944 950 976 q 767 773 846 900 q 624 460 688 646 l 544 147 q 536 92 536 114 q 560 43 536 56 q 643 28 583 31 l 636 0 q 397 4 557 4 q 174 0 247 4 l 181 28 q 256 39 231 31 q 296 72 281 47 q 324 147 311 96 l 399 446 q 338 768 376 636 q 239 900 299 900 q 201 883 215 900 q 175 835 186 867 l 146 747 l 115 747 l 150 854 q 226 968 176 933 q 346 1003 275 1003 q 488 947 436 1003 q 566 787 540 890 q 611 507 592 683 q 715 742 657 638 q 839 917 774 846 q 1003 1003 918 1003 m 678 1153 q 375 1071 533 1100 l 368 1090 q 583 1184 483 1126 q 744 1306 683 1242 l 769 1306 q 845 1177 801 1228 q 963 1090 889 1126 l 957 1071 q 806 1105 867 1086 q 678 1153 746 1124 z "},"Ÿ":{"ha":1019,"x_min":115,"x_max":1132,"o":"m 1003 1003 q 1097 969 1063 1003 q 1132 883 1132 935 q 1097 794 1132 831 q 1006 758 1061 758 q 935 781 960 758 q 910 843 910 804 q 940 923 911 889 q 1015 971 969 957 q 992 976 1008 976 q 908 944 950 976 q 767 773 846 900 q 624 460 688 646 l 544 147 q 536 92 536 114 q 560 43 536 56 q 643 28 583 31 l 636 0 q 397 4 557 4 q 174 0 247 4 l 181 28 q 256 39 231 31 q 296 72 281 47 q 324 147 311 96 l 399 446 q 338 768 376 636 q 239 900 299 900 q 201 883 215 900 q 175 835 186 867 l 146 747 l 115 747 l 150 854 q 226 968 176 933 q 346 1003 275 1003 q 488 947 436 1003 q 566 787 540 890 q 611 507 592 683 q 715 742 657 638 q 839 917 774 846 q 1003 1003 918 1003 m 424 1156 q 458 1242 424 1210 q 543 1274 493 1274 q 610 1248 586 1274 q 633 1181 633 1222 q 597 1095 633 1126 q 513 1064 561 1064 q 447 1089 469 1064 q 424 1156 424 1114 m 757 1156 q 792 1242 757 1210 q 876 1274 826 1274 q 943 1248 919 1274 q 967 1181 967 1222 q 931 1095 967 1126 q 846 1064 894 1064 q 779 1089 801 1064 q 757 1156 757 1114 z "},"Ỵ":{"ha":1019,"x_min":115,"x_max":1132,"o":"m 1003 1003 q 1097 969 1063 1003 q 1132 883 1132 935 q 1097 794 1132 831 q 1006 758 1061 758 q 935 781 960 758 q 910 843 910 804 q 940 923 911 889 q 1015 971 969 957 q 992 976 1008 976 q 908 944 950 976 q 767 773 846 900 q 624 460 688 646 l 544 147 q 536 92 536 114 q 560 43 536 56 q 643 28 583 31 l 636 0 q 397 4 557 4 q 174 0 247 4 l 181 28 q 256 39 231 31 q 296 72 281 47 q 324 147 311 96 l 399 446 q 338 768 376 636 q 239 900 299 900 q 201 883 215 900 q 175 835 186 867 l 146 747 l 115 747 l 150 854 q 226 968 176 933 q 346 1003 275 1003 q 488 947 436 1003 q 566 787 540 890 q 611 507 592 683 q 715 742 657 638 q 839 917 774 846 q 1003 1003 918 1003 m 351 -260 q 285 -241 308 -260 q 261 -187 261 -222 q 294 -106 261 -136 q 383 -76 328 -76 q 450 -95 426 -76 q 474 -149 474 -114 q 440 -230 474 -200 q 351 -260 406 -260 z "},"Ỳ":{"ha":1019,"x_min":115,"x_max":1132,"o":"m 1003 1003 q 1097 969 1063 1003 q 1132 883 1132 935 q 1097 794 1132 831 q 1006 758 1061 758 q 935 781 960 758 q 910 843 910 804 q 940 923 911 889 q 1015 971 969 957 q 992 976 1008 976 q 908 944 950 976 q 767 773 846 900 q 624 460 688 646 l 544 147 q 536 92 536 114 q 560 43 536 56 q 643 28 583 31 l 636 0 q 397 4 557 4 q 174 0 247 4 l 181 28 q 256 39 231 31 q 296 72 281 47 q 324 147 311 96 l 399 446 q 338 768 376 636 q 239 900 299 900 q 201 883 215 900 q 175 835 186 867 l 146 747 l 115 747 l 150 854 q 226 968 176 933 q 346 1003 275 1003 q 488 947 436 1003 q 566 787 540 890 q 611 507 592 683 q 715 742 657 638 q 839 917 774 846 q 1003 1003 918 1003 m 735 1071 q 568 1136 658 1106 q 526 1152 558 1140 q 469 1179 493 1164 q 438 1210 450 1190 q 426 1250 426 1229 q 436 1285 426 1269 q 499 1318 456 1318 q 551 1303 528 1318 q 585 1274 571 1290 q 628 1222 600 1257 q 667 1173 635 1214 q 746 1086 699 1132 l 735 1071 z "},"Ỷ":{"ha":1019,"x_min":115,"x_max":1132,"o":"m 1003 1003 q 1097 969 1063 1003 q 1132 883 1132 935 q 1097 794 1132 831 q 1006 758 1061 758 q 935 781 960 758 q 910 843 910 804 q 940 923 911 889 q 1015 971 969 957 q 992 976 1008 976 q 908 944 950 976 q 767 773 846 900 q 624 460 688 646 l 544 147 q 536 92 536 114 q 560 43 536 56 q 643 28 583 31 l 636 0 q 397 4 557 4 q 174 0 247 4 l 181 28 q 256 39 231 31 q 296 72 281 47 q 324 147 311 96 l 399 446 q 338 768 376 636 q 239 900 299 900 q 201 883 215 900 q 175 835 186 867 l 146 747 l 115 747 l 150 854 q 226 968 176 933 q 346 1003 275 1003 q 488 947 436 1003 q 566 787 540 890 q 611 507 592 683 q 715 742 657 638 q 839 917 774 846 q 1003 1003 918 1003 m 660 1032 q 681 1092 665 1069 q 724 1143 696 1115 q 765 1191 751 1169 q 778 1247 778 1213 q 694 1329 778 1329 q 632 1314 651 1329 q 681 1244 681 1293 q 656 1190 681 1211 q 596 1168 632 1168 q 545 1185 564 1168 q 526 1232 526 1203 q 607 1328 526 1290 q 744 1356 665 1356 q 863 1331 818 1356 q 907 1254 907 1306 q 882 1192 907 1214 q 804 1146 857 1171 q 723 1099 751 1122 q 688 1032 694 1075 l 660 1032 z "},"Ỹ":{"ha":1019,"x_min":115,"x_max":1132,"o":"m 1003 1003 q 1097 969 1063 1003 q 1132 883 1132 935 q 1097 794 1132 831 q 1006 758 1061 758 q 935 781 960 758 q 910 843 910 804 q 940 923 911 889 q 1015 971 969 957 q 992 976 1008 976 q 908 944 950 976 q 767 773 846 900 q 624 460 688 646 l 544 147 q 536 92 536 114 q 560 43 536 56 q 643 28 583 31 l 636 0 q 397 4 557 4 q 174 0 247 4 l 181 28 q 256 39 231 31 q 296 72 281 47 q 324 147 311 96 l 399 446 q 338 768 376 636 q 239 900 299 900 q 201 883 215 900 q 175 835 186 867 l 146 747 l 115 747 l 150 854 q 226 968 176 933 q 346 1003 275 1003 q 488 947 436 1003 q 566 787 540 890 q 611 507 592 683 q 715 742 657 638 q 839 917 774 846 q 1003 1003 918 1003 m 626 1288 q 708 1273 675 1288 q 779 1232 740 1258 q 835 1197 813 1208 q 890 1186 858 1186 q 947 1205 921 1186 q 997 1267 972 1224 l 1022 1260 q 922 1115 985 1163 q 792 1067 860 1067 q 710 1081 742 1067 q 638 1124 678 1096 q 582 1157 604 1146 q 528 1168 560 1168 q 472 1149 497 1168 q 421 1088 446 1131 l 396 1094 q 495 1240 433 1192 q 626 1288 557 1288 z "},"Z":{"ha":914,"x_min":-44,"x_max":1003,"o":"m 994 990 q 1003 972 1003 985 q 977 930 1003 953 q 899 886 951 907 l 514 508 l 725 508 l 714 481 l 486 481 l 93 94 q 233 187 161 154 q 376 219 306 219 q 463 210 425 219 q 549 185 501 201 q 613 165 589 171 q 664 158 638 158 q 710 173 693 158 q 726 214 726 188 q 625 294 726 272 l 631 321 q 759 270 707 308 q 811 160 811 232 q 756 31 811 81 q 610 -19 701 -19 q 515 -3 556 -19 q 419 43 475 13 q 324 90 363 75 q 233 104 285 104 q 165 95 196 104 q 86 67 133 86 q 33 8 61 31 q -17 -14 4 -14 q -36 -7 -29 -14 q -44 11 -44 -1 q -19 53 -44 31 q 60 97 7 76 l 450 481 l 225 481 l 235 508 l 478 508 l 865 889 q 725 797 797 829 q 583 764 653 764 q 496 773 535 764 q 410 799 457 782 q 347 819 372 813 q 296 825 322 825 q 249 810 265 825 q 233 769 233 796 q 258 720 233 740 q 335 689 282 700 l 328 663 q 199 713 251 675 q 147 824 147 751 q 202 953 147 903 q 349 1003 257 1003 q 443 987 403 1003 q 539 940 483 971 q 635 894 596 908 q 725 879 674 879 q 794 888 763 879 q 872 917 825 897 q 926 975 897 953 q 975 997 954 997 q 994 990 988 997 z "},"Ź":{"ha":914,"x_min":-44,"x_max":1003,"o":"m 994 990 q 1003 972 1003 985 q 977 930 1003 953 q 899 886 951 907 l 514 508 l 725 508 l 714 481 l 486 481 l 93 94 q 233 187 161 154 q 376 219 306 219 q 463 210 425 219 q 549 185 501 201 q 613 165 589 171 q 664 158 638 158 q 710 173 693 158 q 726 214 726 188 q 625 294 726 272 l 631 321 q 759 270 707 308 q 811 160 811 232 q 756 31 811 81 q 610 -19 701 -19 q 515 -3 556 -19 q 419 43 475 13 q 324 90 363 75 q 233 104 285 104 q 165 95 196 104 q 86 67 133 86 q 33 8 61 31 q -17 -14 4 -14 q -36 -7 -29 -14 q -44 11 -44 -1 q -19 53 -44 31 q 60 97 7 76 l 450 481 l 225 481 l 235 508 l 478 508 l 865 889 q 725 797 797 829 q 583 764 653 764 q 496 773 535 764 q 410 799 457 782 q 347 819 372 813 q 296 825 322 825 q 249 810 265 825 q 233 769 233 796 q 258 720 233 740 q 335 689 282 700 l 328 663 q 199 713 251 675 q 147 824 147 751 q 202 953 147 903 q 349 1003 257 1003 q 443 987 403 1003 q 539 940 483 971 q 635 894 596 908 q 725 879 674 879 q 794 888 763 879 q 872 917 825 897 q 926 975 897 953 q 975 997 954 997 q 994 990 988 997 m 586 1089 q 682 1171 640 1132 q 732 1217 724 1210 q 799 1277 775 1257 q 850 1313 824 1297 q 910 1328 876 1328 q 976 1290 958 1328 q 983 1263 983 1278 q 967 1219 983 1239 q 921 1183 950 1199 q 862 1158 897 1171 q 788 1135 826 1146 q 596 1072 683 1107 l 586 1089 z "},"Ž":{"ha":914,"x_min":-44,"x_max":1004,"o":"m 994 990 q 1003 972 1003 985 q 977 930 1003 953 q 899 886 951 907 l 514 508 l 725 508 l 714 481 l 486 481 l 93 94 q 233 187 161 154 q 376 219 306 219 q 463 210 425 219 q 549 185 501 201 q 613 165 589 171 q 664 158 638 158 q 710 173 693 158 q 726 214 726 188 q 625 294 726 272 l 631 321 q 759 270 707 308 q 811 160 811 232 q 756 31 811 81 q 610 -19 701 -19 q 515 -3 556 -19 q 419 43 475 13 q 324 90 363 75 q 233 104 285 104 q 165 95 196 104 q 86 67 133 86 q 33 8 61 31 q -17 -14 4 -14 q -36 -7 -29 -14 q -44 11 -44 -1 q -19 53 -44 31 q 60 97 7 76 l 450 481 l 225 481 l 235 508 l 478 508 l 865 889 q 725 797 797 829 q 583 764 653 764 q 496 773 535 764 q 410 799 457 782 q 347 819 372 813 q 296 825 322 825 q 249 810 265 825 q 233 769 233 796 q 258 720 233 740 q 335 689 282 700 l 328 663 q 199 713 251 675 q 147 824 147 751 q 202 953 147 903 q 349 1003 257 1003 q 443 987 403 1003 q 539 940 483 971 q 635 894 596 908 q 725 879 674 879 q 794 888 763 879 q 872 917 825 897 q 926 975 897 953 q 975 997 954 997 q 994 990 988 997 m 696 1219 q 997 1301 842 1272 l 1004 1282 q 789 1188 889 1246 q 628 1067 689 1131 l 603 1067 q 527 1195 571 1144 q 410 1282 483 1246 l 415 1301 q 565 1267 506 1286 q 696 1219 625 1249 z "},"Ż":{"ha":914,"x_min":-44,"x_max":1003,"o":"m 994 990 q 1003 972 1003 985 q 977 930 1003 953 q 899 886 951 907 l 514 508 l 725 508 l 714 481 l 486 481 l 93 94 q 233 187 161 154 q 376 219 306 219 q 463 210 425 219 q 549 185 501 201 q 613 165 589 171 q 664 158 638 158 q 710 173 693 158 q 726 214 726 188 q 625 294 726 272 l 631 321 q 759 270 707 308 q 811 160 811 232 q 756 31 811 81 q 610 -19 701 -19 q 515 -3 556 -19 q 419 43 475 13 q 324 90 363 75 q 233 104 285 104 q 165 95 196 104 q 86 67 133 86 q 33 8 61 31 q -17 -14 4 -14 q -36 -7 -29 -14 q -44 11 -44 -1 q -19 53 -44 31 q 60 97 7 76 l 450 481 l 225 481 l 235 508 l 478 508 l 865 889 q 725 797 797 829 q 583 764 653 764 q 496 773 535 764 q 410 799 457 782 q 347 819 372 813 q 296 825 322 825 q 249 810 265 825 q 233 769 233 796 q 258 720 233 740 q 335 689 282 700 l 328 663 q 199 713 251 675 q 147 824 147 751 q 202 953 147 903 q 349 1003 257 1003 q 443 987 403 1003 q 539 940 483 971 q 635 894 596 908 q 725 879 674 879 q 794 888 763 879 q 872 917 825 897 q 926 975 897 953 q 975 997 954 997 q 994 990 988 997 m 517 1147 q 557 1241 517 1206 q 658 1276 597 1276 q 735 1253 708 1276 q 761 1190 761 1231 q 719 1099 761 1136 q 617 1063 678 1063 q 543 1085 569 1063 q 517 1147 517 1107 z "},"a":{"ha":904,"x_min":-126,"x_max":806,"o":"m 738 117 q 763 50 743 71 q 806 28 782 29 l 799 0 q 597 4 728 4 q 389 0 456 4 l 396 28 q 489 49 461 31 q 517 117 517 67 q 515 144 517 135 l 494 317 l 183 317 l 81 189 q 38 99 38 135 q 149 28 38 40 l 146 0 q -24 4 54 4 q -126 0 -85 4 l -122 28 q -51 75 -85 42 q 39 179 -17 108 l 581 854 l 617 853 l 651 854 l 738 117 m 490 344 l 453 651 l 206 344 l 490 344 z "},"á":{"ha":904,"x_min":-126,"x_max":910,"o":"m 738 117 q 763 50 743 71 q 806 28 782 29 l 799 0 q 597 4 728 4 q 389 0 456 4 l 396 28 q 489 49 461 31 q 517 117 517 67 q 515 144 517 135 l 494 317 l 183 317 l 81 189 q 38 99 38 135 q 149 28 38 40 l 146 0 q -24 4 54 4 q -126 0 -85 4 l -122 28 q -51 75 -85 42 q 39 179 -17 108 l 581 854 l 617 853 l 651 854 l 738 117 m 490 344 l 453 651 l 206 344 l 490 344 m 513 950 q 608 1032 567 993 q 658 1078 650 1071 q 726 1138 701 1118 q 776 1174 750 1158 q 836 1189 803 1189 q 903 1151 885 1189 q 910 1124 910 1139 q 893 1080 910 1100 q 847 1044 876 1060 q 788 1019 824 1032 q 714 996 753 1007 q 522 933 610 968 l 513 950 z "},"ă":{"ha":904,"x_min":-126,"x_max":978,"o":"m 738 117 q 763 50 743 71 q 806 28 782 29 l 799 0 q 597 4 728 4 q 389 0 456 4 l 396 28 q 489 49 461 31 q 517 117 517 67 q 515 144 517 135 l 494 317 l 183 317 l 81 189 q 38 99 38 135 q 149 28 38 40 l 146 0 q -24 4 54 4 q -126 0 -85 4 l -122 28 q -51 75 -85 42 q 39 179 -17 108 l 581 854 l 617 853 l 651 854 l 738 117 m 490 344 l 453 651 l 206 344 l 490 344 m 646 1060 q 963 1147 832 1060 l 978 1133 q 818 992 919 1053 q 618 932 717 932 q 471 988 526 932 q 399 1132 415 1043 l 419 1142 q 512 1078 460 1097 q 646 1060 564 1060 z "},"ắ":{"ha":904,"x_min":-126,"x_max":978,"o":"m 738 117 q 763 50 743 71 q 806 28 782 29 l 799 0 q 597 4 728 4 q 389 0 456 4 l 396 28 q 489 49 461 31 q 517 117 517 67 q 515 144 517 135 l 494 317 l 183 317 l 81 189 q 38 99 38 135 q 149 28 38 40 l 146 0 q -24 4 54 4 q -126 0 -85 4 l -122 28 q -51 75 -85 42 q 39 179 -17 108 l 581 854 l 617 853 l 651 854 l 738 117 m 490 344 l 453 651 l 206 344 l 490 344 m 646 1060 q 963 1147 832 1060 l 978 1133 q 818 992 919 1053 q 618 932 717 932 q 471 988 526 932 q 399 1132 415 1043 l 419 1142 q 512 1078 460 1097 q 646 1060 564 1060 m 563 1144 q 658 1226 617 1188 q 708 1272 700 1265 q 776 1333 751 1313 q 826 1368 800 1353 q 886 1383 853 1383 q 953 1346 935 1383 q 960 1318 960 1333 q 943 1274 960 1294 q 897 1239 926 1254 q 838 1214 874 1226 q 764 1190 803 1201 q 572 1128 660 1163 l 563 1144 z "},"ặ":{"ha":904,"x_min":-126,"x_max":978,"o":"m 738 117 q 763 50 743 71 q 806 28 782 29 l 799 0 q 597 4 728 4 q 389 0 456 4 l 396 28 q 489 49 461 31 q 517 117 517 67 q 515 144 517 135 l 494 317 l 183 317 l 81 189 q 38 99 38 135 q 149 28 38 40 l 146 0 q -24 4 54 4 q -126 0 -85 4 l -122 28 q -51 75 -85 42 q 39 179 -17 108 l 581 854 l 617 853 l 651 854 l 738 117 m 490 344 l 453 651 l 206 344 l 490 344 m 646 1060 q 963 1147 832 1060 l 978 1133 q 818 992 919 1053 q 618 932 717 932 q 471 988 526 932 q 399 1132 415 1043 l 419 1142 q 512 1078 460 1097 q 646 1060 564 1060 m 225 -260 q 158 -241 182 -260 q 135 -187 135 -222 q 168 -106 135 -136 q 257 -76 201 -76 q 324 -95 300 -76 q 347 -149 347 -114 q 313 -230 347 -200 q 225 -260 279 -260 z "},"ằ":{"ha":904,"x_min":-126,"x_max":978,"o":"m 738 117 q 763 50 743 71 q 806 28 782 29 l 799 0 q 597 4 728 4 q 389 0 456 4 l 396 28 q 489 49 461 31 q 517 117 517 67 q 515 144 517 135 l 494 317 l 183 317 l 81 189 q 38 99 38 135 q 149 28 38 40 l 146 0 q -24 4 54 4 q -126 0 -85 4 l -122 28 q -51 75 -85 42 q 39 179 -17 108 l 581 854 l 617 853 l 651 854 l 738 117 m 490 344 l 453 651 l 206 344 l 490 344 m 646 1060 q 963 1147 832 1060 l 978 1133 q 818 992 919 1053 q 618 932 717 932 q 471 988 526 932 q 399 1132 415 1043 l 419 1142 q 512 1078 460 1097 q 646 1060 564 1060 m 740 1126 q 574 1192 664 1161 q 531 1208 564 1196 q 475 1235 499 1219 q 444 1265 456 1246 q 432 1306 432 1285 q 442 1340 432 1325 q 504 1374 461 1374 q 557 1358 533 1374 q 591 1329 576 1346 q 633 1278 606 1313 q 672 1228 640 1269 q 751 1142 704 1188 l 740 1126 z "},"ẳ":{"ha":904,"x_min":-126,"x_max":978,"o":"m 738 117 q 763 50 743 71 q 806 28 782 29 l 799 0 q 597 4 728 4 q 389 0 456 4 l 396 28 q 489 49 461 31 q 517 117 517 67 q 515 144 517 135 l 494 317 l 183 317 l 81 189 q 38 99 38 135 q 149 28 38 40 l 146 0 q -24 4 54 4 q -126 0 -85 4 l -122 28 q -51 75 -85 42 q 39 179 -17 108 l 581 854 l 617 853 l 651 854 l 738 117 m 490 344 l 453 651 l 206 344 l 490 344 m 646 1060 q 963 1147 832 1060 l 978 1133 q 818 992 919 1053 q 618 932 717 932 q 471 988 526 932 q 399 1132 415 1043 l 419 1142 q 512 1078 460 1097 q 646 1060 564 1060 m 671 1150 q 692 1211 676 1188 q 736 1261 708 1235 q 777 1309 764 1288 q 790 1365 790 1331 q 707 1447 790 1447 q 644 1431 663 1447 q 693 1363 693 1410 q 669 1307 693 1329 q 608 1285 644 1285 q 558 1303 578 1285 q 539 1350 539 1321 q 560 1405 539 1381 q 618 1444 582 1429 q 757 1472 678 1472 q 875 1447 831 1472 q 919 1371 919 1422 q 894 1309 919 1331 q 817 1264 869 1288 q 735 1217 764 1240 q 699 1150 706 1193 l 671 1150 z "},"ẵ":{"ha":904,"x_min":-126,"x_max":1021,"o":"m 738 117 q 763 50 743 71 q 806 28 782 29 l 799 0 q 597 4 728 4 q 389 0 456 4 l 396 28 q 489 49 461 31 q 517 117 517 67 q 515 144 517 135 l 494 317 l 183 317 l 81 189 q 38 99 38 135 q 149 28 38 40 l 146 0 q -24 4 54 4 q -126 0 -85 4 l -122 28 q -51 75 -85 42 q 39 179 -17 108 l 581 854 l 617 853 l 651 854 l 738 117 m 490 344 l 453 651 l 206 344 l 490 344 m 646 1060 q 963 1147 832 1060 l 978 1133 q 818 992 919 1053 q 618 932 717 932 q 471 988 526 932 q 399 1132 415 1043 l 419 1142 q 512 1078 460 1097 q 646 1060 564 1060 m 625 1343 q 706 1328 674 1343 q 778 1288 739 1314 q 834 1253 811 1264 q 889 1242 857 1242 q 945 1260 919 1242 q 996 1322 971 1279 l 1021 1315 q 921 1170 983 1218 q 790 1122 858 1122 q 708 1137 740 1122 q 636 1179 676 1151 q 581 1213 603 1201 q 526 1224 558 1224 q 470 1205 496 1224 q 419 1143 444 1186 l 394 1150 q 494 1295 432 1247 q 625 1343 556 1343 z "},"ǎ":{"ha":904,"x_min":-126,"x_max":1011,"o":"m 738 117 q 763 50 743 71 q 806 28 782 29 l 799 0 q 597 4 728 4 q 389 0 456 4 l 396 28 q 489 49 461 31 q 517 117 517 67 q 515 144 517 135 l 494 317 l 183 317 l 81 189 q 38 99 38 135 q 149 28 38 40 l 146 0 q -24 4 54 4 q -126 0 -85 4 l -122 28 q -51 75 -85 42 q 39 179 -17 108 l 581 854 l 617 853 l 651 854 l 738 117 m 490 344 l 453 651 l 206 344 l 490 344 m 703 1081 q 1004 1163 849 1133 l 1011 1143 q 796 1049 896 1107 q 635 928 696 992 l 610 928 q 534 1056 578 1006 q 417 1143 490 1107 l 422 1163 q 572 1128 513 1147 q 703 1081 632 1110 z "},"â":{"ha":904,"x_min":-126,"x_max":908,"o":"m 738 117 q 763 50 743 71 q 806 28 782 29 l 799 0 q 597 4 728 4 q 389 0 456 4 l 396 28 q 489 49 461 31 q 517 117 517 67 q 515 144 517 135 l 494 317 l 183 317 l 81 189 q 38 99 38 135 q 149 28 38 40 l 146 0 q -24 4 54 4 q -126 0 -85 4 l -122 28 q -51 75 -85 42 q 39 179 -17 108 l 581 854 l 617 853 l 651 854 l 738 117 m 490 344 l 453 651 l 206 344 l 490 344 m 624 1014 q 321 932 479 961 l 314 951 q 529 1045 429 988 q 690 1167 629 1103 l 715 1167 q 791 1038 747 1089 q 908 951 835 988 l 903 932 q 752 966 813 947 q 624 1014 692 985 z "},"ấ":{"ha":904,"x_min":-126,"x_max":986,"o":"m 738 117 q 763 50 743 71 q 806 28 782 29 l 799 0 q 597 4 728 4 q 389 0 456 4 l 396 28 q 489 49 461 31 q 517 117 517 67 q 515 144 517 135 l 494 317 l 183 317 l 81 189 q 38 99 38 135 q 149 28 38 40 l 146 0 q -24 4 54 4 q -126 0 -85 4 l -122 28 q -51 75 -85 42 q 39 179 -17 108 l 581 854 l 617 853 l 651 854 l 738 117 m 490 344 l 453 651 l 206 344 l 490 344 m 624 1014 q 321 932 479 961 l 314 951 q 529 1045 429 988 q 690 1167 629 1103 l 715 1167 q 791 1038 747 1089 q 908 951 835 988 l 903 932 q 752 966 813 947 q 624 1014 692 985 m 589 1256 q 685 1338 643 1299 q 735 1383 726 1376 q 802 1444 778 1424 q 853 1479 826 1464 q 913 1494 879 1494 q 979 1457 961 1494 q 986 1429 986 1444 q 969 1385 986 1406 q 924 1350 953 1365 q 865 1325 900 1338 q 790 1301 829 1313 q 599 1239 686 1274 l 589 1256 z "},"ậ":{"ha":904,"x_min":-126,"x_max":908,"o":"m 738 117 q 763 50 743 71 q 806 28 782 29 l 799 0 q 597 4 728 4 q 389 0 456 4 l 396 28 q 489 49 461 31 q 517 117 517 67 q 515 144 517 135 l 494 317 l 183 317 l 81 189 q 38 99 38 135 q 149 28 38 40 l 146 0 q -24 4 54 4 q -126 0 -85 4 l -122 28 q -51 75 -85 42 q 39 179 -17 108 l 581 854 l 617 853 l 651 854 l 738 117 m 490 344 l 453 651 l 206 344 l 490 344 m 624 1014 q 321 932 479 961 l 314 951 q 529 1045 429 988 q 690 1167 629 1103 l 715 1167 q 791 1038 747 1089 q 908 951 835 988 l 903 932 q 752 966 813 947 q 624 1014 692 985 m 225 -260 q 158 -241 182 -260 q 135 -187 135 -222 q 168 -106 135 -136 q 257 -76 201 -76 q 324 -95 300 -76 q 347 -149 347 -114 q 313 -230 347 -200 q 225 -260 279 -260 z "},"ầ":{"ha":904,"x_min":-126,"x_max":908,"o":"m 738 117 q 763 50 743 71 q 806 28 782 29 l 799 0 q 597 4 728 4 q 389 0 456 4 l 396 28 q 489 49 461 31 q 517 117 517 67 q 515 144 517 135 l 494 317 l 183 317 l 81 189 q 38 99 38 135 q 149 28 38 40 l 146 0 q -24 4 54 4 q -126 0 -85 4 l -122 28 q -51 75 -85 42 q 39 179 -17 108 l 581 854 l 617 853 l 651 854 l 738 117 m 490 344 l 453 651 l 206 344 l 490 344 m 624 1014 q 321 932 479 961 l 314 951 q 529 1045 429 988 q 690 1167 629 1103 l 715 1167 q 791 1038 747 1089 q 908 951 835 988 l 903 932 q 752 966 813 947 q 624 1014 692 985 m 767 1238 q 600 1303 690 1272 q 558 1319 590 1307 q 501 1346 525 1331 q 470 1376 482 1357 q 458 1417 458 1396 q 468 1451 458 1436 q 531 1485 488 1485 q 583 1469 560 1485 q 617 1440 603 1457 q 660 1389 632 1424 q 699 1340 667 1381 q 778 1253 731 1299 l 767 1238 z "},"ẩ":{"ha":904,"x_min":-126,"x_max":1106,"o":"m 738 117 q 763 50 743 71 q 806 28 782 29 l 799 0 q 597 4 728 4 q 389 0 456 4 l 396 28 q 489 49 461 31 q 517 117 517 67 q 515 144 517 135 l 494 317 l 183 317 l 81 189 q 38 99 38 135 q 149 28 38 40 l 146 0 q -24 4 54 4 q -126 0 -85 4 l -122 28 q -51 75 -85 42 q 39 179 -17 108 l 581 854 l 617 853 l 651 854 l 738 117 m 490 344 l 453 651 l 206 344 l 490 344 m 624 1014 q 321 932 479 961 l 314 951 q 529 1045 429 988 q 690 1167 629 1103 l 715 1167 q 791 1038 747 1089 q 908 951 835 988 l 903 932 q 752 966 813 947 q 624 1014 692 985 m 857 1151 q 878 1213 863 1189 q 922 1263 894 1236 q 963 1310 950 1289 q 976 1367 976 1332 q 893 1449 976 1449 q 831 1432 849 1449 q 879 1364 879 1411 q 855 1308 879 1331 q 794 1286 831 1286 q 744 1304 764 1286 q 725 1351 725 1322 q 747 1406 725 1382 q 804 1446 768 1431 q 943 1474 864 1474 q 1061 1449 1017 1474 q 1106 1372 1106 1424 q 1081 1310 1106 1332 q 1003 1265 1056 1289 q 921 1218 950 1242 q 885 1151 892 1194 l 857 1151 z "},"ẫ":{"ha":904,"x_min":-126,"x_max":1047,"o":"m 738 117 q 763 50 743 71 q 806 28 782 29 l 799 0 q 597 4 728 4 q 389 0 456 4 l 396 28 q 489 49 461 31 q 517 117 517 67 q 515 144 517 135 l 494 317 l 183 317 l 81 189 q 38 99 38 135 q 149 28 38 40 l 146 0 q -24 4 54 4 q -126 0 -85 4 l -122 28 q -51 75 -85 42 q 39 179 -17 108 l 581 854 l 617 853 l 651 854 l 738 117 m 490 344 l 453 651 l 206 344 l 490 344 m 624 1014 q 321 932 479 961 l 314 951 q 529 1045 429 988 q 690 1167 629 1103 l 715 1167 q 791 1038 747 1089 q 908 951 835 988 l 903 932 q 752 966 813 947 q 624 1014 692 985 m 651 1454 q 733 1440 700 1454 q 804 1399 765 1425 q 860 1364 838 1375 q 915 1353 883 1353 q 972 1372 946 1353 q 1022 1433 997 1390 l 1047 1426 q 947 1281 1010 1329 q 817 1233 885 1233 q 735 1248 767 1233 q 663 1290 703 1263 q 607 1324 629 1313 q 553 1335 585 1335 q 497 1316 522 1335 q 446 1254 471 1297 l 421 1261 q 520 1406 458 1358 q 651 1454 582 1454 z "},"ä":{"ha":904,"x_min":-126,"x_max":910,"o":"m 738 117 q 763 50 743 71 q 806 28 782 29 l 799 0 q 597 4 728 4 q 389 0 456 4 l 396 28 q 489 49 461 31 q 517 117 517 67 q 515 144 517 135 l 494 317 l 183 317 l 81 189 q 38 99 38 135 q 149 28 38 40 l 146 0 q -24 4 54 4 q -126 0 -85 4 l -122 28 q -51 75 -85 42 q 39 179 -17 108 l 581 854 l 617 853 l 651 854 l 738 117 m 490 344 l 453 651 l 206 344 l 490 344 m 367 1017 q 401 1103 367 1071 q 486 1135 436 1135 q 553 1109 529 1135 q 576 1042 576 1083 q 540 956 576 988 q 456 925 504 925 q 390 950 413 925 q 367 1017 367 975 m 700 1017 q 735 1103 700 1071 q 819 1135 769 1135 q 886 1109 863 1135 q 910 1042 910 1083 q 874 956 910 988 q 789 925 838 925 q 722 950 744 925 q 700 1017 700 975 z "},"ạ":{"ha":904,"x_min":-126,"x_max":806,"o":"m 738 117 q 763 50 743 71 q 806 28 782 29 l 799 0 q 597 4 728 4 q 389 0 456 4 l 396 28 q 489 49 461 31 q 517 117 517 67 q 515 144 517 135 l 494 317 l 183 317 l 81 189 q 38 99 38 135 q 149 28 38 40 l 146 0 q -24 4 54 4 q -126 0 -85 4 l -122 28 q -51 75 -85 42 q 39 179 -17 108 l 581 854 l 617 853 l 651 854 l 738 117 m 490 344 l 453 651 l 206 344 l 490 344 m 225 -260 q 158 -241 182 -260 q 135 -187 135 -222 q 168 -106 135 -136 q 257 -76 201 -76 q 324 -95 300 -76 q 347 -149 347 -114 q 313 -230 347 -200 q 225 -260 279 -260 z "},"à":{"ha":904,"x_min":-126,"x_max":806,"o":"m 738 117 q 763 50 743 71 q 806 28 782 29 l 799 0 q 597 4 728 4 q 389 0 456 4 l 396 28 q 489 49 461 31 q 517 117 517 67 q 515 144 517 135 l 494 317 l 183 317 l 81 189 q 38 99 38 135 q 149 28 38 40 l 146 0 q -24 4 54 4 q -126 0 -85 4 l -122 28 q -51 75 -85 42 q 39 179 -17 108 l 581 854 l 617 853 l 651 854 l 738 117 m 490 344 l 453 651 l 206 344 l 490 344 m 690 932 q 524 997 614 967 q 481 1013 514 1001 q 425 1040 449 1025 q 394 1071 406 1051 q 382 1111 382 1090 q 392 1146 382 1131 q 454 1179 411 1179 q 507 1164 483 1179 q 541 1135 526 1151 q 583 1083 556 1118 q 622 1034 590 1075 q 701 947 654 993 l 690 932 z "},"ả":{"ha":904,"x_min":-126,"x_max":869,"o":"m 738 117 q 763 50 743 71 q 806 28 782 29 l 799 0 q 597 4 728 4 q 389 0 456 4 l 396 28 q 489 49 461 31 q 517 117 517 67 q 515 144 517 135 l 494 317 l 183 317 l 81 189 q 38 99 38 135 q 149 28 38 40 l 146 0 q -24 4 54 4 q -126 0 -85 4 l -122 28 q -51 75 -85 42 q 39 179 -17 108 l 581 854 l 617 853 l 651 854 l 738 117 m 490 344 l 453 651 l 206 344 l 490 344 m 621 956 q 642 1017 626 993 q 686 1067 658 1040 q 727 1115 714 1093 q 740 1171 740 1136 q 657 1253 740 1253 q 594 1236 613 1253 q 643 1168 643 1215 q 619 1113 643 1135 q 558 1090 594 1090 q 508 1108 528 1090 q 489 1156 489 1126 q 510 1210 489 1186 q 568 1250 532 1235 q 707 1278 628 1278 q 825 1253 781 1278 q 869 1176 869 1228 q 844 1115 869 1136 q 767 1069 819 1093 q 685 1022 714 1046 q 649 956 656 999 l 621 956 z "},"ā":{"ha":904,"x_min":-126,"x_max":900,"o":"m 738 117 q 763 50 743 71 q 806 28 782 29 l 799 0 q 597 4 728 4 q 389 0 456 4 l 396 28 q 489 49 461 31 q 517 117 517 67 q 515 144 517 135 l 494 317 l 183 317 l 81 189 q 38 99 38 135 q 149 28 38 40 l 146 0 q -24 4 54 4 q -126 0 -85 4 l -122 28 q -51 75 -85 42 q 39 179 -17 108 l 581 854 l 617 853 l 651 854 l 738 117 m 490 344 l 453 651 l 206 344 l 490 344 m 892 999 l 336 999 l 344 1033 l 900 1033 l 892 999 z "},"ą":{"ha":904,"x_min":-126,"x_max":806,"o":"m 738 117 q 763 50 743 71 q 806 28 782 29 l 799 0 q 597 4 728 4 q 389 0 456 4 l 396 28 q 489 49 461 31 q 517 117 517 67 q 515 144 517 135 l 494 317 l 183 317 l 81 189 q 38 99 38 135 q 149 28 38 40 l 146 0 q -24 4 54 4 q -126 0 -85 4 l -122 28 q -51 75 -85 42 q 39 179 -17 108 l 581 854 l 617 853 l 651 854 l 738 117 m 490 344 l 453 651 l 206 344 l 490 344 m 756 4 q 619 -60 671 -18 q 568 -150 568 -103 q 614 -192 568 -192 q 664 -183 636 -192 q 715 -161 692 -175 l 731 -185 q 531 -261 635 -261 q 442 -240 474 -261 q 411 -178 411 -218 q 493 -66 411 -114 q 711 4 575 -18 l 756 4 z "},"å":{"ha":904,"x_min":-126,"x_max":807,"o":"m 738 117 q 763 50 743 71 q 806 28 782 29 l 799 0 q 597 4 728 4 q 389 0 456 4 l 396 28 q 489 49 461 31 q 517 117 517 67 q 515 144 517 135 l 494 317 l 183 317 l 81 189 q 38 99 38 135 q 149 28 38 40 l 146 0 q -24 4 54 4 q -126 0 -85 4 l -122 28 q -51 75 -85 42 q 39 179 -17 108 l 581 854 l 617 853 l 651 854 l 738 117 m 490 344 l 453 651 l 206 344 l 490 344 m 671 1163 q 768 1130 729 1163 q 807 1044 807 1097 q 783 968 807 1003 q 719 913 758 933 q 635 892 679 892 q 540 924 576 892 q 503 1011 503 956 q 551 1119 503 1075 q 671 1163 600 1163 m 640 921 q 731 956 692 921 q 771 1043 771 992 q 740 1110 771 1086 q 667 1133 708 1133 q 578 1097 615 1133 q 540 1011 540 1060 q 570 945 540 969 q 640 921 600 921 z "},"ã":{"ha":904,"x_min":-126,"x_max":971,"o":"m 738 117 q 763 50 743 71 q 806 28 782 29 l 799 0 q 597 4 728 4 q 389 0 456 4 l 396 28 q 489 49 461 31 q 517 117 517 67 q 515 144 517 135 l 494 317 l 183 317 l 81 189 q 38 99 38 135 q 149 28 38 40 l 146 0 q -24 4 54 4 q -126 0 -85 4 l -122 28 q -51 75 -85 42 q 39 179 -17 108 l 581 854 l 617 853 l 651 854 l 738 117 m 490 344 l 453 651 l 206 344 l 490 344 m 575 1149 q 656 1134 624 1149 q 728 1093 689 1119 q 784 1058 761 1069 q 839 1047 807 1047 q 895 1066 869 1047 q 946 1128 921 1085 l 971 1121 q 871 976 933 1024 q 740 928 808 928 q 658 942 690 928 q 586 985 626 957 q 531 1018 553 1007 q 476 1029 508 1029 q 420 1010 446 1029 q 369 949 394 992 l 344 956 q 444 1101 382 1053 q 575 1149 506 1149 z "},"æ":{"ha":1269,"x_min":-114,"x_max":1288,"o":"m 1000 840 q 1288 844 1200 840 q 1235 681 1269 794 q 1217 594 1222 639 l 1186 594 q 1196 693 1196 649 q 1167 785 1196 758 q 1074 813 1138 813 l 986 813 q 913 805 938 813 q 875 774 889 797 q 847 697 861 750 l 778 439 l 882 439 q 947 460 921 439 q 990 511 974 481 q 1025 594 1006 542 l 1056 594 q 1018 463 1033 526 l 1008 425 q 972 256 993 368 l 942 256 q 946 299 942 278 q 949 342 949 329 q 933 390 949 372 q 876 411 918 408 l 771 411 l 700 147 q 688 79 688 94 q 708 41 688 50 q 779 32 728 32 l 881 32 q 990 55 947 32 q 1065 130 1033 78 q 1129 278 1097 182 l 1160 278 q 1131 178 1149 247 q 1094 0 1107 96 q 781 4 1000 4 q 331 0 482 4 l 336 28 q 411 39 386 31 q 451 71 436 47 q 479 147 465 94 l 550 411 l 301 411 l 53 131 q 22 91 32 106 q 13 65 13 76 q 99 28 13 33 l 99 0 q -21 4 61 4 q -114 0 -81 4 l -114 28 q 6 117 -71 31 l 614 806 q 544 817 596 814 l 551 844 q 647 843 582 843 l 714 918 l 750 918 l 682 842 q 1000 840 804 840 m 557 439 l 626 697 q 638 764 638 742 q 633 788 638 778 l 326 439 l 557 439 z "},"b":{"ha":924,"x_min":-58,"x_max":882,"o":"m 882 682 q 787 531 882 593 q 533 449 692 468 q 758 390 689 440 q 828 265 828 339 q 772 122 828 182 q 620 31 717 63 q 400 0 524 0 l 299 1 q 161 4 215 4 q -58 0 15 4 l -53 28 q 22 39 -3 31 q 62 71 47 47 q 90 147 76 94 l 238 697 q 250 764 250 747 q 229 803 250 792 q 156 817 208 815 l 163 844 q 378 840 233 840 q 472 842 440 840 l 574 843 q 806 803 731 843 q 882 682 882 763 m 431 453 q 553 486 501 453 q 631 576 604 519 q 658 699 658 632 q 550 817 658 817 q 497 803 513 817 q 469 746 481 789 l 392 453 l 431 453 m 597 288 q 562 391 597 353 q 449 429 526 429 l 386 429 l 311 147 q 299 79 299 100 q 310 44 299 56 q 351 32 322 32 q 597 288 597 32 z "},"c":{"ha":943,"x_min":42,"x_max":974,"o":"m 414 -19 q 140 56 238 -19 q 42 272 42 132 q 119 550 42 413 q 338 776 196 688 q 661 864 479 864 q 784 840 738 864 q 867 774 831 815 q 886 761 878 761 q 943 844 914 761 l 974 844 q 883 525 931 719 l 853 525 q 861 632 861 596 q 856 685 861 663 q 839 731 851 707 q 763 811 814 783 q 649 839 713 839 q 463 747 550 839 q 324 516 376 656 q 272 244 272 376 q 313 67 272 129 q 426 6 354 6 q 558 34 490 6 q 676 114 626 63 q 739 199 713 151 q 801 333 765 247 l 832 333 q 750 0 767 93 l 719 0 q 724 47 724 29 q 706 83 724 83 q 678 71 694 83 q 553 3 614 26 q 414 -19 493 -19 z "},"ć":{"ha":943,"x_min":42,"x_max":974,"o":"m 414 -19 q 140 56 238 -19 q 42 272 42 132 q 119 550 42 413 q 338 776 196 688 q 661 864 479 864 q 784 840 738 864 q 867 774 831 815 q 886 761 878 761 q 943 844 914 761 l 974 844 q 883 525 931 719 l 853 525 q 861 632 861 596 q 856 685 861 663 q 839 731 851 707 q 763 811 814 783 q 649 839 713 839 q 463 747 550 839 q 324 516 376 656 q 272 244 272 376 q 313 67 272 129 q 426 6 354 6 q 558 34 490 6 q 676 114 626 63 q 739 199 713 151 q 801 333 765 247 l 832 333 q 750 0 767 93 l 719 0 q 724 47 724 29 q 706 83 724 83 q 678 71 694 83 q 553 3 614 26 q 414 -19 493 -19 m 553 950 q 649 1032 607 993 q 699 1078 690 1071 q 766 1138 742 1118 q 817 1174 790 1158 q 876 1189 843 1189 q 943 1151 925 1189 q 950 1124 950 1139 q 933 1080 950 1100 q 888 1044 917 1060 q 828 1019 864 1032 q 754 996 793 1007 q 563 933 650 968 l 553 950 z "},"č":{"ha":943,"x_min":42,"x_max":1051,"o":"m 414 -19 q 140 56 238 -19 q 42 272 42 132 q 119 550 42 413 q 338 776 196 688 q 661 864 479 864 q 784 840 738 864 q 867 774 831 815 q 886 761 878 761 q 943 844 914 761 l 974 844 q 883 525 931 719 l 853 525 q 861 632 861 596 q 856 685 861 663 q 839 731 851 707 q 763 811 814 783 q 649 839 713 839 q 463 747 550 839 q 324 516 376 656 q 272 244 272 376 q 313 67 272 129 q 426 6 354 6 q 558 34 490 6 q 676 114 626 63 q 739 199 713 151 q 801 333 765 247 l 832 333 q 750 0 767 93 l 719 0 q 724 47 724 29 q 706 83 724 83 q 678 71 694 83 q 553 3 614 26 q 414 -19 493 -19 m 743 1081 q 1044 1163 889 1133 l 1051 1143 q 836 1049 936 1107 q 675 928 736 992 l 650 928 q 574 1056 618 1006 q 457 1143 531 1107 l 463 1163 q 613 1128 553 1147 q 743 1081 672 1110 z "},"ç":{"ha":943,"x_min":42,"x_max":974,"o":"m 414 -19 q 140 56 238 -19 q 42 272 42 132 q 119 550 42 413 q 338 776 196 688 q 661 864 479 864 q 784 840 738 864 q 867 774 831 815 q 886 761 878 761 q 943 844 914 761 l 974 844 q 883 525 931 719 l 853 525 q 861 632 861 596 q 856 685 861 663 q 839 731 851 707 q 763 811 814 783 q 649 839 713 839 q 463 747 550 839 q 324 516 376 656 q 272 244 272 376 q 313 67 272 129 q 426 6 354 6 q 558 34 490 6 q 676 114 626 63 q 739 199 713 151 q 801 333 765 247 l 832 333 q 750 0 767 93 l 719 0 q 724 47 724 29 q 706 83 724 83 q 678 71 694 83 q 553 3 614 26 q 414 -19 493 -19 m 397 -87 q 478 -74 436 -74 q 546 -91 521 -74 q 571 -140 571 -108 q 499 -231 571 -201 q 335 -261 428 -261 q 247 -253 288 -261 q 183 -233 207 -244 l 192 -212 q 304 -228 247 -228 q 390 -214 350 -228 q 429 -164 429 -200 q 385 -132 429 -132 q 336 -142 360 -132 l 403 7 l 440 7 l 397 -87 z "},"ĉ":{"ha":943,"x_min":42,"x_max":974,"o":"m 414 -19 q 140 56 238 -19 q 42 272 42 132 q 119 550 42 413 q 338 776 196 688 q 661 864 479 864 q 784 840 738 864 q 867 774 831 815 q 886 761 878 761 q 943 844 914 761 l 974 844 q 883 525 931 719 l 853 525 q 861 632 861 596 q 856 685 861 663 q 839 731 851 707 q 763 811 814 783 q 649 839 713 839 q 463 747 550 839 q 324 516 376 656 q 272 244 272 376 q 313 67 272 129 q 426 6 354 6 q 558 34 490 6 q 676 114 626 63 q 739 199 713 151 q 801 333 765 247 l 832 333 q 750 0 767 93 l 719 0 q 724 47 724 29 q 706 83 724 83 q 678 71 694 83 q 553 3 614 26 q 414 -19 493 -19 m 664 1014 q 361 932 519 961 l 354 951 q 569 1045 469 988 q 731 1167 669 1103 l 756 1167 q 831 1038 788 1089 q 949 951 875 988 l 943 932 q 792 966 853 947 q 664 1014 732 985 z "},"ċ":{"ha":943,"x_min":42,"x_max":974,"o":"m 414 -19 q 140 56 238 -19 q 42 272 42 132 q 119 550 42 413 q 338 776 196 688 q 661 864 479 864 q 784 840 738 864 q 867 774 831 815 q 886 761 878 761 q 943 844 914 761 l 974 844 q 883 525 931 719 l 853 525 q 861 632 861 596 q 856 685 861 663 q 839 731 851 707 q 763 811 814 783 q 649 839 713 839 q 463 747 550 839 q 324 516 376 656 q 272 244 272 376 q 313 67 272 129 q 426 6 354 6 q 558 34 490 6 q 676 114 626 63 q 739 199 713 151 q 801 333 765 247 l 832 333 q 750 0 767 93 l 719 0 q 724 47 724 29 q 706 83 724 83 q 678 71 694 83 q 553 3 614 26 q 414 -19 493 -19 m 574 1011 q 614 1106 574 1069 q 717 1142 654 1142 q 792 1119 765 1142 q 819 1056 819 1096 q 778 963 819 1000 q 675 926 736 926 q 600 949 626 926 q 574 1011 574 971 z "},"d":{"ha":1075,"x_min":-53,"x_max":1031,"o":"m 1031 531 q 947 262 1031 383 q 712 70 864 140 q 360 0 560 0 l 283 1 q 149 4 206 4 q -53 0 15 4 l -49 28 q 23 39 -1 31 q 62 72 47 47 q 90 147 76 96 l 238 697 q 250 764 250 747 q 229 803 250 792 q 156 817 208 815 l 160 844 q 336 840 219 840 l 379 840 q 586 844 529 844 q 922 766 813 844 q 1031 531 1031 688 m 369 25 q 610 97 511 25 q 757 288 708 169 q 806 549 806 407 q 744 751 806 682 q 564 819 683 819 q 513 810 531 819 q 482 777 494 801 q 457 700 469 753 l 311 144 q 297 71 297 92 q 313 35 297 44 q 369 25 329 25 z "},"ð":{"ha":1075,"x_min":-53,"x_max":1031,"o":"m 1031 531 q 947 262 1031 383 q 712 70 864 140 q 360 0 560 0 l 283 1 q 149 4 206 4 q -53 0 15 4 l -49 28 q 23 39 -1 31 q 62 72 47 47 q 90 147 76 96 l 238 697 q 250 764 250 747 q 229 803 250 792 q 156 817 208 815 l 160 844 q 336 840 219 840 l 379 840 q 586 844 529 844 q 922 766 813 844 q 1031 531 1031 688 m 369 25 q 610 97 511 25 q 757 288 708 169 q 806 549 806 407 q 744 751 806 682 q 564 819 683 819 q 513 810 531 819 q 482 777 494 801 q 457 700 469 753 l 311 144 q 297 71 297 92 q 313 35 297 44 q 369 25 329 25 m 608 408 l 19 408 l 28 443 l 617 443 l 608 408 z "},"ď":{"ha":1075,"x_min":-53,"x_max":1031,"o":"m 1031 531 q 947 262 1031 383 q 712 70 864 140 q 360 0 560 0 l 283 1 q 149 4 206 4 q -53 0 15 4 l -49 28 q 23 39 -1 31 q 62 72 47 47 q 90 147 76 96 l 238 697 q 250 764 250 747 q 229 803 250 792 q 156 817 208 815 l 160 844 q 336 840 219 840 l 379 840 q 586 844 529 844 q 922 766 813 844 q 1031 531 1031 688 m 369 25 q 610 97 511 25 q 757 288 708 169 q 806 549 806 407 q 744 751 806 682 q 564 819 683 819 q 513 810 531 819 q 482 777 494 801 q 457 700 469 753 l 311 144 q 297 71 297 92 q 313 35 297 44 q 369 25 329 25 m 657 1081 q 958 1163 803 1133 l 965 1143 q 750 1049 850 1107 q 589 928 650 992 l 564 928 q 488 1056 532 1006 q 371 1143 444 1107 l 376 1163 q 526 1128 467 1147 q 657 1081 586 1110 z "},"đ":{"ha":1075,"x_min":-53,"x_max":1031,"o":"m 1031 531 q 947 262 1031 383 q 712 70 864 140 q 360 0 560 0 l 283 1 q 149 4 206 4 q -53 0 15 4 l -49 28 q 23 39 -1 31 q 62 72 47 47 q 90 147 76 96 l 238 697 q 250 764 250 747 q 229 803 250 792 q 156 817 208 815 l 160 844 q 336 840 219 840 l 379 840 q 586 844 529 844 q 922 766 813 844 q 1031 531 1031 688 m 369 25 q 610 97 511 25 q 757 288 708 169 q 806 549 806 407 q 744 751 806 682 q 564 819 683 819 q 513 810 531 819 q 482 777 494 801 q 457 700 469 753 l 311 144 q 297 71 297 92 q 313 35 297 44 q 369 25 329 25 m 608 408 l 19 408 l 28 443 l 617 443 l 608 408 z "},"e":{"ha":881,"x_min":-60,"x_max":900,"o":"m 607 840 q 900 844 811 840 q 849 686 869 769 q 828 594 836 642 l 797 594 q 803 660 803 642 q 763 778 803 743 q 642 813 724 813 l 599 813 q 526 805 550 813 q 487 774 501 797 q 458 697 472 750 l 389 439 l 453 439 q 563 485 517 439 q 635 594 610 532 l 665 594 q 618 425 642 524 q 599 353 608 390 q 581 256 590 317 l 550 256 q 529 366 554 321 q 432 411 504 411 l 381 411 l 310 147 q 297 79 297 94 q 317 41 297 50 q 390 32 338 32 l 442 32 q 617 88 549 32 q 740 278 686 143 l 771 278 q 740 172 754 233 q 704 0 722 110 q 386 4 610 4 q -60 0 90 4 l -54 28 q 21 39 -4 31 q 60 71 46 47 q 89 147 75 94 l 238 697 q 249 764 249 744 q 228 804 249 794 q 156 817 208 814 l 163 844 q 607 840 311 840 z "},"é":{"ha":881,"x_min":-60,"x_max":900,"o":"m 607 840 q 900 844 811 840 q 849 686 869 769 q 828 594 836 642 l 797 594 q 803 660 803 642 q 763 778 803 743 q 642 813 724 813 l 599 813 q 526 805 550 813 q 487 774 501 797 q 458 697 472 750 l 389 439 l 453 439 q 563 485 517 439 q 635 594 610 532 l 665 594 q 618 425 642 524 q 599 353 608 390 q 581 256 590 317 l 550 256 q 529 366 554 321 q 432 411 504 411 l 381 411 l 310 147 q 297 79 297 94 q 317 41 297 50 q 390 32 338 32 l 442 32 q 617 88 549 32 q 740 278 686 143 l 771 278 q 740 172 754 233 q 704 0 722 110 q 386 4 610 4 q -60 0 90 4 l -54 28 q 21 39 -4 31 q 60 71 46 47 q 89 147 75 94 l 238 697 q 249 764 249 744 q 228 804 249 794 q 156 817 208 814 l 163 844 q 607 840 311 840 m 458 950 q 554 1032 513 993 q 604 1078 596 1071 q 672 1138 647 1118 q 722 1174 696 1158 q 782 1189 749 1189 q 849 1151 831 1189 q 856 1124 856 1139 q 839 1080 856 1100 q 793 1044 822 1060 q 734 1019 769 1032 q 660 996 699 1007 q 468 933 556 968 l 458 950 z "},"ĕ":{"ha":881,"x_min":-60,"x_max":924,"o":"m 607 840 q 900 844 811 840 q 849 686 869 769 q 828 594 836 642 l 797 594 q 803 660 803 642 q 763 778 803 743 q 642 813 724 813 l 599 813 q 526 805 550 813 q 487 774 501 797 q 458 697 472 750 l 389 439 l 453 439 q 563 485 517 439 q 635 594 610 532 l 665 594 q 618 425 642 524 q 599 353 608 390 q 581 256 590 317 l 550 256 q 529 366 554 321 q 432 411 504 411 l 381 411 l 310 147 q 297 79 297 94 q 317 41 297 50 q 390 32 338 32 l 442 32 q 617 88 549 32 q 740 278 686 143 l 771 278 q 740 172 754 233 q 704 0 722 110 q 386 4 610 4 q -60 0 90 4 l -54 28 q 21 39 -4 31 q 60 71 46 47 q 89 147 75 94 l 238 697 q 249 764 249 744 q 228 804 249 794 q 156 817 208 814 l 163 844 q 607 840 311 840 m 592 1060 q 908 1147 778 1060 l 924 1133 q 764 992 865 1053 q 564 932 663 932 q 417 988 472 932 q 344 1132 361 1043 l 365 1142 q 458 1078 406 1097 q 592 1060 510 1060 z "},"ě":{"ha":881,"x_min":-60,"x_max":957,"o":"m 607 840 q 900 844 811 840 q 849 686 869 769 q 828 594 836 642 l 797 594 q 803 660 803 642 q 763 778 803 743 q 642 813 724 813 l 599 813 q 526 805 550 813 q 487 774 501 797 q 458 697 472 750 l 389 439 l 453 439 q 563 485 517 439 q 635 594 610 532 l 665 594 q 618 425 642 524 q 599 353 608 390 q 581 256 590 317 l 550 256 q 529 366 554 321 q 432 411 504 411 l 381 411 l 310 147 q 297 79 297 94 q 317 41 297 50 q 390 32 338 32 l 442 32 q 617 88 549 32 q 740 278 686 143 l 771 278 q 740 172 754 233 q 704 0 722 110 q 386 4 610 4 q -60 0 90 4 l -54 28 q 21 39 -4 31 q 60 71 46 47 q 89 147 75 94 l 238 697 q 249 764 249 744 q 228 804 249 794 q 156 817 208 814 l 163 844 q 607 840 311 840 m 649 1081 q 950 1163 794 1133 l 957 1143 q 742 1049 842 1107 q 581 928 642 992 l 556 928 q 480 1056 524 1006 q 363 1143 436 1107 l 368 1163 q 518 1128 458 1147 q 649 1081 578 1110 z "},"ê":{"ha":881,"x_min":-60,"x_max":900,"o":"m 607 840 q 900 844 811 840 q 849 686 869 769 q 828 594 836 642 l 797 594 q 803 660 803 642 q 763 778 803 743 q 642 813 724 813 l 599 813 q 526 805 550 813 q 487 774 501 797 q 458 697 472 750 l 389 439 l 453 439 q 563 485 517 439 q 635 594 610 532 l 665 594 q 618 425 642 524 q 599 353 608 390 q 581 256 590 317 l 550 256 q 529 366 554 321 q 432 411 504 411 l 381 411 l 310 147 q 297 79 297 94 q 317 41 297 50 q 390 32 338 32 l 442 32 q 617 88 549 32 q 740 278 686 143 l 771 278 q 740 172 754 233 q 704 0 722 110 q 386 4 610 4 q -60 0 90 4 l -54 28 q 21 39 -4 31 q 60 71 46 47 q 89 147 75 94 l 238 697 q 249 764 249 744 q 228 804 249 794 q 156 817 208 814 l 163 844 q 607 840 311 840 m 569 1014 q 267 932 425 961 l 260 951 q 475 1045 375 988 q 636 1167 575 1103 l 661 1167 q 737 1038 693 1089 q 854 951 781 988 l 849 932 q 698 966 758 947 q 569 1014 638 985 z "},"ế":{"ha":881,"x_min":-60,"x_max":932,"o":"m 607 840 q 900 844 811 840 q 849 686 869 769 q 828 594 836 642 l 797 594 q 803 660 803 642 q 763 778 803 743 q 642 813 724 813 l 599 813 q 526 805 550 813 q 487 774 501 797 q 458 697 472 750 l 389 439 l 453 439 q 563 485 517 439 q 635 594 610 532 l 665 594 q 618 425 642 524 q 599 353 608 390 q 581 256 590 317 l 550 256 q 529 366 554 321 q 432 411 504 411 l 381 411 l 310 147 q 297 79 297 94 q 317 41 297 50 q 390 32 338 32 l 442 32 q 617 88 549 32 q 740 278 686 143 l 771 278 q 740 172 754 233 q 704 0 722 110 q 386 4 610 4 q -60 0 90 4 l -54 28 q 21 39 -4 31 q 60 71 46 47 q 89 147 75 94 l 238 697 q 249 764 249 744 q 228 804 249 794 q 156 817 208 814 l 163 844 q 607 840 311 840 m 569 1014 q 267 932 425 961 l 260 951 q 475 1045 375 988 q 636 1167 575 1103 l 661 1167 q 737 1038 693 1089 q 854 951 781 988 l 849 932 q 698 966 758 947 q 569 1014 638 985 m 535 1256 q 631 1338 589 1299 q 681 1383 672 1376 q 748 1444 724 1424 q 799 1479 772 1464 q 858 1494 825 1494 q 925 1457 907 1494 q 932 1429 932 1444 q 915 1385 932 1406 q 869 1350 899 1365 q 810 1325 846 1338 q 736 1301 775 1313 q 544 1239 632 1274 l 535 1256 z "},"ệ":{"ha":881,"x_min":-60,"x_max":900,"o":"m 607 840 q 900 844 811 840 q 849 686 869 769 q 828 594 836 642 l 797 594 q 803 660 803 642 q 763 778 803 743 q 642 813 724 813 l 599 813 q 526 805 550 813 q 487 774 501 797 q 458 697 472 750 l 389 439 l 453 439 q 563 485 517 439 q 635 594 610 532 l 665 594 q 618 425 642 524 q 599 353 608 390 q 581 256 590 317 l 550 256 q 529 366 554 321 q 432 411 504 411 l 381 411 l 310 147 q 297 79 297 94 q 317 41 297 50 q 390 32 338 32 l 442 32 q 617 88 549 32 q 740 278 686 143 l 771 278 q 740 172 754 233 q 704 0 722 110 q 386 4 610 4 q -60 0 90 4 l -54 28 q 21 39 -4 31 q 60 71 46 47 q 89 147 75 94 l 238 697 q 249 764 249 744 q 228 804 249 794 q 156 817 208 814 l 163 844 q 607 840 311 840 m 569 1014 q 267 932 425 961 l 260 951 q 475 1045 375 988 q 636 1167 575 1103 l 661 1167 q 737 1038 693 1089 q 854 951 781 988 l 849 932 q 698 966 758 947 q 569 1014 638 985 m 357 -260 q 290 -241 314 -260 q 267 -187 267 -222 q 300 -106 267 -136 q 389 -76 333 -76 q 456 -95 432 -76 q 479 -149 479 -114 q 445 -230 479 -200 q 357 -260 411 -260 z "},"ề":{"ha":881,"x_min":-60,"x_max":900,"o":"m 607 840 q 900 844 811 840 q 849 686 869 769 q 828 594 836 642 l 797 594 q 803 660 803 642 q 763 778 803 743 q 642 813 724 813 l 599 813 q 526 805 550 813 q 487 774 501 797 q 458 697 472 750 l 389 439 l 453 439 q 563 485 517 439 q 635 594 610 532 l 665 594 q 618 425 642 524 q 599 353 608 390 q 581 256 590 317 l 550 256 q 529 366 554 321 q 432 411 504 411 l 381 411 l 310 147 q 297 79 297 94 q 317 41 297 50 q 390 32 338 32 l 442 32 q 617 88 549 32 q 740 278 686 143 l 771 278 q 740 172 754 233 q 704 0 722 110 q 386 4 610 4 q -60 0 90 4 l -54 28 q 21 39 -4 31 q 60 71 46 47 q 89 147 75 94 l 238 697 q 249 764 249 744 q 228 804 249 794 q 156 817 208 814 l 163 844 q 607 840 311 840 m 569 1014 q 267 932 425 961 l 260 951 q 475 1045 375 988 q 636 1167 575 1103 l 661 1167 q 737 1038 693 1089 q 854 951 781 988 l 849 932 q 698 966 758 947 q 569 1014 638 985 m 713 1238 q 546 1303 636 1272 q 503 1319 536 1307 q 447 1346 471 1331 q 416 1376 428 1357 q 404 1417 404 1396 q 414 1451 404 1436 q 476 1485 433 1485 q 529 1469 506 1485 q 563 1440 549 1457 q 606 1389 578 1424 q 644 1340 613 1381 q 724 1253 676 1299 l 713 1238 z "},"ể":{"ha":881,"x_min":-60,"x_max":1051,"o":"m 607 840 q 900 844 811 840 q 849 686 869 769 q 828 594 836 642 l 797 594 q 803 660 803 642 q 763 778 803 743 q 642 813 724 813 l 599 813 q 526 805 550 813 q 487 774 501 797 q 458 697 472 750 l 389 439 l 453 439 q 563 485 517 439 q 635 594 610 532 l 665 594 q 618 425 642 524 q 599 353 608 390 q 581 256 590 317 l 550 256 q 529 366 554 321 q 432 411 504 411 l 381 411 l 310 147 q 297 79 297 94 q 317 41 297 50 q 390 32 338 32 l 442 32 q 617 88 549 32 q 740 278 686 143 l 771 278 q 740 172 754 233 q 704 0 722 110 q 386 4 610 4 q -60 0 90 4 l -54 28 q 21 39 -4 31 q 60 71 46 47 q 89 147 75 94 l 238 697 q 249 764 249 744 q 228 804 249 794 q 156 817 208 814 l 163 844 q 607 840 311 840 m 569 1014 q 267 932 425 961 l 260 951 q 475 1045 375 988 q 636 1167 575 1103 l 661 1167 q 737 1038 693 1089 q 854 951 781 988 l 849 932 q 698 966 758 947 q 569 1014 638 985 m 803 1151 q 824 1213 808 1189 q 868 1263 840 1236 q 909 1310 896 1289 q 922 1367 922 1332 q 839 1449 922 1449 q 776 1432 794 1449 q 825 1364 825 1411 q 801 1308 825 1331 q 740 1286 776 1286 q 690 1304 710 1286 q 671 1351 671 1322 q 692 1406 671 1382 q 750 1446 714 1431 q 889 1474 810 1474 q 1007 1449 963 1474 q 1051 1372 1051 1424 q 1026 1310 1051 1332 q 949 1265 1001 1289 q 867 1218 896 1242 q 831 1151 838 1194 l 803 1151 z "},"ễ":{"ha":881,"x_min":-60,"x_max":993,"o":"m 607 840 q 900 844 811 840 q 849 686 869 769 q 828 594 836 642 l 797 594 q 803 660 803 642 q 763 778 803 743 q 642 813 724 813 l 599 813 q 526 805 550 813 q 487 774 501 797 q 458 697 472 750 l 389 439 l 453 439 q 563 485 517 439 q 635 594 610 532 l 665 594 q 618 425 642 524 q 599 353 608 390 q 581 256 590 317 l 550 256 q 529 366 554 321 q 432 411 504 411 l 381 411 l 310 147 q 297 79 297 94 q 317 41 297 50 q 390 32 338 32 l 442 32 q 617 88 549 32 q 740 278 686 143 l 771 278 q 740 172 754 233 q 704 0 722 110 q 386 4 610 4 q -60 0 90 4 l -54 28 q 21 39 -4 31 q 60 71 46 47 q 89 147 75 94 l 238 697 q 249 764 249 744 q 228 804 249 794 q 156 817 208 814 l 163 844 q 607 840 311 840 m 569 1014 q 267 932 425 961 l 260 951 q 475 1045 375 988 q 636 1167 575 1103 l 661 1167 q 737 1038 693 1089 q 854 951 781 988 l 849 932 q 698 966 758 947 q 569 1014 638 985 m 597 1454 q 678 1440 646 1454 q 750 1399 711 1425 q 806 1364 783 1375 q 861 1353 829 1353 q 917 1372 892 1353 q 968 1433 943 1390 l 993 1426 q 893 1281 956 1329 q 763 1233 831 1233 q 681 1248 713 1233 q 608 1290 649 1263 q 553 1324 575 1313 q 499 1335 531 1335 q 442 1316 468 1335 q 392 1254 417 1297 l 367 1261 q 466 1406 404 1358 q 597 1454 528 1454 z "},"ë":{"ha":881,"x_min":-60,"x_max":900,"o":"m 607 840 q 900 844 811 840 q 849 686 869 769 q 828 594 836 642 l 797 594 q 803 660 803 642 q 763 778 803 743 q 642 813 724 813 l 599 813 q 526 805 550 813 q 487 774 501 797 q 458 697 472 750 l 389 439 l 453 439 q 563 485 517 439 q 635 594 610 532 l 665 594 q 618 425 642 524 q 599 353 608 390 q 581 256 590 317 l 550 256 q 529 366 554 321 q 432 411 504 411 l 381 411 l 310 147 q 297 79 297 94 q 317 41 297 50 q 390 32 338 32 l 442 32 q 617 88 549 32 q 740 278 686 143 l 771 278 q 740 172 754 233 q 704 0 722 110 q 386 4 610 4 q -60 0 90 4 l -54 28 q 21 39 -4 31 q 60 71 46 47 q 89 147 75 94 l 238 697 q 249 764 249 744 q 228 804 249 794 q 156 817 208 814 l 163 844 q 607 840 311 840 m 313 1017 q 347 1103 313 1071 q 432 1135 382 1135 q 499 1109 475 1135 q 522 1042 522 1083 q 486 956 522 988 q 401 925 450 925 q 335 950 358 925 q 313 1017 313 975 m 646 1017 q 681 1103 646 1071 q 765 1135 715 1135 q 832 1109 808 1135 q 856 1042 856 1083 q 819 956 856 988 q 735 925 783 925 q 668 950 690 925 q 646 1017 646 975 z "},"ė":{"ha":881,"x_min":-60,"x_max":900,"o":"m 607 840 q 900 844 811 840 q 849 686 869 769 q 828 594 836 642 l 797 594 q 803 660 803 642 q 763 778 803 743 q 642 813 724 813 l 599 813 q 526 805 550 813 q 487 774 501 797 q 458 697 472 750 l 389 439 l 453 439 q 563 485 517 439 q 635 594 610 532 l 665 594 q 618 425 642 524 q 599 353 608 390 q 581 256 590 317 l 550 256 q 529 366 554 321 q 432 411 504 411 l 381 411 l 310 147 q 297 79 297 94 q 317 41 297 50 q 390 32 338 32 l 442 32 q 617 88 549 32 q 740 278 686 143 l 771 278 q 740 172 754 233 q 704 0 722 110 q 386 4 610 4 q -60 0 90 4 l -54 28 q 21 39 -4 31 q 60 71 46 47 q 89 147 75 94 l 238 697 q 249 764 249 744 q 228 804 249 794 q 156 817 208 814 l 163 844 q 607 840 311 840 m 479 1011 q 519 1106 479 1069 q 622 1142 560 1142 q 698 1119 671 1142 q 725 1056 725 1096 q 683 963 725 1000 q 581 926 642 926 q 506 949 532 926 q 479 1011 479 971 z "}}}
